<svg width="81" height="81" viewBox="0 0 81 81" fill="none" xmlns="http://www.w3.org/2000/svg">
<path d="M76.5057 47.3686C76.2469 46.4217 76.2935 45.4256 76.1693 44.4581C76.102 43.9406 75.9441 43.3689 75.5067 43.0791C75.2168 42.8877 74.8467 42.8541 74.5309 42.7066C73.3947 42.1892 73.3119 40.4765 72.2636 39.8013C71.921 39.6139 71.5518 39.4795 71.1688 39.4028C69.691 39.007 68.2105 38.2645 67.4366 36.9477C67.1778 36.5208 67.0096 36.037 66.6757 35.6722C66.3418 35.3074 65.7569 35.085 65.335 35.3488C65.5602 36.0293 65.7802 36.7071 66.0002 37.3797C66.1606 38.0047 66.441 38.5925 66.8258 39.1105C67.2451 39.6072 67.9232 39.9306 68.5392 39.7469C68.7331 39.6503 68.9496 39.6083 69.1655 39.6253C69.3162 39.6794 69.4415 39.7872 69.5175 39.928C70.206 40.9629 69.722 42.4168 68.7877 43.2292C67.8533 44.0415 66.611 44.3442 65.41 44.6314C64.9922 44.7684 64.545 44.7898 64.1159 44.6935C63.3524 44.4348 63.0574 43.5189 62.9383 42.7169C62.6795 40.9448 62.6795 39.0639 61.8461 37.478C61.5743 36.9787 61.2146 36.5053 61.0877 35.9491C60.9557 35.3488 61.1007 34.6891 60.8289 34.1381C60.5571 33.587 59.8402 33.1472 59.879 32.5056C59.9127 32.058 60.3371 31.7295 60.772 31.5872C61.2068 31.4449 61.6701 31.4578 62.1153 31.3466C62.2887 31.3 62.4905 31.2069 62.5216 31.031C62.5604 30.7722 62.2084 30.6041 62.1489 30.3428C62.0894 30.0815 62.4077 29.8254 62.5708 29.5667C62.9202 28.982 62.3663 28.2731 61.7736 27.9161C61.1809 27.5591 60.4614 27.2796 60.2569 26.6225C60.1925 26.3148 60.1681 26 60.1844 25.686C60.1508 24.9099 59.6927 24.0742 58.9369 23.8336C58.1812 23.593 57.2132 24.1622 57.2261 24.9538C57.2417 25.3885 57.5108 25.7662 57.6247 26.1827C57.7386 26.5992 57.6118 27.1787 57.1873 27.246C56.4911 27.3521 56.0278 26.043 55.4092 26.3793C55.5231 27.1943 55.6318 28.004 55.7483 28.8241C54.8087 29.1424 53.877 28.1851 53.6363 27.2176C53.3956 26.25 53.5302 25.2151 53.2118 24.276C52.8935 23.3369 51.7909 22.5038 50.9394 23.0161C50.7375 24.1389 52.1636 24.8115 52.6916 25.8179C53.072 26.5475 52.8469 27.6082 52.0808 27.9264C51.3146 28.2446 50.3182 27.3547 50.6961 26.6329C50.8306 26.3742 51.0843 26.1905 51.1516 25.9085C51.2266 25.5566 50.9704 25.2281 50.7297 24.9616C50.357 24.5373 49.9843 24.1208 49.6116 23.7043C49.3864 23.4174 49.1055 23.179 48.786 23.0032C47.9474 22.6228 46.9742 23.2049 46.3945 23.919C45.8147 24.633 45.4239 25.5204 44.6888 26.0818C43.6302 26.8993 41.878 26.7053 41.1585 25.5825C40.439 24.4597 41.1585 22.6617 42.4759 22.478C42.9754 22.4133 43.5837 22.5142 43.8994 22.1261C44.4533 21.4354 43.3222 20.2893 43.8709 19.5908C44.2902 19.0552 45.1418 19.4511 45.8173 19.3476C46.4928 19.2441 46.9406 18.649 47.4013 18.1471C47.862 17.6452 48.522 17.1873 49.1587 17.446C49.1258 17.0502 49.2075 16.6532 49.3942 16.3025C49.6168 15.9714 50.1318 15.8136 50.4165 16.0878C50.0154 16.5716 50.2949 17.3814 50.8229 17.7177C51.3509 18.054 52.0161 18.098 52.6502 18.1187C53.2843 18.1394 54.0944 18.0178 54.2367 17.4021C54.2833 17.2029 54.2367 16.9752 54.3429 16.7967C54.7233 16.0956 55.945 17.3141 56.5584 16.7967C56.9078 16.538 56.6515 15.93 56.24 15.7618C55.8285 15.5937 55.3781 15.6868 54.9459 15.6376C54.5137 15.5885 54.0193 15.291 54.0633 14.8615C54.1073 14.4321 54.625 14.1992 54.7363 13.7879C54.92 13.0893 53.7424 12.7297 53.2351 13.2472C52.7278 13.7646 52.764 14.5769 52.7873 15.2987C52.8106 16.0205 52.7615 16.851 52.1713 17.2805C51.9125 17.5857 51.3483 17.3244 51.2085 16.9416C51.0688 16.5587 51.1697 16.1344 51.2085 15.7282C51.2474 15.322 51.1231 14.8356 50.7452 14.6727C50.4864 14.5562 50.1732 14.6468 49.8885 14.6442C48.7653 14.6183 48.2036 13.0919 48.7057 12.0778C49.2078 11.0636 50.3001 10.5255 51.3483 10.1374C52.1248 9.84511 53.0513 9.60709 53.6984 10.1064C54.0012 10.3392 54.185 10.6885 54.4749 10.9265C54.9925 11.3353 55.6939 11.3172 56.3332 11.4207C57.3452 11.5958 58.2653 12.116 58.9369 12.8927C59.1957 13.1928 59.3899 13.6689 59.1233 13.9276C58.8567 14.1863 58.132 14.1863 58.1967 14.5976C58.3759 14.676 58.5696 14.7157 58.7652 14.7143C58.9608 14.7128 59.1539 14.6702 59.3319 14.5891C59.5099 14.5081 59.6688 14.3905 59.7983 14.244C59.9278 14.0974 60.025 13.9253 60.0835 13.7387C60.2549 13.8496 60.3942 14.0035 60.4873 14.1852C60.5804 14.3668 60.6242 14.5697 60.6141 14.7736C60.8505 14.6106 61.1183 14.4986 61.4004 14.4447C61.6825 14.3907 61.9728 14.396 62.2527 14.4603C62.5326 14.5245 62.7961 14.6463 63.0264 14.8178C63.2568 14.9893 63.4489 15.2068 63.5905 15.4565C63.6957 15.7462 63.8498 16.0157 64.0461 16.2534C64.2764 16.4552 64.7319 16.4371 64.807 16.1421C64.8289 16.0477 64.8289 15.9494 64.807 15.855C64.7164 15.4022 64.6206 14.9546 64.5301 14.5071C65.1642 14.2768 65.7905 14.8719 66.114 15.4617C67.3098 17.6608 68.5444 16.6233 70.5891 17.2494C71.9738 17.6685 72.4629 18.6646 73.1048 19.8779C75.0641 23.6059 77.9008 26.8398 79.6168 30.6869C79.7893 31.0887 79.9532 31.4941 80.1085 31.9028C80.0852 31.8019 80.0671 31.7036 80.0412 31.6027C79.5038 29.1879 78.7395 26.8292 77.7584 24.558C77.5488 24.0742 77.334 23.5982 77.1114 23.1247C76.9716 22.8324 76.8266 22.5349 76.6791 22.2477C76.4954 21.87 76.2961 21.5052 76.0968 21.1404C75.9363 20.8455 75.7784 20.5557 75.6128 20.2737C75.4989 20.0745 75.3773 19.8779 75.2582 19.6787C75.1391 19.4795 74.9994 19.2337 74.8493 19.0112L74.4067 18.3179C74.3627 18.248 74.3161 18.1756 74.2617 18.1032C74.109 17.8626 73.9434 17.6245 73.7752 17.3865C73.7666 17.3585 73.7505 17.3335 73.7286 17.3141C73.6837 17.2503 73.6371 17.1856 73.5888 17.1201C73.4542 16.9183 73.3093 16.7216 73.1695 16.5276C72.9366 16.2094 72.6985 15.8912 72.45 15.5833C72.2507 15.3246 72.0411 15.0659 71.8262 14.8072C71.6114 14.5485 71.4509 14.3519 71.2568 14.1294C71.0627 13.9069 70.8789 13.6921 70.6822 13.4774C70.4493 13.2187 70.2086 12.9471 69.9627 12.6858C69.2846 11.9588 68.5754 11.2603 67.843 10.598C67.6618 10.4298 67.4832 10.2668 67.2994 10.1064C67.1157 9.946 66.9267 9.77784 66.7404 9.62261C66.554 9.46739 66.3651 9.3044 66.1736 9.15176C65.982 8.99912 65.7931 8.83872 65.6016 8.68867C65.41 8.53862 65.2936 8.42996 65.1331 8.32906C65.0574 8.26321 64.9779 8.20187 64.895 8.14538C64.5637 7.88666 64.2247 7.62795 63.883 7.40287C63.7122 7.28128 63.5414 7.15969 63.3654 7.04327C63.148 6.88804 62.9228 6.74057 62.6976 6.59828C62.666 6.57292 62.6322 6.55041 62.5967 6.53102C62.3948 6.39907 62.1955 6.27231 61.9858 6.13778C61.6934 5.95927 61.4035 5.78334 61.111 5.62035C60.7772 5.42373 60.4407 5.22711 60.099 5.04084C59.7574 4.85457 59.3433 4.6269 58.9576 4.43546C58.572 4.24401 58.1812 4.0448 57.7826 3.85853C57.384 3.67226 56.9932 3.49892 56.592 3.323C55.8 2.9815 54.9899 2.66329 54.172 2.37094L54.128 2.35283C53.8149 2.24159 53.4991 2.13293 53.1833 2.03462C53.1639 2.0239 53.1429 2.01606 53.1212 2.01133C52.9866 1.96735 52.8443 1.92079 52.6993 1.87939C52.1118 1.69053 51.5165 1.52237 50.9109 1.36197C50.841 1.33869 50.7659 1.32316 50.6909 1.30505C50.5175 1.25331 50.3415 1.2145 50.1732 1.17052C49.7721 1.07221 49.3709 0.981665 48.962 0.898878C48.553 0.81609 48.113 0.722954 47.6834 0.640166C47.2537 0.557379 46.7879 0.48494 46.3375 0.420262C45.1435 0.247788 43.9555 0.129643 42.7735 0.0658276C42.4914 0.0451307 42.2145 0.0321962 41.9376 0.0244348C41.6606 0.0166735 41.3578 0.00373694 41.0679 0.00114983C40.778 -0.00143728 40.4856 0.00114983 40.1983 0.00114983C39.911 0.00114983 39.6211 0.0011492 39.3286 0.0166719C39.0828 0.0166719 38.8291 0.0296076 38.5806 0.0451302C37.9664 0.0727261 37.3581 0.114121 36.756 0.169312C36.4738 0.192596 36.1891 0.223641 35.907 0.259861C35.6249 0.29608 35.3402 0.327127 35.0633 0.365933C34.5922 0.428024 34.1367 0.503049 33.6786 0.580662L32.5605 0.787632C32.552 0.785548 32.5431 0.785548 32.5346 0.787632C32.1541 0.862658 31.7866 0.945446 31.4087 1.04634H31.3492C31.0075 1.12654 30.6659 1.21192 30.3294 1.30505C29.9049 1.41113 29.4857 1.53272 29.0741 1.65431C28.7221 1.7578 28.3753 1.86387 28.0388 1.9777C27.7024 2.09154 27.3038 2.22089 26.9414 2.35025H26.9C26.5532 2.47443 26.2038 2.60896 25.8647 2.74349C25.5257 2.87802 25.1582 3.02289 24.8036 3.17812C24.4723 3.31783 24.1462 3.45753 23.8227 3.605C23.6984 3.65932 23.5794 3.71883 23.4525 3.77833C23.1057 3.93614 22.7718 4.10172 22.4173 4.27247C21.998 4.47685 21.5916 4.69676 21.1827 4.91666C20.8255 5.11069 20.4735 5.31249 20.1267 5.51428C18.1249 6.68304 16.2276 8.02208 14.4559 9.51654C13.8296 10.034 13.2343 10.5721 12.6442 11.1206C12.1498 11.594 11.6658 12.0726 11.1974 12.5745C10.7781 13.0091 10.3691 13.4567 9.97313 13.912C10.3691 13.4567 10.7781 13.0091 11.1974 12.5745C11.3009 12.5745 11.4044 12.5745 11.5054 12.5874C12.0825 12.6263 12.683 12.7323 13.2317 12.559C13.7493 12.3934 14.1401 12.0157 14.6164 11.7829C15.8328 11.1568 17.6627 11.2654 18.1519 9.99516C18.3175 9.5657 18.2658 9.06639 18.4935 8.66538C18.918 7.91771 19.9947 7.95651 20.8436 8.09363C21.2034 8.14537 21.6201 8.25662 21.7417 8.61105C21.7698 8.73604 21.7714 8.86552 21.7465 8.99116C21.7215 9.1168 21.6705 9.23584 21.5968 9.34062C20.8506 10.7555 19.6395 11.8701 18.1674 12.4969C16.9665 13.0143 15.4498 13.3222 14.9658 14.533C15.0564 14.9805 15.8328 15.0504 15.8328 15.5135C15.8328 15.8757 15.3437 15.9921 15.1314 16.2896C14.8234 16.7191 15.2945 17.3633 15.8251 17.415C16.3557 17.4667 16.8474 17.1563 17.2848 16.8484C18.5945 15.9429 19.974 14.965 20.6133 13.5033C20.8721 12.9005 21.0507 12.1735 21.6201 11.8294C21.7927 11.7418 21.9833 11.6954 22.1768 11.6938C22.3704 11.6922 22.5617 11.7354 22.7357 11.8202C22.9098 11.9049 23.0618 12.0288 23.1799 12.1821C23.298 12.3354 23.3789 12.514 23.4163 12.7039C23.9572 12.4969 24.7699 12.4012 24.9537 12.9626C24.984 13.1646 24.9909 13.3695 24.9744 13.5731C25.0236 14.4088 26.0796 14.9365 26.077 15.7722C26.077 16.7346 24.7829 17.0476 23.8227 17.0657C22.9478 17.0657 22.073 17.0838 21.1956 17.0994C20.814 17.072 20.4314 17.1368 20.0801 17.2882C19.9064 17.3701 19.766 17.509 19.6822 17.6817C19.5984 17.8544 19.5762 18.0506 19.6194 18.2377C19.7229 18.4255 19.8499 18.5993 19.9973 18.7551C20.6055 19.5675 19.8083 20.9464 18.8015 20.8248C18.4573 20.786 18.1389 20.6127 17.7999 20.548C16.7905 20.3591 15.8561 21.1353 15.2427 21.9605C14.6293 22.7858 14.122 23.7534 13.2213 24.245C11.7745 25.0392 9.55383 24.4856 8.70231 25.9033C8.36067 26.4751 8.39432 27.1787 8.39949 27.8462C8.40467 28.5137 8.34773 29.2381 7.88185 29.7219C7.41597 30.2057 6.43763 30.172 6.24351 29.5356C6.18774 29.2505 6.21746 28.9553 6.32892 28.687C6.61708 27.7712 6.90092 26.8545 7.18045 25.9369C7.3875 25.2539 7.59715 24.4882 7.26586 23.8672C6.80516 22.985 5.5007 22.8738 4.65953 23.4067C3.81836 23.9397 3.36542 24.8969 3.0186 25.8231C2.75978 26.5113 2.44143 27.4892 1.93155 28.2421C1.67273 29.0182 1.46049 29.7943 1.2612 30.586C1.06191 31.3776 0.883326 32.2081 0.730621 33.0411C0.859038 32.9636 0.981848 32.8772 1.09815 32.7824C1.55885 32.428 2.61743 30.8007 3.2153 31.7605C3.28879 31.8854 3.31876 32.0311 3.30049 32.1749C3.28222 32.3186 3.21676 32.4522 3.11436 32.5548C2.85554 32.8135 2.39743 32.8135 2.18002 33.0929C1.9212 33.4318 2.14378 33.9285 2.45178 34.2209C2.75978 34.5132 3.15578 34.7383 3.3473 35.1134C3.71224 35.8456 3.12213 36.7899 3.47412 37.535C3.77695 38.174 4.59741 38.3318 5.28587 38.5077L5.5214 38.5827C5.91999 37.2142 6.73786 36.1741 8.70231 36.0189C11.4148 35.8016 14.5517 38.4767 15.7423 40.6757C17.0726 43.1283 17.3987 46.3674 19.7643 47.8472C21.457 48.9027 24.0685 48.9881 24.6949 50.8844C25.2513 52.5842 23.6234 54.1675 23.1601 55.8931C22.8598 57.0366 23.0721 58.2448 22.9918 59.4167C22.9116 60.5887 22.3681 61.903 21.237 62.2393C20.6081 62.4204 19.8705 62.2807 19.3321 62.6558C18.3719 63.3336 18.8145 65.0825 17.8646 65.7603C17.5281 65.9958 17.1011 66.0371 16.7128 66.1691C14.6759 66.8521 14.3239 69.6488 14.9244 71.7107L14.9917 71.928C20.6691 76.5408 27.491 79.5296 34.732 80.5767C41.29 81.5345 47.9832 80.861 54.2186 78.6157V78.6157C57.553 77.4098 60.7164 75.7757 63.6294 73.7545C64.8488 72.9097 66.0189 71.9958 67.1338 71.0173C67.9103 70.3421 68.6686 69.6281 69.3959 68.8933C69.7686 68.513 70.1361 68.1301 70.4829 67.7343C73.0917 64.8876 75.2715 61.676 76.9535 58.2008C77.9798 56.0782 78.8131 53.8677 79.4433 51.5959C79.7022 50.7111 79.9222 49.8134 80.1163 48.9027C79.6318 49.2844 79.0156 49.4584 78.4029 49.3865C77.4401 49.2313 76.7645 48.3103 76.5057 47.3686Z" fill="#EBEBEB"/>
<path d="M64.0901 52.2401C65.8708 51.0991 66.9578 48.1007 65.0943 47.0995C64.3903 46.7218 63.5025 46.8175 62.8037 46.4242C61.8953 45.9068 61.6028 44.7659 61.3957 43.744C60.8522 41.062 60.3078 38.3792 59.7626 35.6955C59.4339 34.0786 58.8567 32.177 57.2727 31.7165C56.3746 31.4578 55.4221 31.7631 54.4904 31.7993C51.2732 31.9157 47.101 23.5749 43.9797 28.33C43.8477 26.8967 41.5157 27.0908 40.615 28.2187C39.7143 29.3467 39.3209 30.9559 38.063 31.6441C37.0976 32.1615 35.8164 32.0244 34.983 32.7462C34.4007 33.2636 34.2066 34.0579 34.0228 34.8159C33.6915 36.256 33.3593 37.6971 33.0263 39.1389C32.7675 40.3006 32.4957 41.545 32.9306 42.6548C33.3654 43.7647 34.8044 44.5564 35.7905 43.8863C36.2435 43.5784 36.4945 43.0507 36.8828 42.6652C37.2035 42.358 37.6064 42.1502 38.0428 42.0671C38.4792 41.984 38.9303 42.0291 39.3416 42.1969C40.0249 42.4867 40.5166 43.0946 40.9411 43.7078C44.3834 48.6854 44.9399 55.148 44.254 61.1604C44.1272 62.2625 43.9667 63.3879 44.2229 64.4668C44.5232 65.7293 45.3799 66.8391 45.4912 68.1327C45.5766 69.1261 45.2116 70.1532 45.4912 71.1079C46.0088 72.8697 48.5375 73.3069 50.0904 72.3238C51.6433 71.3407 52.3965 69.5013 52.9375 67.7446C53.4784 65.988 53.9339 64.1227 55.1581 62.7541C55.9165 61.9055 56.944 61.2872 57.5315 60.3119C58.352 58.9459 58.1475 57.1582 58.9266 55.7689C59.9645 53.9243 62.3094 53.3784 64.0901 52.2401Z" fill="#E0E0E0"/>
<path d="M24.6664 50.8458C24.0401 48.9494 21.4286 48.864 19.7359 47.8085C17.3702 46.3339 17.0441 43.0896 15.7138 40.637C14.5232 38.4458 11.3863 35.7707 8.67385 35.9802C6.70939 36.1355 5.89152 37.1755 5.49294 38.5441L5.25741 38.469C4.56377 38.2931 3.7433 38.1353 3.44566 37.4963C3.09366 36.7512 3.68378 35.8069 3.31884 35.0747C3.12731 34.6919 2.73131 34.4797 2.42332 34.1822C2.11532 33.8847 1.89014 33.3931 2.15155 33.0542C2.36896 32.7696 2.8219 32.7696 3.0859 32.5161C3.18829 32.4135 3.25376 32.2799 3.27202 32.1362C3.29029 31.9925 3.26033 31.8467 3.18684 31.7219C2.58896 30.762 1.53038 32.3893 1.07227 32.7438C0.95467 32.838 0.831036 32.9244 0.702157 33.0025V33.0025C0.683525 33.0749 0.668837 33.1483 0.658157 33.2224C0.614158 33.4578 0.580509 33.701 0.539098 33.9442C0.497687 34.1874 0.458864 34.4228 0.422629 34.6634C0.394159 34.86 0.373451 35.0566 0.347569 35.2533C0.321687 35.4499 0.293218 35.6465 0.272512 35.8405C0.259571 35.9363 0.246629 36.0242 0.238864 36.1199C-0.238678 40.4905 0.000864835 44.9096 0.948036 49.203C1.3708 51.1112 1.93575 52.9852 2.63814 54.8092C2.92543 55.5854 3.25413 56.3615 3.60095 57.1376C4.03318 58.0871 4.49389 59.021 5.00376 59.9291C5.47482 60.801 5.9847 61.6573 6.5334 62.4878C7.27771 63.6409 8.08112 64.7549 8.94044 65.8251C9.70482 66.7772 10.5115 67.6922 11.3604 68.5701C10.1051 62.7698 8.97667 56.8763 6.35222 51.5986C8.97667 56.8763 10.1051 62.7698 11.3604 68.5701C11.7202 68.953 12.0877 69.3178 12.463 69.6748C12.758 69.9611 13.0574 70.2422 13.3611 70.5182C13.6665 70.795 13.9745 71.0666 14.2903 71.3331C14.5077 71.5194 14.7277 71.7005 14.9554 71.8816L14.8881 71.6643C14.2877 69.5946 14.6293 66.8057 16.6766 66.1227C17.0648 65.9907 17.4919 65.9493 17.8284 65.7139C18.7886 65.0361 18.346 63.2872 19.2959 62.6094C19.8342 62.2342 20.5719 62.3739 21.2008 62.1928C22.3318 61.8565 22.8702 60.55 22.9556 59.3703C23.041 58.1906 22.8236 56.9902 23.1238 55.8467C23.5949 54.1288 25.228 52.5455 24.6664 50.8458ZM4.556 39.954C4.76824 40.0084 4.98306 40.0575 5.19788 40.0989C4.98306 40.0524 4.78118 40.0032 4.556 39.954ZM5.12541 40.7121C5.05812 41.3278 4.996 41.9565 4.90024 42.5567C4.88212 42.6679 4.85882 42.7792 4.83294 42.893C4.85882 42.7792 4.88212 42.6679 4.90024 42.5567C4.996 41.9513 5.05812 41.3226 5.12541 40.7069V40.7121ZM1.77626 36.9426C2.32496 37.4161 2.81155 37.9775 2.84002 38.6708C2.8219 37.9827 2.32496 37.4109 1.77626 36.9375V36.9426ZM2.85555 39.271C2.80453 39.1308 2.79731 38.9783 2.83484 38.8338C2.79731 38.9783 2.80453 39.1308 2.85555 39.271C2.91346 39.3632 2.99975 39.434 3.10143 39.4728C2.99975 39.434 2.91346 39.3632 2.85555 39.271V39.271ZM4.36706 44.585C4.2345 45.0348 4.15375 45.4983 4.12636 45.9665C4.12427 46.7558 4.29106 47.5365 4.61553 48.2561C4.29106 47.5365 4.12427 46.7558 4.12636 45.9665C4.15375 45.4983 4.2345 45.0348 4.36706 44.585V44.585ZM4.69059 48.4268C4.76047 48.5872 4.83553 48.7476 4.91318 48.9054C4.83553 48.7502 4.76047 48.5872 4.69059 48.4268V48.4268Z" fill="#E0E0E0"/>
<path d="M4.62588 23.3731C5.46705 22.8402 6.77151 22.9514 7.23221 23.8336C7.5635 24.4649 7.35386 25.2307 7.1468 25.9033C6.86555 26.8192 6.58171 27.7359 6.29528 28.6534C6.18382 28.9217 6.1541 29.2169 6.20987 29.502C6.40398 30.1384 7.39786 30.1669 7.84821 29.6883C8.29856 29.2096 8.36585 28.4749 8.36585 27.8126C8.36585 27.1503 8.32703 26.4414 8.66867 25.8697C9.52019 24.4519 11.7409 25.0056 13.1877 24.2113C14.0884 23.7198 14.5983 22.7522 15.2091 21.9269C15.8199 21.1016 16.762 20.3255 17.7662 20.5144C18.1053 20.579 18.4236 20.7524 18.7679 20.7912C19.7747 20.9024 20.5796 19.5235 19.9636 18.7215C19.8162 18.5657 19.6893 18.3919 19.5857 18.2041C19.5426 18.017 19.5647 17.8208 19.6485 17.6481C19.7323 17.4754 19.8728 17.3365 20.0465 17.2546C20.3978 17.1032 20.7804 17.0384 21.162 17.0657C22.0394 17.0502 22.9142 17.0425 23.789 17.0321C24.757 17.0321 26.0382 16.7087 26.0433 15.7386C26.0433 14.9029 24.9899 14.3752 24.9408 13.5395C24.9573 13.3359 24.9503 13.131 24.92 12.929C24.7363 12.3701 23.9236 12.4659 23.3827 12.6702C23.3452 12.4804 23.2643 12.3018 23.1462 12.1485C23.0281 11.9951 22.8761 11.8713 22.7021 11.7865C22.5281 11.7018 22.3367 11.6586 22.1432 11.6602C21.9496 11.6618 21.759 11.7082 21.5864 11.7958C21.017 12.1399 20.8488 12.8669 20.5796 13.4697C19.9403 14.9314 18.5608 15.9093 17.2512 16.8148C16.8138 17.1149 16.322 17.4305 15.7914 17.3814C15.2608 17.3322 14.7898 16.6854 15.0978 16.256C15.31 15.9636 15.7914 15.8472 15.7992 15.4798C15.7992 15.0271 15.0227 14.9469 14.9321 14.4993C15.4161 13.2886 16.9328 12.9755 18.1338 12.4633C19.6059 11.8365 20.817 10.7219 21.5631 9.307C21.6369 9.20222 21.6878 9.08319 21.7128 8.95754C21.7378 8.8319 21.7362 8.70242 21.7081 8.57744C21.589 8.23594 21.1697 8.12469 20.81 8.06002C19.961 7.9229 18.8843 7.88409 18.4599 8.63177C18.2321 9.03277 18.2839 9.53208 18.1182 9.96154C17.6291 11.237 15.7888 11.1232 14.5827 11.7492C14.1065 11.9898 13.7079 12.3676 13.198 12.5254C12.6493 12.6987 12.0489 12.5926 11.4717 12.5538C11.3708 12.5538 11.2672 12.5538 11.1637 12.5409C10.7444 12.9755 10.3355 13.4231 9.93948 13.8784C9.54348 14.3338 9.16302 14.7994 8.77996 15.2729C6.9916 17.5158 5.44966 19.9444 4.18071 22.5168C3.73208 23.4206 3.31883 24.3442 2.94095 25.2876C2.56308 26.231 2.21798 27.1934 1.90567 28.1748C2.42331 27.422 2.73907 26.444 2.99272 25.7559C3.33436 24.8633 3.78989 23.9138 4.62588 23.3731Z" fill="#E0E0E0"/>
<path d="M80.6494 45.7128C80.7305 45.1351 80.7961 44.5599 80.8461 43.9872C80.8962 43.4146 80.9341 42.842 80.96 42.2694C80.9833 41.8063 80.9962 41.3484 80.9988 40.8879C81.0014 40.4274 80.9988 39.9203 80.9988 39.4391C80.9672 38.0016 80.8557 36.567 80.665 35.1419C80.5925 34.5986 80.5071 34.0553 80.4061 33.5172C80.3052 32.9791 80.2068 32.4435 80.0904 31.908C79.942 31.4993 79.7781 31.0939 79.5986 30.6921C77.8826 26.845 75.0459 23.6112 73.0867 19.8831C72.4448 18.6698 71.9556 17.6737 70.5709 17.2546C68.5262 16.6285 67.2917 17.666 66.0959 15.4669C65.7724 14.8771 65.146 14.282 64.5119 14.5123C64.6025 14.9599 64.6983 15.4074 64.7889 15.8602C64.8107 15.9546 64.8107 16.0529 64.7889 16.1473C64.7138 16.4423 64.2583 16.4604 64.0279 16.2586C63.8316 16.021 63.6776 15.7514 63.5724 15.4618C63.4307 15.212 63.2386 14.9945 63.0083 14.823C62.778 14.6515 62.5145 14.5297 62.2346 14.4655C61.9546 14.4012 61.6644 14.3959 61.3823 14.4499C61.1002 14.5038 60.8324 14.6158 60.596 14.7788C60.606 14.5749 60.5623 14.372 60.4692 14.1904C60.3761 14.0087 60.2368 13.8548 60.0654 13.7439C60.0069 13.9305 59.9097 14.1026 59.7802 14.2492C59.6507 14.3957 59.4918 14.5133 59.3138 14.5943C59.1358 14.6754 58.9427 14.718 58.7471 14.7195C58.5515 14.7209 58.3578 14.6812 58.1786 14.6028C58.1139 14.1992 58.8153 14.2277 59.1051 13.9328C59.395 13.6378 59.1673 13.1851 58.9188 12.8979C58.2471 12.1212 57.3271 11.601 56.315 11.4259C55.6758 11.3224 54.9666 11.3405 54.4567 10.9317C54.1617 10.6937 53.9779 10.3444 53.6803 10.1116C53.0332 9.6123 52.0989 9.8529 51.3302 10.1427C50.2819 10.5411 49.1819 11.074 48.6876 12.083C48.1932 13.092 48.7471 14.6235 49.8704 14.6494C50.1551 14.6494 50.4657 14.5614 50.7271 14.6779C51.105 14.8408 51.2163 15.3246 51.1904 15.7334C51.1645 16.1422 51.0558 16.5639 51.1904 16.9468C51.325 17.3297 51.8814 17.5909 52.1532 17.2857C52.7433 16.8666 52.8003 16.0283 52.7692 15.3039C52.7381 14.5796 52.7123 13.7672 53.217 13.2524C53.7217 12.7375 54.9019 13.0945 54.7181 13.7931C54.6068 14.2044 54.0866 14.4398 54.0452 14.8667C54.0038 15.2936 54.4955 15.604 54.9278 15.6429C55.36 15.6817 55.8233 15.5989 56.2219 15.767C56.6205 15.9352 56.8896 16.5432 56.5402 16.8019C55.9268 17.3193 54.7052 16.1034 54.3247 16.8019C54.2212 16.9804 54.2652 17.2081 54.2186 17.4073C54.0763 18.023 53.2636 18.1368 52.632 18.1239C52.0005 18.111 51.3379 18.0722 50.8047 17.7229C50.2716 17.3736 49.9972 16.5768 50.3984 16.093C50.1137 15.8188 49.5986 15.9766 49.3761 16.3077C49.1894 16.6584 49.1076 17.0554 49.1405 17.4512C48.5012 17.2106 47.8309 17.6815 47.3754 18.1808C46.9198 18.6801 46.4591 19.2777 45.7914 19.3812C45.1236 19.4847 44.2643 19.0889 43.845 19.6244C43.2963 20.3229 44.4274 21.469 43.8735 22.1598C43.5578 22.5479 42.9495 22.447 42.45 22.5116C41.1222 22.6876 40.4079 24.4882 41.1326 25.6162C41.8573 26.7441 43.6043 26.933 44.6629 26.1155C45.398 25.5541 45.7914 24.6719 46.3685 23.9527C46.9457 23.2334 47.9215 22.6591 48.7601 23.0368C49.0796 23.2126 49.3604 23.4511 49.5857 23.7379C49.9584 24.1544 50.3311 24.571 50.7038 24.9953C50.9445 25.254 51.2007 25.5903 51.1257 25.9421C51.0584 26.2241 50.8047 26.413 50.6702 26.6665C50.2923 27.3961 51.2965 28.2835 52.0549 27.9601C52.8132 27.6367 53.0461 26.5812 52.6657 25.8516C52.148 24.8452 50.7116 24.1726 50.9135 23.0498C51.765 22.5323 52.8701 23.3628 53.1859 24.3097C53.5017 25.2566 53.3671 26.2914 53.6104 27.2512C53.8537 28.211 54.7828 29.176 55.7224 28.8578C55.6059 28.0377 55.4972 27.2279 55.3833 26.413C56.0019 26.0767 56.4652 27.3857 57.1614 27.2797C57.5859 27.2124 57.7205 26.6355 57.5988 26.2164C57.4772 25.7973 57.2157 25.4221 57.2002 24.9875C57.1873 24.1958 58.1501 23.6293 58.911 23.8673C59.672 24.1053 60.1249 24.9306 60.1585 25.7196C60.1422 26.0336 60.1666 26.3484 60.231 26.6562C60.4355 27.3055 61.1628 27.5979 61.7477 27.9497C62.3326 28.3016 62.8943 29.0156 62.5449 29.6003C62.3844 29.859 62.0635 30.0738 62.123 30.3764C62.1825 30.6791 62.5345 30.7981 62.4957 31.0646C62.4646 31.2405 62.2628 31.3233 62.0894 31.3802C61.6442 31.4915 61.1809 31.4811 60.7461 31.6208C60.3113 31.7605 59.8868 32.0917 59.8531 32.5393C59.8143 33.1809 60.5235 33.5948 60.803 34.1717C61.0825 34.7487 60.9272 35.3825 61.0618 35.9827C61.1887 36.5389 61.5484 37.0176 61.8202 37.5117C62.6639 39.0976 62.6458 40.9784 62.9124 42.7506C63.0315 43.5526 63.3265 44.4684 64.09 44.7272C64.5191 44.8235 64.9663 44.802 65.3841 44.6651C66.5851 44.3779 67.8352 44.0674 68.7618 43.2628C69.6883 42.4583 70.1801 40.9862 69.4916 39.9617C69.4156 39.8209 69.2903 39.7131 69.1396 39.659C68.9237 39.6419 68.7072 39.684 68.5133 39.7806C67.8973 39.9643 67.2192 39.6409 66.7999 39.1442C66.4151 38.6261 66.1347 38.0383 65.9743 37.4134C65.7543 36.7407 65.5343 36.0629 65.3091 35.3825C65.731 35.1238 66.3081 35.3385 66.6498 35.7059C66.9914 36.0733 67.1545 36.5545 67.4107 36.9813C68.1872 38.2982 69.665 39.051 71.1429 39.4365C71.5259 39.5132 71.8951 39.6475 72.2377 39.8349C73.273 40.5102 73.3688 42.2125 74.505 42.7402C74.8208 42.8877 75.1909 42.9213 75.4808 43.1128C75.9182 43.4025 76.076 43.9691 76.1433 44.4917C76.2676 45.4593 76.2132 46.4553 76.4798 47.4022C76.7464 48.3491 77.4142 49.2649 78.377 49.4176C78.9897 49.4895 79.6059 49.3155 80.0904 48.9338C80.2664 48.0671 80.4268 47.1953 80.5537 46.3079C80.6158 46.0828 80.6365 45.9043 80.6494 45.7128Z" fill="#E0E0E0"/>
<path d="M62.1075 60.03C61.4941 60.061 61.331 60.3947 60.935 60.788C60.4174 61.3054 59.7393 61.7918 59.2734 62.304C58.4814 63.1733 58.8515 64.7618 57.8758 65.4474C57.6622 65.5613 57.4548 65.6865 57.2546 65.8225C57.0674 66.0131 56.9626 66.2695 56.9626 66.5365C56.9626 66.8036 57.0674 67.06 57.2546 67.2506C57.4525 67.4308 57.6984 67.5498 57.9626 67.5929C58.2268 67.6361 58.4978 67.6017 58.7428 67.4938C59.2329 67.2677 59.6232 66.8701 59.8402 66.3761C60.0059 66.0295 60.1301 65.6285 60.451 65.4189C61.0049 65.0593 61.7219 65.4888 62.3819 65.4913C65.1875 65.5043 64.7941 59.8928 62.1075 60.03Z" fill="#E0E0E0"/>
<path d="M63.4832 35.245C63.7522 35.7458 63.9513 36.3225 64.0688 36.9409C64.1863 37.5593 64.2198 38.2068 64.1672 38.845C64.0543 40.1333 63.745 41.3652 63.2632 42.445C62.3832 44.557 60.8153 46.201 59.3353 47.329C58.6073 44.785 59.2353 41.719 59.6193 40.195C60.2233 37.795 62.2952 33.973 63.4832 35.257" fill="#92E3A9"/>
<path d="M59.7526 51.71C59.8708 51.0108 60.1104 50.371 60.447 49.8557C60.7835 49.3403 61.205 48.9678 61.6686 48.776C62.1334 48.5957 62.6176 48.5558 63.0928 48.6589C63.568 48.7619 64.0248 49.0056 64.4366 49.376C64.638 49.515 64.8166 49.7187 64.9597 49.9727C65.1028 50.2268 65.2069 50.5249 65.2646 50.846C65.2867 51.1565 65.2527 51.4702 65.1661 51.7542C65.0795 52.0382 64.9436 52.282 64.7726 52.46C64.4272 52.812 64.0253 53.0191 63.6086 53.06C62.1966 53.3 60.8086 53.144 59.7526 51.71Z" fill="#92E3A9"/>
<path d="M62.2046 38C62.1937 38.0724 62.1776 38.1428 62.1566 38.21C62.1126 38.36 62.0606 38.558 61.9926 38.81C61.8526 39.326 61.6406 40.064 61.3726 40.97C60.8406 42.77 60.0806 45.278 59.2006 48.002C58.3206 50.726 57.4806 53.162 56.8606 54.914C56.5526 55.79 56.2966 56.492 56.1166 56.978L55.9046 57.536C55.8841 57.6035 55.8571 57.6661 55.8246 57.722C55.8394 57.6508 55.8595 57.5824 55.8846 57.518C55.9326 57.368 55.9966 57.182 56.0766 56.918C56.2486 56.402 56.4766 55.718 56.7846 54.824C57.3886 53.06 58.2086 50.624 59.0886 47.894C59.9686 45.164 60.7446 42.686 61.2966 40.886C61.5686 40.004 61.7886 39.278 61.9526 38.756C62.0246 38.516 62.0846 38.324 62.1326 38.156C62.1532 38.1007 62.1773 38.0484 62.2046 38V38Z" fill="#263238"/>
<path d="M57.1486 51.5063C57.4286 50.0457 57.4734 48.5063 57.2794 47.0147C57.0854 45.5231 56.6581 44.1218 56.0326 42.9263C55.7086 42.3263 55.2326 41.7263 54.7326 41.9543C54.2326 42.1823 54.0486 43.0703 54.0086 43.8383C53.9484 45.4448 54.2059 47.0423 54.7489 48.43C55.2919 49.8177 56.0961 50.9338 57.0606 51.6383" fill="#92E3A9"/>
<path d="M55.5566 45.1997C55.6353 45.3107 55.7063 45.4333 55.7686 45.5657C55.8485 45.7117 55.9233 45.8639 55.9926 46.0217C56.0686 46.2077 56.1726 46.4117 56.2606 46.6577C56.363 46.9194 56.4551 47.1899 56.5365 47.4677C56.6376 47.7813 56.7258 48.1039 56.8005 48.4337C56.9714 49.1924 57.0854 49.9772 57.1406 50.7737C57.1846 51.574 57.1672 52.3793 57.0885 53.1737C57.0553 53.518 57.0072 53.8587 56.9446 54.1937C56.8933 54.489 56.8305 54.7795 56.7566 55.0637C56.7006 55.3277 56.6206 55.5497 56.5646 55.7537C56.5127 55.9269 56.4539 56.0952 56.3886 56.2577C56.3391 56.3995 56.283 56.5359 56.2206 56.6657C56.1966 56.6657 56.4366 56.0657 56.6766 55.0217C56.7443 54.7386 56.8017 54.4502 56.8485 54.1577C56.9045 53.8457 56.9406 53.5037 56.9806 53.1497C57.0509 52.3682 57.0643 51.5776 57.0206 50.7917C56.9667 50.0088 56.8581 49.2366 56.6966 48.4877C56.6166 48.1457 56.5405 47.8217 56.4485 47.5277C56.3565 47.2337 56.2686 46.9637 56.1846 46.7177C55.8326 45.7397 55.5366 45.1997 55.5566 45.1997Z" fill="#263238"/>
<path d="M49.8122 40.3373C49.9054 40.5464 50.041 40.7186 50.2043 40.8352C50.3677 40.9518 50.5525 41.0085 50.739 40.999C50.9254 40.9895 51.1062 40.9143 51.262 40.7814C51.4177 40.6485 51.5425 40.4631 51.6226 40.2452L54.1227 33.5191C55.0336 30.8713 54.9998 29.3922 54.9998 29.3922C55.0186 25.3187 51.7388 22.7049 48.3579 24.664C47.6894 25.035 47.118 25.648 46.7124 26.4292C45.5879 28.6745 45.9403 31.3368 46.7649 33.5288L49.8122 40.3373ZM51.8925 32.908C49.4337 34.7314 46.9636 31.3077 48.3204 27.9568C48.4986 27.5127 48.7701 27.1429 49.1038 26.8899C51.5627 25.0666 54.0328 28.4902 52.6722 31.846C52.4947 32.2867 52.2244 32.6532 51.8925 32.9032V32.908Z" fill="#92E3A9"/>
<path d="M55.9565 57.3921C56.0128 57.2426 56.077 57.1001 56.1485 56.9661L56.6965 55.8381C57.2766 54.5576 57.9927 53.4286 58.8165 52.4961C59.6538 51.5739 60.6395 51.0024 61.6726 50.8401C61.9846 50.798 62.2988 50.8121 62.6086 50.8821C62.7206 50.8821 62.8006 50.9421 62.8606 50.9601C62.8903 50.9647 62.919 50.9791 62.9446 51.0021C62.5253 50.9229 62.1016 50.9109 61.6806 50.9661C60.668 51.161 59.7048 51.7368 58.8806 52.6401C58.0691 53.5677 57.3546 54.6719 56.7605 55.9161C56.5165 56.3781 56.3205 56.7561 56.1805 57.0081C56.115 57.1474 56.0399 57.2761 55.9565 57.3921V57.3921Z" fill="#263238"/>
<path d="M43.0951 34.2601L39.1234 36.5654C34.0139 34.0825 28.0688 33.5203 22.5237 34.9955C16.9786 36.4706 12.26 39.8698 9.34853 44.4864C6.4371 49.103 5.55679 54.5821 6.89057 59.7848C8.22434 64.9875 11.6696 69.5137 16.5103 72.4227C21.351 75.3317 27.2149 76.3997 32.8831 75.4048C38.5513 74.4099 43.588 71.4286 46.9463 67.0805C50.3046 62.7324 51.7262 57.3519 50.9157 52.0574C50.1051 46.7628 47.1248 41.9614 42.5941 38.6511L43.0951 34.2601Z" fill="#FAFAFA"/>
<path d="M43.0951 34.2603C43.0633 34.5221 42.9266 35.8014 42.6397 38.6513V38.6175C43.8379 39.4879 44.9367 40.4697 45.9191 41.5476C46.5311 42.2166 47.0956 42.9218 47.6089 43.6587C47.8913 44.0429 48.119 44.4735 48.3832 44.9C48.6653 45.3302 48.9164 45.7773 49.1347 46.2383C49.3579 46.7112 49.5902 47.1968 49.8179 47.6907L50.3645 49.2698L50.5057 49.692C50.5376 49.8313 50.5695 49.9707 50.6059 50.1142C50.6697 50.3971 50.7335 50.68 50.8018 50.9586C50.8701 51.2373 50.9475 51.5328 50.9885 51.8326L51.0978 52.7319C51.4297 55.4963 51.1661 58.2943 50.3225 60.9636C49.4789 63.6329 48.0719 66.1204 46.1833 68.2818L45.8007 68.7378L45.3452 69.16L44.4752 70.0044L44.2566 70.2155L44.0152 70.4097L43.5324 70.7981L42.5531 71.5792L41.4828 72.259C41.1312 72.5015 40.7664 72.727 40.3896 72.9345L39.2327 73.534L38.6497 73.838C38.4493 73.9267 38.2443 74.0027 38.0394 74.0871L36.8005 74.5853C36.5943 74.6735 36.3811 74.7469 36.1628 74.8049L35.516 74.9949C35.0606 75.1173 34.6506 75.2651 34.2043 75.3622L32.8378 75.6282C32.6146 75.6746 32.3824 75.7211 32.1592 75.7591L31.4669 75.8308L30.0731 75.9744C29.6176 75.9744 29.1348 75.9744 28.6611 75.9997H27.9506C27.7137 75.9997 27.4951 75.9702 27.2446 75.9575L25.819 75.8477C25.3635 75.7971 24.8761 75.6957 24.3979 75.624C23.4477 75.4606 22.5092 75.2434 21.5876 74.9738C21.1321 74.8387 20.6767 74.6571 20.2212 74.4967L19.5334 74.2518C19.3057 74.1716 19.0779 74.0533 18.873 73.9562L17.5521 73.344C17.0966 73.1161 16.7095 72.8585 16.2859 72.6179L15.6573 72.2463C15.4523 72.1196 15.261 71.9677 15.0652 71.8241L13.8992 70.9924C13.5302 70.6841 13.1795 70.3633 12.8243 70.0508L12.2913 69.5822C12.1183 69.426 11.968 69.2444 11.804 69.0755L10.852 68.0496C10.5469 67.6991 10.2918 67.3191 10.0094 66.9561C9.45566 66.2302 8.95649 65.4698 8.51546 64.6803C8.28512 64.295 8.08275 63.8958 7.90968 63.4855C7.72293 63.0844 7.52708 62.6833 7.354 62.278L6.93041 61.0367L6.71634 60.4203C6.65712 60.2134 6.62068 59.9981 6.57058 59.7912L6.28363 58.5246C6.19709 58.1024 6.16976 57.6802 6.11511 57.258L6.03767 56.6289L6.00124 56.3122V55.9998C6.00124 55.5776 6.00124 55.1554 6.00124 54.7331C5.99422 54.3184 6.01704 53.9038 6.06956 53.4919L6.17886 52.2632C6.2563 51.8621 6.33374 51.461 6.41572 51.0642C6.47653 50.6646 6.56786 50.2696 6.68901 49.882C6.89409 49.1102 7.15273 48.3514 7.46331 47.6105L7.91878 46.517C8.09642 46.1666 8.29227 45.8246 8.47446 45.4784C9.90861 42.853 11.9267 40.5391 14.3956 38.6893C15.5397 37.8503 16.7587 37.1031 18.0394 36.4558C18.6771 36.1729 19.292 35.8647 19.9297 35.6409C20.2485 35.5269 20.5582 35.3918 20.8771 35.2947L21.8244 34.9992C26.0899 33.7699 30.6523 33.7376 34.9376 34.9063C36.3872 35.3145 37.793 35.8459 39.1371 36.4938H39.0961L43.0951 34.2603L39.1462 36.5994H39.1234C37.7797 35.964 36.3754 35.4453 34.9285 35.0499C30.6644 33.908 26.1318 33.9565 21.8973 35.1892L20.959 35.4847C20.6448 35.5818 20.335 35.7169 20.0208 35.8309C19.3877 36.0547 18.7819 36.3629 18.1488 36.6458C16.8809 37.2905 15.6742 38.0334 14.5414 38.8666C12.089 40.7063 10.0875 43.0092 8.67032 45.6219C8.48813 45.9639 8.29683 46.3059 8.11919 46.6521C7.94156 46.9983 7.81858 47.3741 7.66372 47.7372C7.35702 48.471 7.10293 49.2227 6.90308 49.9875C6.77792 50.3681 6.68053 50.756 6.61157 51.1486C6.53414 51.5413 6.46127 51.9381 6.38383 52.3392C6.3064 52.7403 6.31096 53.1457 6.27452 53.5552C6.22138 53.9614 6.20006 54.3706 6.21075 54.7796C6.21075 55.2018 6.21075 55.624 6.21075 56.0209V56.3333L6.2472 56.6457L6.32006 57.2664C6.37927 57.6886 6.40206 58.1108 6.4886 58.533C6.57514 58.9552 6.67989 59.3774 6.77554 59.7743C6.82564 59.9812 6.86663 60.1965 6.92129 60.3992L7.13537 61.0114C7.27201 61.4336 7.41321 61.8262 7.55441 62.24C7.69561 62.6538 7.91879 63.0337 8.10553 63.4306C8.27429 63.8379 8.47525 64.233 8.70676 64.6128C9.14167 65.3952 9.63477 66.1485 10.1825 66.8674C10.4649 67.222 10.7154 67.602 11.0206 67.9482L11.9634 68.9615C12.1228 69.1304 12.2731 69.3077 12.4416 69.464L12.97 69.9284C13.3253 70.2366 13.6714 70.5533 14.0358 70.8572L15.1927 71.7017C15.3886 71.8368 15.5753 71.9845 15.7803 72.1239L16.4043 72.487C16.8233 72.7276 17.2287 72.9809 17.6523 73.2047L18.9595 73.8127C19.1727 73.92 19.3916 74.0172 19.6154 74.104L20.2941 74.3489C20.7495 74.5051 21.205 74.6867 21.6605 74.8218C22.5734 75.0872 23.5027 75.3015 24.4434 75.4635C24.8989 75.5353 25.3772 75.6366 25.8463 75.6831L27.2583 75.7928C27.4906 75.7928 27.7137 75.8393 27.9597 75.8351H28.6611C29.1166 75.8351 29.5949 75.8351 30.0594 75.814L31.4259 75.6746L32.1136 75.6029L32.7877 75.4762L34.1223 75.2144C34.5778 75.1173 34.9922 74.9653 35.4204 74.8471L36.0672 74.6571C36.2834 74.6036 36.4939 74.5315 36.6957 74.4418L37.9209 73.952C38.1213 73.8718 38.3309 73.7958 38.5267 73.7029L39.1052 73.4074L40.253 72.8163C40.6356 72.6263 40.9726 72.3645 41.3325 72.145L42.4119 71.4146L43.3775 70.6419L43.8603 70.2577L44.0972 70.0677L44.3158 69.8566L45.1767 69.0122L45.6048 68.59L45.9874 68.1382C47.8626 65.9988 49.262 63.5361 50.1048 60.8925C50.9475 58.2489 51.2169 55.4768 50.8974 52.7361C50.861 52.4321 50.8246 52.1324 50.7927 51.8368C50.7608 51.5413 50.6651 51.2584 50.6059 50.9713L50.4146 50.1269L50.319 49.7047L50.1823 49.2825C49.9956 48.7462 49.818 48.2227 49.6403 47.7118L48.9708 46.2932C48.756 45.8343 48.5095 45.3886 48.2329 44.9591C47.9687 44.5368 47.7455 44.1146 47.4677 43.722C46.961 42.9862 46.4041 42.2811 45.8007 41.611C44.8281 40.5271 43.7401 39.5369 42.5531 38.6555V38.6555V38.6344C42.8993 35.8056 43.0496 34.5263 43.0951 34.2603Z" fill="#263238"/>
<path d="M41.2869 59.3815L41.838 63.4009L48.447 58.174L52.068 58.9846C52.068 58.9846 48.3377 66.2424 45.3907 69.1176C42.4438 71.9928 40.836 72.4024 39.7428 72.4488C38.217 72.5121 37.5156 70.7853 37.5156 70.7853L36.8506 60.7917L41.2869 59.3815Z" fill="#B78876"/>
<path d="M41.8107 63.2908C41.5892 63.5948 41.4345 63.9362 41.3552 64.2957C41.2239 64.6422 41.1712 65.0102 41.2004 65.3765C41.3246 65.0349 41.4265 64.6866 41.5056 64.3336C41.6309 63.9923 41.7328 63.644 41.8107 63.2908V63.2908Z" fill="#995037"/>
<path d="M49.0892 47.986H54.0676C54.2551 47.9952 54.438 48.043 54.603 48.1261C54.768 48.2092 54.9109 48.3253 55.0214 48.4661C55.1318 48.6069 55.2069 48.7687 55.2412 48.9399C55.2756 49.111 55.2683 49.287 55.2199 49.4552L50.2097 58.4947C50.1148 58.6664 49.9706 58.8106 49.793 58.9111C49.6154 59.0117 49.4112 59.0648 49.2031 59.0647H43.1316C42.9898 59.0493 42.8544 59.0018 42.7371 58.9264C42.6198 58.8511 42.5244 58.7501 42.4591 58.6325C42.3939 58.5148 42.3608 58.3841 42.3629 58.2519C42.365 58.1196 42.4022 57.9898 42.4711 57.874L47.3037 49.0077C47.4679 48.6992 47.7224 48.4398 48.0381 48.2591C48.3539 48.0784 48.7181 47.9838 49.0892 47.986V47.986Z" fill="#455A64"/>
<path d="M49.4263 48.5309H54.4046C54.5472 48.531 54.6873 48.5649 54.8116 48.6295C54.936 48.6941 55.0404 48.7872 55.1149 48.8999C55.1893 49.0125 55.2314 49.141 55.2371 49.273C55.2427 49.405 55.2117 49.5362 55.147 49.654L50.2598 58.495C50.1642 58.6671 50.0192 58.8114 49.8408 58.9119C49.6623 59.0125 49.4574 59.0655 49.2486 59.065H43.25C43.165 59.0674 43.0809 59.0493 43.0057 59.0126C42.9305 58.9758 42.8668 58.9216 42.8209 58.8553C42.7751 58.7889 42.7485 58.7127 42.7439 58.634C42.7393 58.5554 42.7567 58.4769 42.7945 58.4063L47.6226 49.54C47.7913 49.2322 48.0497 48.9745 48.3686 48.7961C48.6874 48.6177 49.0539 48.5258 49.4263 48.5309V48.5309Z" fill="#263238"/>
<path d="M49.8453 52.2335L52.8742 53.3523L53.5255 55.6153L52.068 58.993L46.6934 59.7065L48.2648 58.2203L48.0598 56.9284C48.0598 56.9284 46.5659 56.5062 46.5294 56.2824C46.493 56.0586 46.7162 55.362 46.9439 55.324C47.556 55.4474 48.1561 55.6169 48.7385 55.8307C48.7385 55.8307 46.8847 54.4712 46.9394 54.2516C46.994 54.0321 47.1899 53.4747 47.5588 53.4072C47.9277 53.3396 50.9202 54.6485 50.9202 54.6485L51.4076 55.6787L51.8312 54.0363C51.8312 54.0363 49.1894 53.3523 49.8453 52.2335Z" fill="#B78876"/>
<path d="M49.4672 57.5362C49.4672 57.5362 49.5401 57.4391 49.5674 57.2576C49.6003 57.0178 49.569 56.7742 49.4763 56.5483C49.3891 56.3212 49.2419 56.118 49.0482 55.9572C48.8979 55.8348 48.784 55.7925 48.7749 55.8052C49.0017 56.0427 49.189 56.3102 49.3306 56.5989C49.4275 56.9031 49.4736 57.2192 49.4672 57.5362Z" fill="#995037"/>
<path d="M50.9065 57.0594C50.8498 56.817 50.8087 56.5717 50.7836 56.3247C50.7717 56.0482 50.7212 55.7743 50.6332 55.5099C50.5715 55.3536 50.477 55.2101 50.3554 55.0876C50.2137 54.9594 50.0446 54.8602 49.8589 54.7963C49.1347 54.5557 48.4925 54.3741 48.0052 54.2137C47.7519 54.1232 47.4894 54.0567 47.2217 54.0152C47.4604 54.1348 47.7105 54.2337 47.9687 54.3108C48.4242 54.4797 49.0892 54.695 49.7906 54.9314C49.9597 54.9858 50.1148 55.072 50.2461 55.1848C50.3575 55.2953 50.4428 55.4262 50.4966 55.569C50.5882 55.8221 50.6478 56.0842 50.6742 56.3501C50.6844 56.6011 50.7644 56.8455 50.9065 57.0594Z" fill="#995037"/>
<path d="M51.5988 56.5406C51.6444 56.5406 51.6353 56.2873 51.5988 55.9875C51.5883 55.7999 51.5289 55.6174 51.4258 55.4556C51.3851 55.8266 51.4511 56.201 51.6171 56.5406H51.5988Z" fill="#995037"/>
<path d="M51.0478 50.8236C51.3974 50.8236 51.6809 50.5608 51.6809 50.2367C51.6809 49.9126 51.3974 49.6499 51.0478 49.6499C50.6981 49.6499 50.4147 49.9126 50.4147 50.2367C50.4147 50.5608 50.6981 50.8236 51.0478 50.8236Z" fill="#FAFAFA"/>
<path d="M33.0884 26.4451C34.7645 30.6672 36.6228 35.1468 40.5263 37.8447C40.0163 37.9585 39.4787 37.8875 39.0232 37.6463C39.9394 38.8837 40.6645 40.2338 41.1776 41.6572C41.6331 43.1012 41.5739 44.7351 40.6993 45.9933C40.5946 45.8329 40.4898 45.6724 40.3896 45.512C40.8397 47.0661 40.7417 48.713 40.1099 50.2118C39.478 51.7106 38.3455 52.9827 36.8779 53.8421C35.598 54.5599 33.8854 54.9061 32.6283 54.1503C31.6718 53.5761 31.2209 52.5206 30.8292 51.5327L23.1499 32.28C22.4348 30.4941 21.7106 28.5984 22.0658 26.7196C22.2725 25.6514 22.816 24.6641 23.6279 23.8822C24.4397 23.1004 25.4833 22.5592 26.6268 22.3269C27.7703 22.0947 28.9625 22.1818 30.0526 22.5774C31.1427 22.973 32.0818 23.6592 32.7513 24.5494" fill="#263238"/>
<path d="M37.5566 50.0933C37.5566 50.0933 37.6067 50.0553 37.6841 49.9751C37.8 49.856 37.908 49.7305 38.0075 49.5993C38.3655 49.1104 38.6291 48.5676 38.7864 47.995C39.0122 47.1459 39.0632 46.265 38.9367 45.3984C38.7701 44.3395 38.4435 43.3076 37.9665 42.3332C37.4792 41.2945 36.9326 40.3403 36.4634 39.4664C36.0401 38.6953 35.663 37.9032 35.3339 37.0936C35.1172 36.5436 34.9466 35.979 34.8237 35.4047C34.7417 34.9825 34.7144 34.7672 34.7007 34.7714C34.6957 34.8262 34.6957 34.8813 34.7007 34.9361C34.7007 35.0459 34.7281 35.2063 34.7599 35.4132C34.8602 35.987 35.0126 36.552 35.2154 37.102C35.5327 37.9197 35.9023 38.7191 36.3223 39.4959C36.7777 40.3783 37.3289 41.3283 37.8117 42.3627C38.2815 43.3267 38.6094 44.3449 38.7864 45.3899C38.9139 46.244 38.8722 47.1125 38.6634 47.9527C38.5172 48.5184 38.2709 49.0576 37.9346 49.5487C37.7206 49.916 37.5429 50.0849 37.5566 50.0933Z" fill="#455A64"/>
<path d="M27.9733 24.0597C29.6338 24.1322 31.2009 24.7929 32.351 25.9054C33.5012 27.0179 34.1466 28.4973 34.1541 30.0382C34.1541 32.5207 34.1177 35.2229 33.9446 36.8272C33.5483 40.5553 30.524 41.1929 30.524 41.1929C30.524 41.1929 30.6196 43.5108 30.7563 45.7063C30.8838 47.8173 29.03 49.6412 26.616 49.8228C24.2248 50.0001 22.1751 48.4802 22.0112 46.4113L21.1867 30.3421C21.1439 29.5073 21.2896 28.6734 21.6145 27.8938C21.9394 27.1142 22.4363 26.406 23.0734 25.8146C23.7105 25.2233 24.4738 24.7617 25.3144 24.4595C26.155 24.1573 27.0544 24.0211 27.9551 24.0597H27.9733Z" fill="#B78876"/>
<path d="M32.724 31.5076C32.733 31.6302 32.6907 31.7513 32.6059 31.8456C32.521 31.94 32.4002 32.0004 32.2685 32.0143C32.2035 32.0225 32.1373 32.0187 32.0739 32.0029C32.0106 31.9871 31.9512 31.9597 31.8995 31.9223C31.8477 31.8849 31.8045 31.8383 31.7724 31.7852C31.7404 31.7321 31.7201 31.6736 31.7128 31.6132C31.7038 31.4911 31.7463 31.3705 31.8312 31.2768C31.9162 31.1831 32.037 31.1236 32.1683 31.1107C32.2331 31.1019 32.2991 31.1052 32.3625 31.1205C32.4258 31.1358 32.4852 31.1627 32.5371 31.1998C32.5889 31.2368 32.6322 31.2832 32.6643 31.3361C32.6964 31.389 32.7167 31.4473 32.724 31.5076V31.5076Z" fill="#263238"/>
<path d="M33.225 30.9501C33.1658 31.0135 32.7695 30.7728 32.2093 30.8024C31.649 30.8319 31.2756 31.1106 31.2118 31.0515C31.148 30.9924 31.2391 30.9121 31.4031 30.7813C31.6325 30.6168 31.9105 30.521 32.2002 30.5068C32.4857 30.4913 32.7692 30.5592 33.0109 30.701C33.1885 30.8108 33.2523 30.9206 33.225 30.9501Z" fill="#263238"/>
<path d="M26.9987 31.9634C27.0076 32.0855 26.9652 32.2061 26.8802 32.2998C26.7953 32.3935 26.6745 32.453 26.5432 32.4658C26.4785 32.4741 26.4127 32.4703 26.3496 32.4548C26.2865 32.4393 26.2273 32.4123 26.1756 32.3753C26.1239 32.3384 26.0806 32.2923 26.0483 32.2396C26.016 32.187 25.9954 32.129 25.9875 32.0689C25.9784 31.9464 26.0207 31.8253 26.1056 31.7309C26.1904 31.6365 26.3113 31.5761 26.443 31.5623C26.508 31.554 26.5741 31.5579 26.6375 31.5737C26.7009 31.5895 26.7602 31.6169 26.812 31.6543C26.8638 31.6916 26.907 31.7382 26.939 31.7913C26.9711 31.8444 26.9914 31.9029 26.9987 31.9634V31.9634Z" fill="#263238"/>
<path d="M27.4997 31.4524C27.4405 31.5157 27.0442 31.2709 26.484 31.3046C25.9237 31.3384 25.5502 31.6128 25.4865 31.5537C25.4227 31.4946 25.5092 31.4102 25.6778 31.2835C25.9076 31.1191 26.1851 31.0221 26.4749 31.0049C26.7612 30.9876 27.0458 31.0573 27.2856 31.2033C27.4632 31.3046 27.527 31.4229 27.4997 31.4524Z" fill="#263238"/>
<path d="M29.7361 35.1049C30.0205 35.0048 30.3174 34.9381 30.6197 34.9064C30.7609 34.8853 30.8884 34.8516 30.9066 34.7629C30.9101 34.6267 30.8688 34.4926 30.7882 34.3787L30.2963 33.4161C29.8593 32.5996 29.4922 31.7526 29.1986 30.8828C29.7073 31.6666 30.1475 32.4869 30.5149 33.3358L30.9704 34.3111C31.0703 34.4627 31.109 34.6422 31.0797 34.8178C31.0627 34.865 31.0341 34.9078 30.9961 34.943C30.9582 34.9782 30.912 35.0047 30.8611 35.0204C30.7848 35.0459 30.7051 35.0616 30.6242 35.0669C30.3311 35.1145 30.0327 35.1273 29.7361 35.1049V35.1049Z" fill="#263238"/>
<path d="M30.5422 41.214C28.6473 41.2897 26.7637 40.907 25.0765 40.1036C25.0765 40.1036 26.5614 42.7593 30.5696 42.2779L30.5422 41.214Z" fill="#995037"/>
<path d="M25.6823 30.0381C25.7506 30.1268 26.1378 29.9705 26.6479 29.8734C27.1581 29.7763 27.5816 29.7426 27.5999 29.637C27.6181 29.5314 27.1444 29.3752 26.5568 29.4977C25.9693 29.6201 25.614 29.9537 25.6823 30.0381Z" fill="#263238"/>
<path d="M31.1298 29.1138C31.1571 29.2193 31.6081 29.2066 32.1501 29.2151C32.6921 29.2235 33.1385 29.2446 33.1704 29.1391C33.2022 29.0336 32.7559 28.8351 32.1546 28.8309C31.5534 28.8267 31.1025 29.0167 31.1298 29.1138Z" fill="#263238"/>
<path d="M15.5298 46.7154C15.5298 46.7154 16.9463 44.1104 16.0627 41.7713C15.1791 39.4323 15.5161 37.6759 16.7915 36.7555C17.7024 36.1095 17.7935 35.0456 17.7024 34.2012C17.5421 32.7885 17.5758 31.3628 17.8026 29.958C18.1579 27.9356 18.7956 25.7866 20.1073 24.1991C21.8108 22.1303 24.8944 20.2472 27.4541 21.3027C28.6429 21.7925 29.2487 21.7629 30.4922 22.7974C30.4922 22.7974 31.6354 22.8649 32.2366 22.9536C34.3182 23.2533 35.6664 25.3095 35.9078 26.8168C36.4726 30.3084 34.3956 31.3006 34.1815 33.6734C34.1815 33.6734 33.808 28.7294 33.3389 27.4627C32.9546 26.5363 32.2306 25.7649 31.2938 25.2842C29.7543 25.4193 29.1713 26.2637 28.6748 27.6147C28.1783 28.9658 27.9051 30.0424 26.6844 30.9206C25.532 31.765 24.7031 33.133 22.5851 32.4321C22.1988 33.1607 22.0515 33.9784 22.1615 34.7838C22.3893 35.9871 23.8286 36.3206 23.4642 38.3599C23.0998 40.3992 21.7561 42.0711 21.7926 42.8353" fill="#263238"/>
<path d="M29.0756 36.3379C28.9798 36.2436 28.8599 36.1732 28.7269 36.1333C28.5939 36.0935 28.4522 36.0854 28.315 36.11C28.2152 36.1246 28.1197 36.1581 28.0343 36.2081C27.9489 36.2582 27.8755 36.324 27.8185 36.4013C27.7594 36.4744 27.7274 36.5632 27.7274 36.6546C27.7274 36.746 27.7594 36.8348 27.8185 36.9079C27.8983 36.9784 27.999 37.0253 28.1077 37.0426C28.2164 37.0599 28.3282 37.0468 28.4288 37.005C28.6383 36.9195 28.8272 36.7961 28.9845 36.6419C29.0324 36.6055 29.0725 36.5611 29.1029 36.511C29.1196 36.4871 29.1285 36.4593 29.1285 36.4308C29.1285 36.4024 29.1196 36.3745 29.1029 36.3506" fill="#995037"/>
<path d="M27.8686 35.6916C27.9415 35.6916 27.9779 36.1433 28.4288 36.4389C28.8798 36.7344 29.399 36.6458 29.4081 36.7133C29.4172 36.7809 29.2988 36.8104 29.0756 36.8315C28.7867 36.8545 28.4981 36.7828 28.2603 36.6289C28.0258 36.4823 27.8623 36.2565 27.8048 35.9998C27.7866 35.8098 27.8322 35.6916 27.8686 35.6916Z" fill="#263238"/>
<path d="M19.8203 24.5707C19.0636 25.7132 18.2092 26.7976 17.2651 27.8132C16.254 28.8476 15.2474 30.0298 15.1745 31.4231C15.1244 32.4364 15.5753 33.5004 15.1426 34.4334C14.7691 35.2272 13.8673 35.6663 13.1932 36.2616C12.6037 36.7962 12.1795 37.4674 11.9648 38.2055C11.7502 38.9436 11.7528 39.7215 11.9725 40.4583C12.264 41.3914 12.9108 42.3076 12.683 43.2576C12.4826 44.102 11.6537 44.6804 11.4032 45.4995C11.1527 46.3186 11.4806 47.1039 11.8586 47.8343C12.4325 48.9489 13.2843 50.1015 14.5915 50.3675C15.0382 50.4434 15.4973 50.4299 15.938 50.328C16.3787 50.226 16.7908 50.038 17.1467 49.7764C17.8579 49.2529 18.4389 48.5933 18.8502 47.8427C19.6972 46.4239 20.2211 44.859 20.3897 43.2449C20.5855 41.3154 20.2713 39.3817 20.0663 37.4564C19.6951 33.9267 19.6951 30.3719 20.0663 26.8421C20.1528 25.9977 20.5218 25.1533 19.8294 24.5707" fill="#263238"/>
<path d="M23.4641 32.9937C23.4641 32.7488 22.7627 32.297 22.4985 32.3013C21.8882 32.3013 20.8998 32.5799 20.8862 34.1463C20.8634 36.384 23.1635 35.7296 23.1635 35.662C23.3392 34.7813 23.4397 33.8891 23.4641 32.9937V32.9937Z" fill="#B78876"/>
<path d="M22.5988 34.8049C22.5988 34.8049 22.5578 34.8302 22.4849 34.8598C22.4351 34.8792 22.3817 34.8892 22.3277 34.8892C22.2738 34.8892 22.2204 34.8792 22.1706 34.8598C22.0187 34.7649 21.8965 34.6345 21.8165 34.4818C21.7365 34.329 21.7016 34.1594 21.7151 33.99C21.7117 33.7982 21.7537 33.6079 21.8381 33.4327C21.8626 33.3638 21.9043 33.3012 21.9596 33.2498C22.015 33.1985 22.0826 33.1599 22.1569 33.1372C22.2059 33.1266 22.2573 33.1317 22.3028 33.1517C22.3483 33.1716 22.3851 33.2052 22.4074 33.247C22.4348 33.3103 22.4074 33.3525 22.4348 33.3567C22.4621 33.3609 22.4849 33.3229 22.4667 33.2301C22.4543 33.1742 22.4222 33.1237 22.3756 33.0865C22.3088 33.0406 22.226 33.0195 22.1433 33.0274C22.042 33.0433 21.9469 33.0831 21.8671 33.143C21.7873 33.2029 21.7256 33.2809 21.6878 33.3694C21.5813 33.5626 21.5281 33.7773 21.5329 33.9943C21.5195 34.1934 21.5699 34.3918 21.6776 34.5646C21.7854 34.7373 21.9458 34.8768 22.1387 34.9653C22.2029 34.9828 22.2705 34.9869 22.3366 34.9774C22.4028 34.968 22.4658 34.9451 22.5213 34.9104C22.5942 34.8598 22.6079 34.8091 22.5988 34.8049Z" fill="#995037"/>
<path d="M34.9467 32.1242C34.9163 31.997 34.8736 31.8727 34.8191 31.7527C34.7225 31.4079 34.672 31.0534 34.6688 30.6971C34.6794 30.1678 34.7327 29.64 34.8283 29.1181C34.9488 28.4727 35.0037 27.8182 34.9922 27.1633C34.9715 26.8215 34.9026 26.4836 34.7873 26.1584C34.6723 25.8521 34.5013 25.5665 34.2817 25.314C33.9099 24.8937 33.4287 24.5682 32.8834 24.3683C32.52 24.2328 32.1318 24.164 31.7402 24.1656C31.6342 24.1547 31.5273 24.1547 31.4213 24.1656C31.3838 24.1664 31.3468 24.1736 31.312 24.1867C31.312 24.1867 31.4669 24.1867 31.7356 24.1867C32.2096 24.2109 32.6728 24.328 33.0944 24.5303C33.516 24.7327 33.8865 25.0156 34.1815 25.3604C34.3867 25.6021 34.5482 25.873 34.6597 26.1626C34.7705 26.4783 34.8349 26.8063 34.851 27.1379C34.8634 27.7854 34.8131 28.4325 34.7007 29.0716C34.6113 29.5995 34.5687 30.1333 34.5732 30.6676C34.5819 31.0292 34.6479 31.3877 34.769 31.7316C34.8065 31.8236 34.8491 31.9138 34.8966 32.0018C34.9239 32.0989 34.9421 32.1495 34.9467 32.1242Z" fill="#455A64"/>
<path d="M21.1868 35.5272C21.1868 35.5272 21.1139 35.5864 21.0319 35.7172C20.912 35.9096 20.8506 36.1284 20.8543 36.3505C20.8635 36.5196 20.9157 36.6843 21.0068 36.8311C21.0978 36.9778 21.2251 37.1025 21.3781 37.195C21.5583 37.3139 21.7681 37.3887 21.9879 37.4123C22.2077 37.4359 22.4304 37.4076 22.6352 37.3301C22.8377 37.2451 23.0125 37.1121 23.1421 36.9446C23.2716 36.7771 23.3513 36.581 23.373 36.3759C23.3914 36.1957 23.3552 36.0144 23.2683 35.8523C23.1926 35.7132 23.0854 35.5908 22.954 35.4935C22.7682 35.3524 22.5381 35.2709 22.2981 35.2612C22.2105 35.2521 22.1219 35.2668 22.0431 35.3035C22.0431 35.3035 22.1342 35.3035 22.2936 35.3035C22.5159 35.3305 22.7248 35.4171 22.8948 35.5526C23.0191 35.6498 23.116 35.7737 23.1771 35.9135C23.2382 36.0532 23.2617 36.2047 23.2455 36.3548C23.2208 36.5362 23.1468 36.7088 23.0305 36.8565C22.9142 37.0041 22.7594 37.1221 22.5805 37.1992C22.3956 37.2673 22.1953 37.2922 21.9975 37.2716C21.7997 37.251 21.6104 37.1855 21.4464 37.081C21.3092 37.0002 21.1933 36.8918 21.1074 36.7639C21.0214 36.636 20.9676 36.4919 20.9499 36.3421C20.9397 36.1338 20.9851 35.9264 21.082 35.7383C21.1503 35.5821 21.1868 35.5272 21.1868 35.5272Z" fill="#92E3A9"/>
<path d="M15.2246 34.26C15.2252 34.1938 15.2375 34.1282 15.261 34.0658C15.3239 33.8875 15.4047 33.715 15.5024 33.5507C15.8822 32.9519 16.4021 32.4397 17.0237 32.0518C17.4552 31.7765 17.9464 31.592 18.463 31.5114C19.046 31.4285 19.6367 31.4016 20.2257 31.4312C20.8646 31.4683 21.5055 31.4613 22.1433 31.4101C22.8138 31.3304 23.4557 31.1094 24.0198 30.7641C24.5769 30.3902 25.1093 29.9856 25.614 29.5524C26.1227 29.1906 26.5816 28.7723 26.9804 28.3069C27.741 27.3991 28.4653 26.618 29.0209 25.9341C29.4722 25.4016 29.8773 24.8369 30.2325 24.2452C30.4784 23.823 30.5695 23.5655 30.5923 23.5739C30.5839 23.6389 30.5671 23.7027 30.5422 23.7639C30.5012 23.8864 30.4238 24.0595 30.319 24.2832C29.9906 24.8977 29.6018 25.4829 29.1576 26.0312C28.611 26.7405 27.8959 27.53 27.1535 28.4378C26.7571 28.9176 26.2981 29.3502 25.7871 29.7255C25.2781 30.1674 24.7395 30.5792 24.1747 30.9583C23.5787 31.3204 22.9007 31.5501 22.1933 31.6296C21.5446 31.678 20.8927 31.678 20.2439 31.6296C19.6679 31.5929 19.0892 31.6128 18.5177 31.6887C18.029 31.7572 17.5625 31.9244 17.1512 32.1785C16.5384 32.5434 16.0154 33.0239 15.6163 33.5887C15.4688 33.8036 15.338 34.028 15.2246 34.26V34.26Z" fill="#455A64"/>
<path d="M28.2056 49.6501C29.071 47.1802 31.1981 44.6638 33.5347 45.5715C36.1309 46.5806 36.8551 47.8599 38.2807 49.8443C39.7064 51.8286 40.5581 54.0959 41.4372 56.3378C41.7742 57.216 43.5324 61.2396 43.0131 62.0418C42.5577 62.73 38.1532 67.8894 37.3151 68.0963C35.1516 68.6283 35.0378 61.1932 32.8287 61.5732C31.9451 61.7252 30.9749 61.8518 30.1961 61.4423C29.2031 60.923 28.9025 59.7535 28.693 58.7149C27.9703 55.0782 27.2446 51.4304 26.5158 47.7712" fill="#92E3A9"/>
<path d="M30.5923 44.583L34.0084 45.9509C35.7392 47.2176 36.2266 49.3708 36.1674 51.4058L37.4746 68.2941L37.5884 74.1333C37.5884 74.1333 27.5224 79.1997 16.2768 72.6386L18.1488 68.0366L14.7418 57.0592C14.4958 55.459 14.3455 52.1363 14.7965 50.5614C15.9534 46.5167 19.0506 45.3092 22.2253 44.4985C22.2253 44.4985 25.4136 46.9684 28.5063 46.4491C28.5063 46.4449 30.3965 46.2803 30.5923 44.583Z" fill="#92E3A9"/>
<g opacity="0.2">
<path opacity="0.2" d="M35.3065 62.9706L29.3854 70.9208C28.6156 71.9552 27.814 73.0318 26.6525 73.6947C25.81 74.1784 24.8367 74.4304 23.8457 74.4215C22.8547 74.4125 21.8869 74.1429 21.0547 73.644C19.415 72.6265 17.9575 69.899 18.3219 68.1004C18.3629 67.8851 19.1417 68.2778 19.1417 68.2778C19.277 68.1658 19.4426 68.0901 19.6207 68.0589C19.7989 68.0276 19.9829 68.042 20.1529 68.1004C20.4914 68.2196 20.8163 68.3696 21.123 68.548C22.9768 69.4599 25.3362 68.9702 27.0807 67.8809C28.8251 66.7916 30.105 65.1872 31.4396 63.6799C31.8846 63.0839 32.4931 62.6088 33.2022 62.3035C33.931 62.0544 34.9012 62.2571 35.2109 62.9199" fill="black"/>
</g>
<path d="M25.0993 61.2818L25.6185 63.1437L35.9988 56.1308L39.1872 51.9425C39.6118 51.3812 40.2554 50.9951 40.9817 50.8659V50.8659C41.3616 50.7941 41.7533 50.7945 42.133 50.867C42.5127 50.9396 42.8726 51.0829 43.1908 51.2881L46.1468 53.2345C46.1468 53.2345 46.0648 54.7122 45.3498 54.4167C44.6347 54.1211 43.1908 53.3823 43.1908 53.3823L42.7945 56.9246L41.0364 58.1068L39.2783 59.3734L27.5634 70.1692C26.9765 70.708 26.2604 71.1105 25.4735 71.3435C24.6867 71.5766 23.8515 71.6337 23.0362 71.5101C22.221 71.3866 21.4489 71.0859 20.7831 70.6327C20.1173 70.1795 19.5767 69.5866 19.2054 68.9026L17.4655 64.3301L25.0993 61.2818Z" fill="#B78876"/>
<path d="M25.8782 62.8863C25.8782 62.8863 25.6778 62.9286 25.4455 63.1354C25.1468 63.4091 24.9356 63.7539 24.8352 64.1318C24.7398 64.5021 24.703 64.8833 24.7258 65.2634C24.7168 65.4216 24.7368 65.58 24.7851 65.732C24.8263 65.5803 24.8432 65.4238 24.8352 65.2676C24.8458 64.8977 24.8977 64.5298 24.99 64.1698C25.0839 63.8147 25.2664 63.485 25.5229 63.2072C25.7415 62.9961 25.8919 62.9074 25.8782 62.8863Z" fill="#995037"/>
<path d="M43.1999 53.5888C43.1999 53.5888 43.168 53.4664 43.0451 53.3017C42.8843 53.0785 42.6539 52.9062 42.3846 52.8077C42.2436 52.7624 42.0922 52.7525 41.9457 52.7792C41.7993 52.8059 41.6631 52.8682 41.5511 52.9597C41.378 53.1117 41.3872 53.2595 41.4008 53.2553C41.4145 53.251 41.46 53.1413 41.6194 53.0357C41.7237 52.9719 41.8422 52.9308 41.966 52.9155C42.0899 52.9001 42.2158 52.9109 42.3345 52.9471C42.577 53.0378 42.7914 53.1828 42.9585 53.3693C43.0997 53.5086 43.1817 53.6015 43.1999 53.5888Z" fill="#995037"/>
<path d="M41.3415 54.5264C41.3415 54.5264 41.4418 54.4757 41.583 54.404C41.764 54.3061 41.97 54.255 42.1796 54.2562C42.3893 54.2585 42.5948 54.3109 42.7763 54.4082C42.9175 54.48 42.9949 54.5475 43.0132 54.5348C43.0314 54.5222 42.9767 54.4293 42.8355 54.3237C42.6496 54.1851 42.4183 54.1092 42.1796 54.1084C41.9403 54.1087 41.7078 54.183 41.5192 54.3195C41.378 54.4293 41.3279 54.5264 41.3415 54.5264Z" fill="#995037"/>
<path d="M21.0593 44.7183C18.7272 45.6218 16.295 46.5887 14.6826 48.3957C13.0702 50.2028 12.469 52.7234 12.5874 55.1004C12.7058 57.4774 12.6922 59.7024 13.4346 61.9824C13.7216 62.8732 14.3456 65.0476 14.8557 66.0313C15.4569 67.146 18.2854 68.3324 19.6427 68.3028C21.8791 68.2521 22.9495 64.3467 24.9672 63.4474C25.778 63.0885 27.0351 61.5137 27.3995 60.7537C27.855 59.7911 26.4885 57.9672 25.9921 57.0172L20.7587 47.0151" fill="#92E3A9"/>
<path d="M25.3817 63.1903C25.392 63.127 25.4136 63.0656 25.4455 63.0088C25.5204 62.8447 25.568 62.671 25.5867 62.4937C25.5923 62.3586 25.5668 62.2239 25.5118 62.0987C25.4569 61.9734 25.3737 61.8605 25.2678 61.7675C25.119 61.6532 24.944 61.5717 24.7562 61.5293C24.5684 61.4869 24.3727 61.4846 24.1838 61.5226H24.0973V61.4381C23.9678 60.6617 23.6836 59.9143 23.2592 59.2342C22.7547 58.4184 22.0551 57.7208 21.2141 57.195C20.2831 56.6431 19.2524 56.2512 18.1715 56.0381C17.2857 55.8519 16.3858 55.7291 15.4797 55.6708C14.7054 55.6201 14.0768 55.6286 13.6578 55.6328C13.4319 55.6502 13.205 55.6502 12.9791 55.6328C13.2001 55.5828 13.4259 55.5531 13.6532 55.5441C14.2683 55.497 14.886 55.4871 15.5024 55.5146C16.4216 55.549 17.3359 55.6564 18.2353 55.8355C19.3481 56.0426 20.4094 56.4407 21.3644 57.0092C22.2342 57.5508 22.9549 58.2738 23.4687 59.1202C23.9019 59.824 24.1806 60.6003 24.2886 61.4044L24.1884 61.3326C24.4026 61.296 24.6231 61.3051 24.833 61.3592C25.043 61.4134 25.2368 61.5111 25.3999 61.645C25.5165 61.7555 25.6055 61.8885 25.6606 62.0344C25.7157 62.1803 25.7356 62.3356 25.7188 62.4894C25.6874 62.6747 25.6211 62.8533 25.5229 63.0172C25.4272 63.1396 25.3908 63.1945 25.3817 63.1903Z" fill="#263238"/>
<path d="M20.3897 64.8705C21.3958 63.4934 22.7258 62.3458 24.2795 61.5139C24.3205 61.5688 23.3685 62.2233 22.2891 63.1479C21.2096 64.0725 20.4444 64.9085 20.3897 64.8705Z" fill="#263238"/>
<g opacity="0.3">
<path opacity="0.3" d="M24.1701 61.3742C23.2302 61.6931 22.3414 62.1292 21.5284 62.6704C20.7085 63.2198 20.145 64.038 19.9525 64.9587L20.8133 64.2241C21.9332 63.2296 23.1314 62.3137 24.3979 61.484" fill="black"/>
</g>
<path d="M36.2175 55.7931C36.217 55.5148 36.271 55.2387 36.3769 54.9782C36.593 54.3421 36.872 53.7259 37.2104 53.1374C37.9847 51.7526 38.8592 50.7646 38.923 50.8153C38.7911 51.0623 38.6389 51.2994 38.4675 51.5246C38.1805 51.9468 37.8025 52.559 37.4154 53.2387C37.0874 53.8208 36.7925 54.4183 36.5317 55.0289C36.4514 55.2917 36.3463 55.5474 36.2175 55.7931Z" fill="#263238"/>
<path d="M37.5839 72.7911C37.5392 72.6441 37.5162 72.4921 37.5156 72.3394C37.4837 72.0438 37.4518 71.6216 37.4245 71.0981C37.3653 70.0468 37.3197 68.5986 37.3106 66.9985C37.3015 65.3983 37.3106 63.9459 37.3653 62.8988C37.3653 62.3711 37.4017 61.9489 37.4245 61.6575C37.4199 61.5039 37.4383 61.3505 37.4791 61.2015C37.5124 61.3515 37.5246 61.5047 37.5156 61.6575C37.5156 61.9995 37.5156 62.4133 37.5156 62.8988C37.5156 64.0008 37.5156 65.4321 37.5156 66.9985C37.5156 68.5648 37.5474 69.9919 37.5566 71.0939C37.5566 71.5794 37.5566 71.9932 37.5566 72.3352C37.5868 72.4854 37.596 72.6387 37.5839 72.7911V72.7911Z" fill="#263238"/>
<path d="M33.4209 54.6362C33.3056 54.275 33.2173 53.9068 33.1567 53.5343C33.0688 53.1654 33.0064 52.7917 32.9699 52.4154C33.0881 52.7762 33.1779 53.1445 33.2387 53.5174C33.3265 53.8861 33.3874 54.2599 33.4209 54.6362Z" fill="#EBEBEB"/>
<path d="M34.1587 53.1411C33.8699 53.2875 33.5644 53.4037 33.2478 53.4873C32.9425 53.5944 32.6268 53.6736 32.3049 53.7237C32.6016 53.6041 32.9058 53.5011 33.2159 53.4155C33.5234 53.3052 33.8384 53.2136 34.1587 53.1411V53.1411Z" fill="#EBEBEB"/>
<path d="M32.7968 54.3702C32.8869 54.0721 33.0027 53.7813 33.143 53.5004C33.2557 53.2081 33.3959 52.9256 33.5621 52.656C33.4749 52.9544 33.3607 53.2453 33.2204 53.5258C33.1052 53.8178 32.9634 54.1003 32.7968 54.3702V54.3702Z" fill="#EBEBEB"/>
<path d="M34.1496 54.1628C33.5414 53.8093 32.9615 53.4156 32.4142 52.9849C32.7333 53.1481 33.0379 53.3344 33.3252 53.5422C33.6177 53.728 33.8934 53.9355 34.1496 54.1628Z" fill="#EBEBEB"/>
<path d="M36.1263 67.6146C36.0107 67.2531 35.921 66.885 35.8576 66.5126C35.7698 66.1439 35.7089 65.7701 35.6754 65.3937C35.7907 65.755 35.879 66.1232 35.9396 66.4957C36.0305 66.8641 36.0929 67.238 36.1263 67.6146V67.6146Z" fill="#EBEBEB"/>
<path d="M36.8597 66.1369C36.2822 66.4025 35.6697 66.5969 35.0378 66.7153C35.3343 66.5965 35.6386 66.495 35.9488 66.4113C36.2457 66.3018 36.55 66.2102 36.8597 66.1369Z" fill="#EBEBEB"/>
<path d="M35.5024 67.3655C35.5895 67.0671 35.7038 66.7762 35.844 66.4958C35.959 66.2043 36.0991 65.9219 36.263 65.6513C36.1759 65.9497 36.0616 66.2406 35.9214 66.5211C35.8064 66.8125 35.6663 67.0949 35.5024 67.3655V67.3655Z" fill="#EBEBEB"/>
<path d="M36.8506 67.1543C36.5397 66.9897 36.2428 66.8034 35.9624 66.597C35.6625 66.4133 35.3806 66.2056 35.1198 65.9763C35.4379 66.1426 35.7423 66.3302 36.0307 66.5379C36.3197 66.7247 36.5937 66.9307 36.8506 67.1543V67.1543Z" fill="#EBEBEB"/>
<path d="M40.0071 62.4976C39.8899 62.1351 39.8001 61.7655 39.7383 61.3914C39.6501 61.0228 39.5892 60.6489 39.5561 60.2726C39.6691 60.6358 39.7573 61.0053 39.8203 61.3788C39.9058 61.7481 39.9682 62.1216 40.0071 62.4976V62.4976Z" fill="#EBEBEB"/>
<path d="M40.7403 61.0026C40.4505 61.147 40.1452 61.263 39.8294 61.3488C39.5255 61.4586 39.2092 61.5365 38.8865 61.581C39.1832 61.4614 39.4874 61.3584 39.7975 61.2728C40.1047 61.1626 40.4197 61.0723 40.7403 61.0026Z" fill="#EBEBEB"/>
<path d="M39.3784 62.2275C39.5841 61.6396 39.84 61.0678 40.1436 60.5176C40.0573 60.8161 39.943 61.1072 39.802 61.3873C39.6865 61.6779 39.5448 61.9589 39.3784 62.2275V62.2275Z" fill="#EBEBEB"/>
<path d="M40.7312 62.0201C40.4122 61.8569 40.1076 61.6705 39.8203 61.4628C39.5296 61.2809 39.254 61.0791 38.9958 60.859C39.3149 61.0222 39.6195 61.2086 39.9068 61.4163C40.1975 61.5982 40.4731 61.8 40.7312 62.0201V62.0201Z" fill="#EBEBEB"/>
<path d="M34.6506 49.7677C34.535 49.4051 34.4468 49.0355 34.3865 48.6615C34.2984 48.2941 34.236 47.9218 34.1997 47.5469C34.3153 47.9084 34.4051 48.2765 34.4684 48.6489C34.5566 49.0175 34.6175 49.3914 34.6506 49.7677Z" fill="#EBEBEB"/>
<path d="M35.3885 48.2731C35.0986 48.4175 34.7933 48.5335 34.4776 48.6193C34.1734 48.7286 33.8573 48.8065 33.5347 48.8515C34.1401 48.6335 34.7556 48.4405 35.3794 48.2731H35.3885Z" fill="#EBEBEB"/>
<path d="M34.0266 49.5021C34.1222 49.1974 34.2456 48.9008 34.3956 48.6155C34.5083 48.3232 34.6485 48.0406 34.8146 47.7711C34.7275 48.0694 34.6132 48.3604 34.473 48.6408C34.3489 48.9384 34.1996 49.2264 34.0266 49.5021V49.5021Z" fill="#EBEBEB"/>
<path d="M35.3794 49.291C35.0604 49.1278 34.7558 48.9415 34.4684 48.7337C34.1708 48.5471 33.8891 48.3396 33.6258 48.1131C33.9448 48.2763 34.2494 48.4626 34.5367 48.6704C34.8343 48.857 35.116 49.0645 35.3794 49.291V49.291Z" fill="#EBEBEB"/>
<path d="M29.4628 58.8794C29.3472 58.5168 29.2589 58.1472 29.1986 57.7732C29.1079 57.4063 29.0455 57.0338 29.0118 56.6586C29.1275 57.02 29.2172 57.3882 29.2806 57.7606C29.3687 58.1292 29.4296 58.503 29.4628 58.8794V58.8794Z" fill="#EBEBEB"/>
<path d="M30.2007 57.3842C29.9103 57.5276 29.6051 57.6436 29.2897 57.7305C28.9856 57.8397 28.6694 57.9176 28.3469 57.9627C28.6432 57.8422 28.9474 57.7392 29.2578 57.6545C29.5656 57.546 29.8805 57.4557 30.2007 57.3842V57.3842Z" fill="#EBEBEB"/>
<path d="M28.8388 58.6089C29.0413 58.0267 29.2973 57.4616 29.604 56.92C29.5139 57.2181 29.3982 57.5089 29.2578 57.7898C29.1434 58.0733 29.0032 58.3473 28.8388 58.6089Z" fill="#EBEBEB"/>
<path d="M30.1915 58.4021C29.8725 58.2389 29.5679 58.0526 29.2806 57.8448C28.983 57.6582 28.7013 57.4508 28.438 57.2242C28.7562 57.3886 29.0607 57.5749 29.3489 57.7815C29.6465 57.9681 29.9282 58.1756 30.1915 58.4021V58.4021Z" fill="#EBEBEB"/>
<path d="M30.2963 70.9123C30.181 70.551 30.0928 70.1828 30.0321 69.8103C29.9413 69.442 29.8789 69.0681 29.8454 68.6915C29.9613 69.0543 30.0511 69.4238 30.1141 69.7977C30.2018 70.165 30.2627 70.5374 30.2963 70.9123Z" fill="#EBEBEB"/>
<path d="M31.0433 69.4177C30.7545 69.5642 30.4489 69.6803 30.1323 69.7639C29.8287 69.8757 29.5124 69.955 29.1895 70.0003C29.4858 69.8798 29.79 69.7769 30.1004 69.6921C30.4089 69.5842 30.7236 69.4926 31.0433 69.4177V69.4177Z" fill="#EBEBEB"/>
<path d="M29.6814 70.6459C29.8871 70.058 30.143 69.4862 30.4466 68.9359C30.3566 69.234 30.2408 69.5248 30.1004 69.8057C29.9875 70.0965 29.8473 70.3777 29.6814 70.6459V70.6459Z" fill="#EBEBEB"/>
<path d="M31.0342 70.4389C30.7152 70.2757 30.4106 70.0893 30.1232 69.8816C29.8256 69.695 29.5439 69.4875 29.2806 69.2609C29.5996 69.4241 29.9042 69.6105 30.1916 69.8183C30.4891 70.0049 30.7708 70.2123 31.0342 70.4389V70.4389Z" fill="#EBEBEB"/>
<path d="M34.7736 73.8845C34.658 73.523 34.5682 73.1549 34.5049 72.7825C34.4167 72.4139 34.3558 72.04 34.3227 71.6637C34.4383 72.0263 34.5266 72.3959 34.5869 72.7699C34.6749 73.1373 34.7373 73.5096 34.7736 73.8845V73.8845Z" fill="#EBEBEB"/>
<path d="M35.507 72.3899C35.2182 72.5363 34.9126 72.6525 34.596 72.7361C34.2909 72.8436 33.9751 72.9228 33.6532 72.9725C33.9498 72.8528 34.254 72.7499 34.5641 72.6643C34.8726 72.5564 35.1873 72.4648 35.507 72.3899V72.3899Z" fill="#EBEBEB"/>
<path d="M34.1451 73.6184C34.2376 73.3211 34.3533 73.0304 34.4912 72.7487C34.6062 72.4572 34.7464 72.1749 34.9103 71.9043C34.8232 72.2026 34.7089 72.4936 34.5687 72.774C34.4534 73.066 34.3117 73.3485 34.1451 73.6184V73.6184Z" fill="#EBEBEB"/>
<path d="M35.4978 73.4116C35.1796 73.2472 34.8751 73.0609 34.5869 72.8543C34.2893 72.6677 34.0076 72.4602 33.7442 72.2337C34.0633 72.3969 34.3679 72.5832 34.6552 72.791C34.9528 72.9776 35.2345 73.1851 35.4978 73.4116V73.4116Z" fill="#EBEBEB"/>
<path d="M26.197 75.4469C26.0785 75.0847 25.9887 74.715 25.9283 74.3407C25.8401 73.972 25.7792 73.5982 25.7461 73.2218C25.8578 73.5854 25.946 73.9548 26.0103 74.328C26.0985 74.6969 26.1609 75.0706 26.197 75.4469V75.4469Z" fill="#EBEBEB"/>
<path d="M26.9485 73.9475C26.6587 74.0918 26.3534 74.2079 26.0376 74.2937C25.7337 74.4035 25.4174 74.4814 25.0948 74.5259C25.6926 74.3085 26.3005 74.1155 26.9167 73.9475H26.9485Z" fill="#EBEBEB"/>
<path d="M25.5867 75.1761C25.6792 74.8788 25.7949 74.5881 25.9328 74.3063C26.0481 74.015 26.1883 73.7326 26.3519 73.4619C26.2651 73.759 26.1508 74.0486 26.0103 74.3274C25.8952 74.6209 25.7535 74.9048 25.5867 75.1761V75.1761Z" fill="#EBEBEB"/>
<path d="M26.9394 74.9698C26.6204 74.8066 26.3158 74.6202 26.0285 74.4125C25.7309 74.2259 25.4492 74.0184 25.1859 73.7918C25.5049 73.955 25.8095 74.1414 26.0968 74.3492C26.3944 74.5358 26.6761 74.7432 26.9394 74.9698V74.9698Z" fill="#EBEBEB"/>
<path d="M18.9094 73.0058C18.7938 72.6431 18.7056 72.2735 18.6452 71.8996C18.5544 71.5312 18.4919 71.1573 18.4585 70.7807C18.5731 71.1438 18.6629 71.5133 18.7272 71.8869C18.8154 72.2556 18.8762 72.6294 18.9094 73.0058V73.0058Z" fill="#EBEBEB"/>
<path d="M19.6336 71.5113C19.3438 71.6557 19.0385 71.7717 18.7227 71.8575C18.4186 71.9668 18.1024 72.0447 17.7798 72.0897C18.0761 71.9692 18.3804 71.8663 18.6908 71.7815C18.9988 71.6737 19.3137 71.5835 19.6336 71.5113V71.5113Z" fill="#EBEBEB"/>
<path d="M18.2718 72.736C18.3593 72.4372 18.4751 72.1462 18.6179 71.8663C18.7309 71.5741 18.8711 71.2916 19.037 71.0219C18.9498 71.3194 18.8339 71.6091 18.6908 71.8874C18.5783 72.1812 18.4381 72.4651 18.2718 72.736V72.736Z" fill="#EBEBEB"/>
<path d="M19.6245 72.5292C19.3055 72.366 19.0009 72.1797 18.7135 71.9719C18.416 71.7853 18.1342 71.5778 17.8709 71.3513C18.1899 71.5145 18.4945 71.7008 18.7819 71.9086C19.0795 72.0952 19.3612 72.3027 19.6245 72.5292V72.5292Z" fill="#EBEBEB"/>
<path d="M28.9526 50.6463C28.8374 50.285 28.7491 49.9168 28.6885 49.5443C28.5976 49.176 28.5352 48.8021 28.5017 48.4255C28.6173 48.7881 28.7056 49.1577 28.7659 49.5317C28.8563 49.8987 28.9187 50.2711 28.9526 50.6463V50.6463Z" fill="#EBEBEB"/>
<path d="M29.686 49.156C29.3957 49.2987 29.0905 49.4132 28.775 49.498C28.4714 49.6098 28.1551 49.6891 27.8322 49.7345C28.1281 49.6131 28.4324 49.5101 28.7431 49.4263C29.0503 49.3163 29.3654 49.226 29.686 49.156V49.156Z" fill="#EBEBEB"/>
<path d="M28.3286 50.3802C28.4157 50.0819 28.53 49.7909 28.6702 49.5105C28.7867 49.2189 28.9283 48.9365 29.0938 48.6661C29.0021 48.9636 28.8864 49.2544 28.7477 49.5358C28.6327 49.8273 28.4925 50.1096 28.3286 50.3802V50.3802Z" fill="#EBEBEB"/>
<path d="M29.6814 50.1734C29.3624 50.0102 29.0578 49.8238 28.7704 49.6161C28.4728 49.4295 28.1911 49.222 27.9278 48.9955C28.246 49.1599 28.5506 49.3462 28.8387 49.5528C29.1363 49.7394 29.418 49.9469 29.6814 50.1734V50.1734Z" fill="#EBEBEB"/>
<path d="M16.0536 54.0657C15.9354 53.7049 15.8456 53.3366 15.7848 52.9637C15.6967 52.5951 15.6358 52.2212 15.6026 51.8449C15.7182 52.2075 15.8065 52.5771 15.8668 52.9511C15.9548 53.3185 16.0172 53.6908 16.0536 54.0657V54.0657Z" fill="#EBEBEB"/>
<path d="M16.7869 52.5711C16.4981 52.7175 16.1925 52.8337 15.8759 52.9173C15.5708 53.0248 15.255 53.104 14.9331 53.1537C15.2297 53.0341 15.534 52.9311 15.844 52.8455C16.1525 52.7376 16.4673 52.646 16.7869 52.5711Z" fill="#EBEBEB"/>
<path d="M15.425 53.8002C15.5176 53.5029 15.6332 53.2122 15.7712 52.9304C15.8862 52.639 16.0263 52.3566 16.1902 52.086C16.1031 52.3844 15.9888 52.6753 15.8486 52.9558C15.7333 53.2478 15.5916 53.5303 15.425 53.8002V53.8002Z" fill="#EBEBEB"/>
<path d="M16.7778 53.5934C16.4587 53.4302 16.1541 53.2438 15.8668 53.0361C15.5692 52.8495 15.2875 52.642 15.0242 52.4154C15.3432 52.5786 15.6478 52.765 15.9351 52.9727C16.2327 53.1593 16.5144 53.3668 16.7778 53.5934V53.5934Z" fill="#EBEBEB"/>
<path d="M23.9834 56.9961C23.8691 56.6332 23.7808 56.2636 23.7192 55.8899C23.6283 55.5215 23.5659 55.1476 23.5324 54.771C23.6484 55.1338 23.7381 55.5034 23.8012 55.8772C23.8894 56.2459 23.9502 56.6197 23.9834 56.9961Z" fill="#EBEBEB"/>
<path d="M24.7213 55.5016C24.4307 55.6434 24.1255 55.758 23.8103 55.8436C23.5068 55.9553 23.1904 56.0347 22.8675 56.08C23.1638 55.9595 23.4681 55.8566 23.7784 55.7718C24.0856 55.6616 24.4006 55.5713 24.7213 55.5016V55.5016Z" fill="#EBEBEB"/>
<path d="M23.3594 56.7258C23.447 56.427 23.5628 56.136 23.7056 55.856C23.8206 55.5646 23.9607 55.2822 24.1246 55.0116C24.0379 55.3107 23.922 55.6018 23.7785 55.8814C23.6657 56.1737 23.5255 56.4562 23.3594 56.7258V56.7258Z" fill="#EBEBEB"/>
<path d="M24.7121 56.519C24.3931 56.3558 24.0885 56.1694 23.8012 55.9617C23.5036 55.7751 23.2219 55.5676 22.9586 55.341C23.2776 55.5042 23.5822 55.6906 23.8695 55.8983C24.1671 56.0849 24.4488 56.2924 24.7121 56.519V56.519Z" fill="#EBEBEB"/>
<path d="M16.3223 60.437C16.2041 60.0762 16.1143 59.7079 16.0536 59.3351C15.9657 58.9663 15.9048 58.5925 15.8714 58.2162C15.9866 58.5775 16.0749 58.9457 16.1356 59.3182C16.2238 59.687 16.2861 60.0607 16.3223 60.437V60.437Z" fill="#EBEBEB"/>
<path d="M17.0556 58.9254C16.7668 59.0719 16.4613 59.188 16.1447 59.2716C15.8408 59.3814 15.5245 59.4593 15.2018 59.5038C15.4991 59.3867 15.8032 59.2852 16.1128 59.1998C16.4203 59.0896 16.7353 58.9979 17.0556 58.9254V58.9254Z" fill="#EBEBEB"/>
<path d="M15.6938 60.154C15.7863 59.8567 15.902 59.566 16.0399 59.2842C16.1549 58.9928 16.295 58.7104 16.459 58.4398C16.3718 58.7382 16.2576 59.0291 16.1173 59.3096C16.002 59.6016 15.8603 59.8841 15.6938 60.154V60.154Z" fill="#EBEBEB"/>
<path d="M17.0465 59.9427C16.7283 59.7783 16.4238 59.592 16.1356 59.3854C15.8423 59.1942 15.5666 58.981 15.3112 58.7478C15.9193 59.1014 16.4993 59.4951 17.0465 59.9258V59.9427Z" fill="#EBEBEB"/>
<path d="M21.1002 61.8772C20.9853 61.5144 20.897 61.1448 20.8361 60.771C20.7452 60.4026 20.6828 60.0287 20.6493 59.6521C20.7636 60.0151 20.8518 60.3846 20.9135 60.7583C21.0044 61.1267 21.0668 61.5006 21.1002 61.8772Z" fill="#EBEBEB"/>
<path d="M21.8381 60.3822C21.5477 60.5256 21.2426 60.6415 20.9272 60.7284C20.6231 60.8377 20.3069 60.9156 19.9843 60.9606C20.2803 60.8392 20.5846 60.7363 20.8953 60.6524C21.2022 60.5415 21.5173 60.4512 21.8381 60.3822Z" fill="#EBEBEB"/>
<path d="M20.4763 61.6064C20.5634 61.308 20.6777 61.0171 20.8179 60.7366C20.9335 60.4447 21.0752 60.1623 21.2414 59.8922C21.1498 60.1816 21.0341 60.4639 20.8953 60.7366C20.7841 61.0376 20.6438 61.3287 20.4763 61.6064V61.6064Z" fill="#EBEBEB"/>
<path d="M21.829 61.4001C21.51 61.2369 21.2054 61.0505 20.9181 60.8428C20.6205 60.6562 20.3388 60.4487 20.0754 60.2221C20.3937 60.3865 20.6982 60.5728 20.9864 60.7795C21.284 60.9661 21.5657 61.1736 21.829 61.4001V61.4001Z" fill="#EBEBEB"/>
<path d="M18.044 66.0525C17.9287 65.6913 17.8405 65.3231 17.7798 64.9506C17.6892 64.5822 17.6268 64.2083 17.5931 63.8317C17.7087 64.1932 17.7985 64.5613 17.8618 64.9337C17.9497 65.3024 18.0105 65.6762 18.044 66.0525Z" fill="#EBEBEB"/>
<path d="M18.7819 64.5579C18.1974 64.8258 17.5771 65.0203 16.9372 65.1364C16.9372 65.1364 17.3472 64.9928 17.8482 64.8324C18.1528 64.7224 18.4646 64.6308 18.7819 64.5579Z" fill="#EBEBEB"/>
<path d="M17.42 65.7867C17.6257 65.1988 17.8816 64.627 18.1852 64.0767C17.9795 64.6646 17.7236 65.2364 17.42 65.7867V65.7867Z" fill="#EBEBEB"/>
<path d="M18.7728 65.5755C18.4538 65.4122 18.1492 65.2259 17.8618 65.0181C17.565 64.8322 17.2833 64.6261 17.0192 64.4017C17.3395 64.563 17.6442 64.7495 17.9301 64.959C18.227 65.145 18.5086 65.3511 18.7728 65.5755Z" fill="#EBEBEB"/>
<path d="M23.4642 38.2544C23.1081 38.8487 22.9274 39.5195 22.9402 40.1993C22.953 40.879 23.1589 41.5435 23.537 42.126C24.0426 42.8818 24.8306 43.4728 25.2177 44.2877C25.6732 45.2841 25.4774 46.4241 25.3362 47.5049C25.195 48.5858 25.1722 49.7848 25.9192 50.625C26.2289 50.9755 26.6479 51.233 26.9668 51.5792C27.1417 51.742 27.2613 51.9487 27.3107 52.1739C27.3601 52.399 27.3371 52.6327 27.2446 52.8458C27.0497 53.11 26.7613 53.3026 26.4293 53.3905C25.2282 53.7865 23.9265 53.8397 22.6924 53.5432C21.4583 53.2466 20.3484 52.614 19.5061 51.727L19.3193 52.8796C17.7474 51.6174 16.6887 49.8946 16.3191 47.9975C15.9496 46.1004 16.2914 44.1432 17.2879 42.4511" fill="#263238"/>
</svg>
