<svg width="19" height="24" viewBox="0 0 19 24" fill="none" xmlns="http://www.w3.org/2000/svg">
<path d="M12.2568 0.604647L12.2859 0.549739C12.3735 0.440113 12.5487 0.412563 12.6657 0.49483L12.7533 0.577097C12.7827 0.604647 12.8118 0.604647 12.8118 0.632005C13.1625 0.412564 13.5714 0.302938 14.0386 0.302938C15.2655 0.302938 16.2294 1.23541 16.2294 2.35998C16.2294 3.29245 15.5868 4.08794 14.6813 4.33473C14.4767 4.38964 14.2723 4.417 14.0386 4.417C13.5421 4.417 13.1038 4.27982 12.7533 4.03303C12.1983 3.64906 11.8478 3.04565 11.8478 2.35997C11.8478 2.0309 11.9355 1.70167 12.0816 1.4275L11.9939 1.37259C11.8772 1.29032 11.8478 1.12579 11.9355 1.01598L11.9939 0.961068C11.2928 0.823893 11.4974 1.39995 11.5265 3.15529C11.5557 4.19757 9.94926 4.82835 8.60547 3.84097C9.04354 3.89588 9.94926 3.97814 9.89079 3.15529C9.86165 2.68905 9.24815 0.988642 10.3582 0.275388C11.3222 -0.437669 11.9939 0.440113 12.2568 0.604647H12.2568Z" fill="#3C3C43" fill-opacity="0.6"/>
<path d="M23.9998 18.7341V19.4472C23.9998 19.5843 23.8831 19.694 23.737 19.694H16.6388C16.4927 19.694 16.376 19.5843 16.376 19.4472V18.7341C16.376 18.5969 16.4927 18.4873 16.6388 18.4873H23.737C23.8833 18.4871 24 18.5969 24 18.7341H23.9998Z" fill="#3C3C43" fill-opacity="0.6"/>
<path d="M21.166 8.77751V9.35357C21.166 9.54566 20.9908 9.71019 20.7862 9.71019L17.3103 9.71C17.1935 9.71 17.0766 9.65509 17.0181 9.57282L15.353 7.84486L13.8925 11.3829L18.3908 12.9463C18.5369 13.0012 18.6536 13.1384 18.6245 13.2754V13.3027L18.4493 17.0328C18.4493 17.2249 18.274 17.3894 18.0695 17.3894H17.2225C17.0179 17.3894 16.8427 17.2249 16.8427 17.0328L16.6381 14.9758L13.6003 13.961L11.9646 13.4125L11.6432 13.3029L9.89071 12.6997C9.83223 12.6724 9.657 12.5901 9.68614 12.3431L10.504 7.24166L8.22561 7.87243H8.19647L7.14489 10.6974C7.08641 10.8895 6.88204 10.9718 6.67747 10.9169L5.80131 10.5603C5.59674 10.5053 5.50912 10.3135 5.5676 10.1214L6.91139 6.72036C6.94053 6.61074 7.02815 6.52828 7.1451 6.50092C7.17424 6.47356 7.20358 6.47356 7.23272 6.44601L11.0593 5.15733C11.6143 4.96525 12.1693 4.85562 12.6074 5.21224C12.7535 5.34941 13.2792 5.87054 13.7466 6.30923C13.8634 6.41885 14.068 6.36413 14.0971 6.22696C14.2138 6.00752 14.3308 5.37677 14.4476 5.26691C14.6228 5.10238 15.0902 5.07483 15.6159 5.48635L17.8358 8.20169C17.865 8.22905 17.8943 8.2566 17.9526 8.28396L20.5814 8.39358C21.0199 8.42094 21.166 8.58566 21.166 8.77755V8.77751Z" fill="#3C3C43" fill-opacity="0.6"/>
<path d="M20.0272 20.8733V21.5863C20.0272 21.7235 19.9104 21.8331 19.7643 21.8331H12.6662C12.5201 21.8331 12.4033 21.7235 12.4033 21.5863V20.8733C12.4033 20.7361 12.5201 20.6265 12.6662 20.6265H19.7643C19.9106 20.6265 20.0274 20.7361 20.0274 20.8733H20.0272Z" fill="#3C3C43" fill-opacity="0.6"/>
<path d="M15.5868 23.0401V23.7531C15.5868 23.8903 15.47 23.9999 15.3239 23.9999L8.22574 24.0001C8.07964 24.0001 7.96289 23.8905 7.96289 23.7533V23.0403C7.96289 22.9031 8.07964 22.7935 8.22574 22.7935H15.3239C15.47 22.7933 15.5868 22.9029 15.5868 23.0401Z" fill="#3C3C43" fill-opacity="0.6"/>
<path d="M13.63 13.934L11.9648 13.3855H11.994L13.63 13.934Z" fill="#3C3C43" fill-opacity="0.6"/>
<path d="M12.5785 17.6641C12.7246 17.7737 12.7537 17.9658 12.6661 18.1029V18.1303L12.637 18.1577L9.94958 20.9827C9.83282 21.1198 9.59911 21.1472 9.42389 21.0376L8.54752 20.4615C8.40143 20.3519 8.37229 20.1324 8.48904 19.9679L10.0957 18.0481L10.1248 17.9931" fill="#3C3C43" fill-opacity="0.6"/>
<path d="M10.1541 17.9932L10.125 18.0481V17.9932L10.8844 13.9614L13.4842 14.8392L12.7539 17.9659C12.7539 17.9932 12.7248 18.0481 12.6954 18.0755" fill="#3C3C43" fill-opacity="0.6"/>
<path d="M9.04408 13.6049C9.24865 13.6598 9.04408 14.4278 8.9856 14.5923L7.87554 17.6641C7.81706 17.8562 7.58335 17.9384 7.40812 17.8835L0.251508 15.4152C0.0469343 15.3603 -0.040682 15.1408 0.0177967 14.9763L1.42007 11.356C1.47854 11.1639 1.71226 11.0817 1.88748 11.1366L9.04408 13.6049Z" fill="#3C3C43" fill-opacity="0.6"/>
<path d="M7.26209 11.6031C7.32057 11.6305 7.37884 11.6854 7.34971 11.7677L7.11599 12.3711C7.08686 12.426 7.02838 12.4807 6.94076 12.4533L4.22427 11.5209C4.16579 11.4935 4.10752 11.4386 4.13666 11.3563L4.37037 10.7529C4.3995 10.698 4.48712 10.6433 4.5456 10.6707L7.26209 11.6031Z" fill="#3C3C43" fill-opacity="0.6"/>
</svg>
