<svg width="24" height="24" viewBox="0 0 24 24" fill="none" xmlns="http://www.w3.org/2000/svg">
<path d="M20.4002 1.20001H3.6002C2.2802 1.20001 1.2002 2.28001 1.2002 3.60001V20.4C1.2002 21.7212 2.2802 22.8 3.6002 22.8H12.0002V14.4H9.6002V11.43H12.0002V8.97001C12.0002 6.37321 13.4546 4.54921 16.5194 4.54921L18.683 4.55161V7.67761H17.2466C16.0538 7.67761 15.6002 8.57281 15.6002 9.40321V11.4312H18.6818L18.0002 14.4H15.6002V22.8H20.4002C21.7202 22.8 22.8002 21.7212 22.8002 20.4V3.60001C22.8002 2.28001 21.7202 1.20001 20.4002 1.20001Z" fill="white"/>
</svg>
