<svg width="92" height="86" viewBox="0 0 92 86" fill="none" xmlns="http://www.w3.org/2000/svg">
<path d="M79.5057 52.3686C79.2469 51.4217 79.2935 50.4256 79.1693 49.4581C79.102 48.9406 78.9441 48.3689 78.5067 48.0791C78.2168 47.8877 77.8467 47.8541 77.5309 47.7066C76.3947 47.1892 76.3119 45.4765 75.2636 44.8013C74.921 44.6139 74.5518 44.4795 74.1688 44.4028C72.691 44.007 71.2105 43.2645 70.4366 41.9477C70.1778 41.5208 70.0096 41.037 69.6757 40.6722C69.3418 40.3074 68.7569 40.085 68.335 40.3488C68.5602 41.0293 68.7802 41.7071 69.0002 42.3797C69.1606 43.0047 69.441 43.5925 69.8258 44.1105C70.2451 44.6072 70.9232 44.9306 71.5392 44.7469C71.7331 44.6503 71.9496 44.6083 72.1655 44.6253C72.3162 44.6794 72.4415 44.7872 72.5175 44.928C73.206 45.9629 72.722 47.4168 71.7877 48.2292C70.8533 49.0415 69.611 49.3442 68.41 49.6314C67.9922 49.7684 67.545 49.7898 67.1159 49.6935C66.3524 49.4348 66.0574 48.5189 65.9383 47.7169C65.6795 45.9448 65.6795 44.0639 64.8461 42.478C64.5743 41.9787 64.2146 41.5053 64.0877 40.9491C63.9557 40.3488 64.1007 39.6891 63.8289 39.1381C63.5571 38.587 62.8402 38.1472 62.879 37.5056C62.9127 37.058 63.3371 36.7295 63.772 36.5872C64.2068 36.4449 64.6701 36.4578 65.1153 36.3466C65.2887 36.3 65.4905 36.2069 65.5216 36.031C65.5604 35.7722 65.2084 35.6041 65.1489 35.3428C65.0894 35.0815 65.4077 34.8254 65.5708 34.5667C65.9202 33.982 65.3663 33.2731 64.7736 32.9161C64.1809 32.5591 63.4614 32.2796 63.2569 31.6225C63.1925 31.3148 63.1681 31 63.1844 30.686C63.1508 29.9099 62.6927 29.0742 61.9369 28.8336C61.1812 28.593 60.2132 29.1622 60.2261 29.9538C60.2417 30.3885 60.5108 30.7662 60.6247 31.1827C60.7386 31.5992 60.6118 32.1787 60.1873 32.246C59.4911 32.3521 59.0278 31.043 58.4092 31.3793C58.5231 32.1943 58.6318 33.004 58.7483 33.8241C57.8087 34.1424 56.877 33.1851 56.6363 32.2176C56.3956 31.25 56.5302 30.2151 56.2118 29.276C55.8935 28.3369 54.7909 27.5038 53.9394 28.0161C53.7375 29.1389 55.1636 29.8115 55.6916 30.8179C56.072 31.5475 55.8469 32.6082 55.0808 32.9264C54.3146 33.2446 53.3182 32.3547 53.6961 31.6329C53.8306 31.3742 54.0843 31.1905 54.1516 30.9085C54.2266 30.5566 53.9704 30.2281 53.7297 29.9616C53.357 29.5373 52.9843 29.1208 52.6116 28.7043C52.3864 28.4174 52.1055 28.179 51.786 28.0032C50.9474 27.6228 49.9742 28.2049 49.3945 28.919C48.8147 29.633 48.4239 30.5204 47.6888 31.0818C46.6302 31.8993 44.878 31.7053 44.1585 30.5825C43.439 29.4597 44.1585 27.6617 45.4759 27.478C45.9754 27.4133 46.5837 27.5142 46.8994 27.1261C47.4533 26.4354 46.3222 25.2893 46.8709 24.5908C47.2902 24.0552 48.1418 24.4511 48.8173 24.3476C49.4928 24.2441 49.9406 23.649 50.4013 23.1471C50.862 22.6452 51.522 22.1873 52.1587 22.446C52.1258 22.0502 52.2075 21.6532 52.3942 21.3025C52.6168 20.9714 53.1318 20.8136 53.4165 21.0878C53.0154 21.5716 53.2949 22.3814 53.8229 22.7177C54.3509 23.054 55.0161 23.098 55.6502 23.1187C56.2843 23.1394 57.0944 23.0178 57.2367 22.4021C57.2833 22.2029 57.2367 21.9752 57.3429 21.7967C57.7233 21.0956 58.945 22.3141 59.5584 21.7967C59.9078 21.538 59.6515 20.93 59.24 20.7618C58.8285 20.5937 58.3781 20.6868 57.9459 20.6376C57.5137 20.5885 57.0193 20.291 57.0633 19.8615C57.1073 19.4321 57.625 19.1992 57.7363 18.7879C57.92 18.0893 56.7424 17.7297 56.2351 18.2472C55.7278 18.7646 55.764 19.5769 55.7873 20.2987C55.8106 21.0205 55.7615 21.851 55.1713 22.2805C54.9125 22.5857 54.3483 22.3244 54.2085 21.9416C54.0688 21.5587 54.1697 21.1344 54.2085 20.7282C54.2474 20.322 54.1231 19.8356 53.7452 19.6727C53.4864 19.5562 53.1732 19.6468 52.8885 19.6442C51.7653 19.6183 51.2036 18.0919 51.7057 17.0778C52.2078 16.0636 53.3001 15.5255 54.3483 15.1374C55.1248 14.8451 56.0513 14.6071 56.6984 15.1064C57.0012 15.3392 57.185 15.6885 57.4749 15.9265C57.9925 16.3353 58.6939 16.3172 59.3332 16.4207C60.3452 16.5958 61.2653 17.116 61.9369 17.8927C62.1957 18.1928 62.3899 18.6689 62.1233 18.9276C61.8567 19.1863 61.132 19.1863 61.1967 19.5976C61.3759 19.676 61.5696 19.7157 61.7652 19.7143C61.9608 19.7128 62.1539 19.6702 62.3319 19.5891C62.5099 19.5081 62.6688 19.3905 62.7983 19.244C62.9278 19.0974 63.025 18.9253 63.0835 18.7387C63.2549 18.8496 63.3942 19.0035 63.4873 19.1852C63.5804 19.3668 63.6242 19.5697 63.6141 19.7736C63.8505 19.6106 64.1183 19.4986 64.4004 19.4447C64.6825 19.3907 64.9728 19.396 65.2527 19.4603C65.5326 19.5245 65.7961 19.6463 66.0264 19.8178C66.2568 19.9893 66.4489 20.2068 66.5905 20.4565C66.6957 20.7462 66.8498 21.0157 67.0461 21.2534C67.2764 21.4552 67.7319 21.4371 67.807 21.1421C67.8289 21.0477 67.8289 20.9494 67.807 20.855C67.7164 20.4022 67.6206 19.9546 67.5301 19.5071C68.1642 19.2768 68.7905 19.8719 69.114 20.4617C70.3098 22.6608 71.5444 21.6233 73.5891 22.2494C74.9738 22.6685 75.4629 23.6646 76.1048 24.8779C78.0641 28.6059 80.9008 31.8398 82.6168 35.6869C82.7893 36.0887 82.9532 36.4941 83.1085 36.9028C83.0852 36.8019 83.0671 36.7036 83.0412 36.6027C82.5038 34.1879 81.7395 31.8292 80.7584 29.558C80.5488 29.0742 80.334 28.5982 80.1114 28.1247C79.9716 27.8324 79.8266 27.5349 79.6791 27.2477C79.4954 26.87 79.2961 26.5052 79.0968 26.1404C78.9363 25.8455 78.7784 25.5557 78.6128 25.2737C78.4989 25.0745 78.3773 24.8779 78.2582 24.6787C78.1391 24.4795 77.9994 24.2337 77.8493 24.0112L77.4067 23.3179C77.3627 23.248 77.3161 23.1756 77.2617 23.1032C77.109 22.8626 76.9434 22.6245 76.7752 22.3865C76.7666 22.3585 76.7505 22.3335 76.7286 22.3141C76.6837 22.2503 76.6371 22.1856 76.5888 22.1201C76.4542 21.9183 76.3093 21.7216 76.1695 21.5276C75.9366 21.2094 75.6985 20.8912 75.45 20.5833C75.2507 20.3246 75.0411 20.0659 74.8262 19.8072C74.6114 19.5485 74.4509 19.3519 74.2568 19.1294C74.0627 18.9069 73.8789 18.6921 73.6822 18.4774C73.4493 18.2187 73.2086 17.9471 72.9627 17.6858C72.2846 16.9588 71.5754 16.2603 70.843 15.598C70.6618 15.4298 70.4832 15.2668 70.2994 15.1064C70.1157 14.946 69.9267 14.7778 69.7404 14.6226C69.554 14.4674 69.3651 14.3044 69.1736 14.1518C68.982 13.9991 68.7931 13.8387 68.6016 13.6887C68.41 13.5386 68.2936 13.43 68.1331 13.3291C68.0574 13.2632 67.9779 13.2019 67.895 13.1454C67.5637 12.8867 67.2247 12.628 66.883 12.4029C66.7122 12.2813 66.5414 12.1597 66.3654 12.0433C66.148 11.888 65.9228 11.7406 65.6976 11.5983C65.666 11.5729 65.6322 11.5504 65.5967 11.531C65.3948 11.3991 65.1955 11.2723 64.9858 11.1378C64.6934 10.9593 64.4035 10.7833 64.111 10.6204C63.7772 10.4237 63.4407 10.2271 63.099 10.0408C62.7574 9.85457 62.3433 9.6269 61.9576 9.43546C61.572 9.24401 61.1812 9.0448 60.7826 8.85853C60.384 8.67226 59.9932 8.49892 59.592 8.323C58.8 7.9815 57.9899 7.66329 57.172 7.37094L57.128 7.35283C56.8149 7.24159 56.4991 7.13293 56.1833 7.03462C56.1639 7.0239 56.1429 7.01606 56.1212 7.01133C55.9866 6.96735 55.8443 6.92079 55.6993 6.87939C55.1118 6.69053 54.5165 6.52237 53.9109 6.36197C53.841 6.33869 53.7659 6.32316 53.6909 6.30505C53.5175 6.25331 53.3415 6.2145 53.1732 6.17052C52.7721 6.07221 52.3709 5.98167 51.962 5.89888C51.553 5.81609 51.113 5.72295 50.6834 5.64017C50.2537 5.55738 49.7879 5.48494 49.3375 5.42026C48.1435 5.24779 46.9555 5.12964 45.7735 5.06583C45.4914 5.04513 45.2145 5.0322 44.9376 5.02443C44.6606 5.01667 44.3578 5.00374 44.0679 5.00115C43.778 4.99856 43.4856 5.00115 43.1983 5.00115C42.911 5.00115 42.6211 5.00115 42.3286 5.01667C42.0828 5.01667 41.8291 5.02961 41.5806 5.04513C40.9664 5.07273 40.3581 5.11412 39.756 5.16931C39.4738 5.1926 39.1891 5.22364 38.907 5.25986C38.6249 5.29608 38.3402 5.32713 38.0633 5.36593C37.5922 5.42802 37.1367 5.50305 36.6786 5.58066L35.5605 5.78763C35.552 5.78555 35.5431 5.78555 35.5346 5.78763C35.1541 5.86266 34.7866 5.94545 34.4087 6.04634H34.3492C34.0075 6.12654 33.6659 6.21192 33.3294 6.30505C32.9049 6.41113 32.4857 6.53272 32.0741 6.65431C31.7221 6.7578 31.3753 6.86387 31.0388 6.9777C30.7024 7.09154 30.3038 7.22089 29.9414 7.35025H29.9C29.5532 7.47443 29.2038 7.60896 28.8647 7.74349C28.5257 7.87802 28.1582 8.02289 27.8036 8.17812C27.4723 8.31783 27.1462 8.45753 26.8227 8.605C26.6984 8.65932 26.5794 8.71883 26.4525 8.77833C26.1057 8.93614 25.7718 9.10172 25.4173 9.27247C24.998 9.47685 24.5916 9.69676 24.1827 9.91666C23.8255 10.1107 23.4735 10.3125 23.1267 10.5143C21.1249 11.683 19.2276 13.0221 17.4559 14.5165C16.8296 15.034 16.2343 15.5721 15.6442 16.1206C15.1498 16.594 14.6658 17.0726 14.1974 17.5745C13.7781 18.0091 13.3691 18.4567 12.9731 18.912C13.3691 18.4567 13.7781 18.0091 14.1974 17.5745C14.3009 17.5745 14.4044 17.5745 14.5054 17.5874C15.0825 17.6263 15.683 17.7323 16.2317 17.559C16.7493 17.3934 17.1401 17.0157 17.6164 16.7829C18.8328 16.1568 20.6627 16.2654 21.1519 14.9952C21.3175 14.5657 21.2658 14.0664 21.4935 13.6654C21.918 12.9177 22.9947 12.9565 23.8436 13.0936C24.2034 13.1454 24.6201 13.2566 24.7417 13.6111C24.7698 13.736 24.7714 13.8655 24.7465 13.9912C24.7215 14.1168 24.6705 14.2358 24.5968 14.3406C23.8506 15.7555 22.6395 16.8701 21.1674 17.4969C19.9665 18.0143 18.4498 18.3222 17.9658 19.533C18.0564 19.9805 18.8328 20.0504 18.8328 20.5135C18.8328 20.8757 18.3437 20.9921 18.1314 21.2896C17.8234 21.7191 18.2945 22.3633 18.8251 22.415C19.3557 22.4667 19.8474 22.1563 20.2848 21.8484C21.5945 20.9429 22.974 19.965 23.6133 18.5033C23.8721 17.9005 24.0507 17.1735 24.6201 16.8294C24.7927 16.7418 24.9833 16.6954 25.1768 16.6938C25.3704 16.6922 25.5617 16.7354 25.7357 16.8202C25.9098 16.9049 26.0618 17.0288 26.1799 17.1821C26.298 17.3354 26.3789 17.514 26.4163 17.7039C26.9572 17.4969 27.7699 17.4012 27.9537 17.9626C27.984 18.1646 27.9909 18.3695 27.9744 18.5731C28.0236 19.4088 29.0796 19.9365 29.077 20.7722C29.077 21.7346 27.7829 22.0476 26.8227 22.0657C25.9478 22.0657 25.073 22.0838 24.1956 22.0994C23.814 22.072 23.4314 22.1368 23.0801 22.2882C22.9064 22.3701 22.766 22.509 22.6822 22.6817C22.5984 22.8544 22.5762 23.0506 22.6194 23.2377C22.7229 23.4255 22.8499 23.5993 22.9973 23.7551C23.6055 24.5675 22.8083 25.9464 21.8015 25.8248C21.4573 25.786 21.1389 25.6127 20.7999 25.548C19.7905 25.3591 18.8561 26.1353 18.2427 26.9605C17.6293 27.7858 17.122 28.7534 16.2213 29.245C14.7745 30.0392 12.5538 29.4856 11.7023 30.9033C11.3607 31.4751 11.3943 32.1787 11.3995 32.8462C11.4047 33.5137 11.3477 34.2381 10.8818 34.7219C10.416 35.2057 9.43763 35.172 9.24351 34.5356C9.18774 34.2505 9.21746 33.9553 9.32892 33.687C9.61708 32.7712 9.90092 31.8545 10.1804 30.9369C10.3875 30.2539 10.5971 29.4882 10.2659 28.8672C9.80516 27.985 8.5007 27.8738 7.65953 28.4067C6.81836 28.9397 6.36542 29.8969 6.0186 30.8231C5.75978 31.5113 5.44143 32.4892 4.93155 33.2421C4.67273 34.0182 4.46049 34.7943 4.2612 35.586C4.06191 36.3776 3.88333 37.2081 3.73062 38.0411C3.85904 37.9636 3.98185 37.8772 4.09815 37.7824C4.55885 37.428 5.61743 35.8007 6.2153 36.7605C6.28879 36.8854 6.31876 37.0311 6.30049 37.1749C6.28222 37.3186 6.21676 37.4522 6.11436 37.5548C5.85554 37.8135 5.39743 37.8135 5.18002 38.0929C4.9212 38.4318 5.14378 38.9285 5.45178 39.2209C5.75978 39.5132 6.15578 39.7383 6.3473 40.1134C6.71224 40.8456 6.12213 41.7899 6.47412 42.535C6.77695 43.174 7.59741 43.3318 8.28587 43.5077L8.5214 43.5827C8.91999 42.2142 9.73786 41.1741 11.7023 41.0189C14.4148 40.8016 17.5517 43.4767 18.7423 45.6757C20.0726 48.1283 20.3987 51.3674 22.7643 52.8472C24.457 53.9027 27.0685 53.9881 27.6949 55.8844C28.2513 57.5842 26.6234 59.1675 26.1601 60.8931C25.8598 62.0366 26.0721 63.2448 25.9918 64.4167C25.9116 65.5887 25.3681 66.903 24.237 67.2393C23.6081 67.4204 22.8705 67.2807 22.3321 67.6558C21.3719 68.3336 21.8145 70.0825 20.8646 70.7603C20.5281 70.9958 20.1011 71.0371 19.7128 71.1691C17.6759 71.8521 17.3239 74.6488 17.9244 76.7107L17.9917 76.928C23.6691 81.5408 30.491 84.5296 37.732 85.5767C44.29 86.5345 50.9832 85.861 57.2186 83.6157V83.6157C60.553 82.4098 63.7164 80.7757 66.6294 78.7545C67.8488 77.9097 69.0189 76.9958 70.1338 76.0173C70.9103 75.3421 71.6686 74.6281 72.3959 73.8933C72.7686 73.513 73.1361 73.1301 73.4829 72.7343C76.0917 69.8876 78.2715 66.676 79.9535 63.2008C80.9798 61.0782 81.8131 58.8677 82.4433 56.5959C82.7022 55.7111 82.9222 54.8134 83.1163 53.9027C82.6318 54.2844 82.0156 54.4584 81.4029 54.3865C80.4401 54.2313 79.7645 53.3103 79.5057 52.3686Z" fill="#EBEBEB"/>
<path d="M67.0901 57.2401C68.8708 56.0991 69.9578 53.1007 68.0943 52.0995C67.3903 51.7218 66.5025 51.8175 65.8037 51.4242C64.8953 50.9068 64.6028 49.7659 64.3957 48.744C63.8522 46.062 63.3078 43.3792 62.7626 40.6955C62.4339 39.0786 61.8567 37.177 60.2727 36.7165C59.3746 36.4578 58.4221 36.7631 57.4904 36.7993C54.2732 36.9157 50.101 28.5749 46.9797 33.33C46.8477 31.8967 44.5157 32.0908 43.615 33.2187C42.7143 34.3467 42.3209 35.9559 41.063 36.6441C40.0976 37.1615 38.8164 37.0244 37.983 37.7462C37.4007 38.2636 37.2066 39.0579 37.0228 39.8159C36.6915 41.256 36.3593 42.6971 36.0263 44.1389C35.7675 45.3006 35.4957 46.545 35.9306 47.6548C36.3654 48.7647 37.8044 49.5564 38.7905 48.8863C39.2435 48.5784 39.4945 48.0507 39.8828 47.6652C40.2035 47.358 40.6064 47.1502 41.0428 47.0671C41.4792 46.984 41.9303 47.0291 42.3416 47.1969C43.0249 47.4867 43.5166 48.0946 43.9411 48.7078C47.3834 53.6854 47.9399 60.148 47.254 66.1604C47.1272 67.2625 46.9667 68.3879 47.2229 69.4668C47.5232 70.7293 48.3799 71.8391 48.4912 73.1327C48.5766 74.1261 48.2116 75.1532 48.4912 76.1079C49.0088 77.8697 51.5375 78.3069 53.0904 77.3238C54.6433 76.3407 55.3965 74.5013 55.9375 72.7446C56.4784 70.988 56.9339 69.1227 58.1581 67.7541C58.9165 66.9055 59.944 66.2872 60.5315 65.3119C61.352 63.9459 61.1475 62.1582 61.9266 60.7689C62.9645 58.9243 65.3094 58.3784 67.0901 57.2401Z" fill="#E0E0E0"/>
<path d="M27.6664 55.8458C27.0401 53.9494 24.4286 53.864 22.7359 52.8085C20.3702 51.3339 20.0441 48.0896 18.7138 45.637C17.5232 43.4458 14.3863 40.7707 11.6738 40.9802C9.70939 41.1355 8.89152 42.1755 8.49294 43.5441L8.25741 43.469C7.56377 43.2931 6.7433 43.1353 6.44566 42.4963C6.09366 41.7512 6.68378 40.8069 6.31884 40.0747C6.12731 39.6919 5.73131 39.4797 5.42332 39.1822C5.11532 38.8847 4.89014 38.3931 5.15155 38.0542C5.36896 37.7696 5.8219 37.7696 6.0859 37.5161C6.18829 37.4135 6.25376 37.2799 6.27202 37.1362C6.29029 36.9925 6.26033 36.8467 6.18684 36.7219C5.58896 35.762 4.53038 37.3893 4.07227 37.7438C3.95467 37.838 3.83104 37.9244 3.70216 38.0025V38.0025C3.68352 38.0749 3.66884 38.1483 3.65816 38.2224C3.61416 38.4578 3.58051 38.701 3.5391 38.9442C3.49769 39.1874 3.45886 39.4228 3.42263 39.6634C3.39416 39.86 3.37345 40.0566 3.34757 40.2533C3.32169 40.4499 3.29322 40.6465 3.27251 40.8405C3.25957 40.9363 3.24663 41.0242 3.23886 41.1199C2.76132 45.4905 3.00086 49.9096 3.94804 54.203C4.3708 56.1112 4.93575 57.9852 5.63814 59.8092C5.92543 60.5854 6.25413 61.3615 6.60095 62.1376C7.03318 63.0871 7.49389 64.021 8.00376 64.9291C8.47482 65.801 8.9847 66.6573 9.5334 67.4878C10.2777 68.6409 11.0811 69.7549 11.9404 70.8251C12.7048 71.7772 13.5115 72.6922 14.3604 73.5701C13.1051 67.7698 11.9767 61.8763 9.35222 56.5986C11.9767 61.8763 13.1051 67.7698 14.3604 73.5701C14.7202 73.953 15.0877 74.3178 15.463 74.6748C15.758 74.9611 16.0574 75.2422 16.3611 75.5182C16.6665 75.795 16.9745 76.0666 17.2903 76.3331C17.5077 76.5194 17.7277 76.7005 17.9554 76.8816L17.8881 76.6643C17.2877 74.5946 17.6293 71.8057 19.6766 71.1227C20.0648 70.9907 20.4919 70.9493 20.8284 70.7139C21.7886 70.0361 21.346 68.2872 22.2959 67.6094C22.8342 67.2342 23.5719 67.3739 24.2008 67.1928C25.3318 66.8565 25.8702 65.55 25.9556 64.3703C26.041 63.1906 25.8236 61.9902 26.1238 60.8467C26.5949 59.1288 28.228 57.5455 27.6664 55.8458ZM7.556 44.954C7.76824 45.0084 7.98306 45.0575 8.19788 45.0989C7.98306 45.0524 7.78118 45.0032 7.556 44.954ZM8.12541 45.7121C8.05812 46.3278 7.996 46.9565 7.90024 47.5567C7.88212 47.6679 7.85882 47.7792 7.83294 47.893C7.85882 47.7792 7.88212 47.6679 7.90024 47.5567C7.996 46.9513 8.05812 46.3226 8.12541 45.7069V45.7121ZM4.77626 41.9426C5.32496 42.4161 5.81155 42.9775 5.84002 43.6708C5.8219 42.9827 5.32496 42.4109 4.77626 41.9375V41.9426ZM5.85555 44.271C5.80453 44.1308 5.79731 43.9783 5.83484 43.8338C5.79731 43.9783 5.80453 44.1308 5.85555 44.271C5.91346 44.3632 5.99975 44.434 6.10143 44.4728C5.99975 44.434 5.91346 44.3632 5.85555 44.271V44.271ZM7.36706 49.585C7.2345 50.0348 7.15375 50.4983 7.12636 50.9665C7.12427 51.7558 7.29106 52.5365 7.61553 53.2561C7.29106 52.5365 7.12427 51.7558 7.12636 50.9665C7.15375 50.4983 7.2345 50.0348 7.36706 49.585V49.585ZM7.69059 53.4268C7.76047 53.5872 7.83553 53.7476 7.91318 53.9054C7.83553 53.7502 7.76047 53.5872 7.69059 53.4268V53.4268Z" fill="#E0E0E0"/>
<path d="M7.62588 28.3731C8.46705 27.8402 9.77151 27.9514 10.2322 28.8336C10.5635 29.4649 10.3539 30.2307 10.1468 30.9033C9.86555 31.8192 9.58171 32.7359 9.29528 33.6534C9.18382 33.9217 9.1541 34.2169 9.20987 34.502C9.40398 35.1384 10.3979 35.1669 10.8482 34.6883C11.2986 34.2096 11.3658 33.4749 11.3658 32.8126C11.3658 32.1503 11.327 31.4414 11.6687 30.8697C12.5202 29.4519 14.7409 30.0056 16.1877 29.2113C17.0884 28.7198 17.5983 27.7522 18.2091 26.9269C18.8199 26.1016 19.762 25.3255 20.7662 25.5144C21.1053 25.579 21.4236 25.7524 21.7679 25.7912C22.7747 25.9024 23.5796 24.5235 22.9636 23.7215C22.8162 23.5657 22.6893 23.3919 22.5857 23.2041C22.5426 23.017 22.5647 22.8208 22.6485 22.6481C22.7323 22.4754 22.8728 22.3365 23.0465 22.2546C23.3978 22.1032 23.7804 22.0384 24.162 22.0657C25.0394 22.0502 25.9142 22.0425 26.789 22.0321C27.757 22.0321 29.0382 21.7087 29.0433 20.7386C29.0433 19.9029 27.9899 19.3752 27.9408 18.5395C27.9573 18.3359 27.9503 18.131 27.92 17.929C27.7363 17.3701 26.9236 17.4659 26.3827 17.6702C26.3452 17.4804 26.2643 17.3018 26.1462 17.1485C26.0281 16.9951 25.8761 16.8713 25.7021 16.7865C25.5281 16.7018 25.3367 16.6586 25.1432 16.6602C24.9496 16.6618 24.759 16.7082 24.5864 16.7958C24.017 17.1399 23.8488 17.8669 23.5796 18.4697C22.9403 19.9314 21.5608 20.9093 20.2512 21.8148C19.8138 22.1149 19.322 22.4305 18.7914 22.3814C18.2608 22.3322 17.7898 21.6854 18.0978 21.256C18.31 20.9636 18.7914 20.8472 18.7992 20.4798C18.7992 20.0271 18.0227 19.9469 17.9321 19.4993C18.4161 18.2886 19.9328 17.9755 21.1338 17.4633C22.6059 16.8365 23.817 15.7219 24.5631 14.307C24.6369 14.2022 24.6878 14.0832 24.7128 13.9575C24.7378 13.8319 24.7362 13.7024 24.7081 13.5774C24.589 13.2359 24.1697 13.1247 23.81 13.06C22.961 12.9229 21.8843 12.8841 21.4599 13.6318C21.2321 14.0328 21.2839 14.5321 21.1182 14.9615C20.6291 16.237 18.7888 16.1232 17.5827 16.7492C17.1065 16.9898 16.7079 17.3676 16.198 17.5254C15.6493 17.6987 15.0489 17.5926 14.4717 17.5538C14.3708 17.5538 14.2672 17.5538 14.1637 17.5409C13.7444 17.9755 13.3355 18.4231 12.9395 18.8784C12.5435 19.3338 12.163 19.7994 11.78 20.2729C9.9916 22.5158 8.44966 24.9444 7.18071 27.5168C6.73208 28.4206 6.31883 29.3442 5.94095 30.2876C5.56308 31.231 5.21798 32.1934 4.90567 33.1748C5.42331 32.422 5.73907 31.444 5.99272 30.7559C6.33436 29.8633 6.78989 28.9138 7.62588 28.3731Z" fill="#E0E0E0"/>
<path d="M83.6494 50.7128C83.7305 50.1351 83.7961 49.5599 83.8461 48.9872C83.8962 48.4146 83.9341 47.842 83.96 47.2694C83.9833 46.8063 83.9962 46.3484 83.9988 45.8879C84.0014 45.4274 83.9988 44.9203 83.9988 44.4391C83.9672 43.0016 83.8557 41.567 83.665 40.1419C83.5925 39.5986 83.5071 39.0553 83.4061 38.5172C83.3052 37.9791 83.2068 37.4435 83.0904 36.908C82.942 36.4993 82.7781 36.0939 82.5986 35.6921C80.8826 31.845 78.0459 28.6112 76.0867 24.8831C75.4448 23.6698 74.9556 22.6737 73.5709 22.2546C71.5262 21.6285 70.2917 22.666 69.0959 20.4669C68.7724 19.8771 68.146 19.282 67.5119 19.5123C67.6025 19.9599 67.6983 20.4074 67.7889 20.8602C67.8107 20.9546 67.8107 21.0529 67.7889 21.1473C67.7138 21.4423 67.2583 21.4604 67.0279 21.2586C66.8316 21.021 66.6776 20.7514 66.5724 20.4618C66.4307 20.212 66.2386 19.9945 66.0083 19.823C65.778 19.6515 65.5145 19.5297 65.2346 19.4655C64.9546 19.4012 64.6644 19.3959 64.3823 19.4499C64.1002 19.5038 63.8324 19.6158 63.596 19.7788C63.606 19.5749 63.5623 19.372 63.4692 19.1904C63.3761 19.0087 63.2368 18.8548 63.0654 18.7439C63.0069 18.9305 62.9097 19.1026 62.7802 19.2492C62.6507 19.3957 62.4918 19.5133 62.3138 19.5943C62.1358 19.6754 61.9427 19.718 61.7471 19.7195C61.5515 19.7209 61.3578 19.6812 61.1786 19.6028C61.1139 19.1992 61.8153 19.2277 62.1051 18.9328C62.395 18.6378 62.1673 18.1851 61.9188 17.8979C61.2471 17.1212 60.3271 16.601 59.315 16.4259C58.6758 16.3224 57.9666 16.3405 57.4567 15.9317C57.1617 15.6937 56.9779 15.3444 56.6803 15.1116C56.0332 14.6123 55.0989 14.8529 54.3302 15.1427C53.2819 15.5411 52.1819 16.074 51.6876 17.083C51.1932 18.092 51.7471 19.6235 52.8704 19.6494C53.1551 19.6494 53.4657 19.5614 53.7271 19.6779C54.105 19.8408 54.2163 20.3246 54.1904 20.7334C54.1645 21.1422 54.0558 21.5639 54.1904 21.9468C54.325 22.3297 54.8814 22.5909 55.1532 22.2857C55.7433 21.8666 55.8003 21.0283 55.7692 20.3039C55.7381 19.5796 55.7123 18.7672 56.217 18.2524C56.7217 17.7375 57.9019 18.0945 57.7181 18.7931C57.6068 19.2044 57.0866 19.4398 57.0452 19.8667C57.0038 20.2936 57.4955 20.604 57.9278 20.6429C58.36 20.6817 58.8233 20.5989 59.2219 20.767C59.6205 20.9352 59.8896 21.5432 59.5402 21.8019C58.9268 22.3193 57.7052 21.1034 57.3247 21.8019C57.2212 21.9804 57.2652 22.2081 57.2186 22.4073C57.0763 23.023 56.2636 23.1368 55.632 23.1239C55.0005 23.111 54.3379 23.0722 53.8047 22.7229C53.2716 22.3736 52.9972 21.5768 53.3984 21.093C53.1137 20.8188 52.5986 20.9766 52.3761 21.3077C52.1894 21.6584 52.1076 22.0554 52.1405 22.4512C51.5012 22.2106 50.8309 22.6815 50.3754 23.1808C49.9198 23.6801 49.4591 24.2777 48.7914 24.3812C48.1236 24.4847 47.2643 24.0889 46.845 24.6244C46.2963 25.3229 47.4274 26.469 46.8735 27.1598C46.5578 27.5479 45.9495 27.447 45.45 27.5116C44.1222 27.6876 43.4079 29.4882 44.1326 30.6162C44.8573 31.7441 46.6043 31.933 47.6629 31.1155C48.398 30.5541 48.7914 29.6719 49.3685 28.9527C49.9457 28.2334 50.9215 27.6591 51.7601 28.0368C52.0796 28.2126 52.3604 28.4511 52.5857 28.7379C52.9584 29.1544 53.3311 29.571 53.7038 29.9953C53.9445 30.254 54.2007 30.5903 54.1257 30.9421C54.0584 31.2241 53.8047 31.413 53.6702 31.6665C53.2923 32.3961 54.2965 33.2835 55.0549 32.9601C55.8132 32.6367 56.0461 31.5812 55.6657 30.8516C55.148 29.8452 53.7116 29.1726 53.9135 28.0498C54.765 27.5323 55.8701 28.3628 56.1859 29.3097C56.5017 30.2566 56.3671 31.2914 56.6104 32.2512C56.8537 33.211 57.7828 34.176 58.7224 33.8578C58.6059 33.0377 58.4972 32.2279 58.3833 31.413C59.0019 31.0767 59.4652 32.3857 60.1614 32.2797C60.5859 32.2124 60.7205 31.6355 60.5988 31.2164C60.4772 30.7973 60.2157 30.4221 60.2002 29.9875C60.1873 29.1958 61.1501 28.6293 61.911 28.8673C62.672 29.1053 63.1249 29.9306 63.1585 30.7196C63.1422 31.0336 63.1666 31.3484 63.231 31.6562C63.4355 32.3055 64.1628 32.5979 64.7477 32.9497C65.3326 33.3016 65.8943 34.0156 65.5449 34.6003C65.3844 34.859 65.0635 35.0738 65.123 35.3764C65.1825 35.6791 65.5345 35.7981 65.4957 36.0646C65.4646 36.2405 65.2628 36.3233 65.0894 36.3802C64.6442 36.4915 64.1809 36.4811 63.7461 36.6208C63.3113 36.7605 62.8868 37.0917 62.8531 37.5393C62.8143 38.1809 63.5235 38.5948 63.803 39.1717C64.0825 39.7487 63.9272 40.3825 64.0618 40.9827C64.1887 41.5389 64.5484 42.0176 64.8202 42.5117C65.6639 44.0976 65.6458 45.9784 65.9124 47.7506C66.0315 48.5526 66.3265 49.4684 67.09 49.7272C67.5191 49.8235 67.9663 49.802 68.3841 49.6651C69.5851 49.3779 70.8352 49.0674 71.7618 48.2628C72.6883 47.4583 73.1801 45.9862 72.4916 44.9617C72.4156 44.8209 72.2903 44.7131 72.1396 44.659C71.9237 44.6419 71.7072 44.684 71.5133 44.7806C70.8973 44.9643 70.2192 44.6409 69.7999 44.1442C69.4151 43.6261 69.1347 43.0383 68.9743 42.4134C68.7543 41.7407 68.5343 41.0629 68.3091 40.3825C68.731 40.1238 69.3081 40.3385 69.6498 40.7059C69.9914 41.0733 70.1545 41.5545 70.4107 41.9813C71.1872 43.2982 72.665 44.051 74.1429 44.4365C74.5259 44.5132 74.8951 44.6475 75.2377 44.8349C76.273 45.5102 76.3688 47.2125 77.505 47.7402C77.8208 47.8877 78.1909 47.9213 78.4808 48.1128C78.9182 48.4025 79.076 48.9691 79.1433 49.4917C79.2676 50.4593 79.2132 51.4553 79.4798 52.4022C79.7464 53.3491 80.4142 54.2649 81.377 54.4176C81.9897 54.4895 82.6059 54.3155 83.0904 53.9338C83.2664 53.0671 83.4268 52.1953 83.5537 51.3079C83.6158 51.0828 83.6365 50.9043 83.6494 50.7128Z" fill="#E0E0E0"/>
<path d="M65.1075 65.03C64.4941 65.061 64.331 65.3947 63.935 65.788C63.4174 66.3054 62.7393 66.7918 62.2734 67.304C61.4814 68.1733 61.8515 69.7618 60.8758 70.4474C60.6622 70.5613 60.4548 70.6865 60.2546 70.8225C60.0674 71.0131 59.9626 71.2695 59.9626 71.5365C59.9626 71.8036 60.0674 72.06 60.2546 72.2506C60.4525 72.4308 60.6984 72.5498 60.9626 72.5929C61.2268 72.6361 61.4978 72.6017 61.7428 72.4938C62.2329 72.2677 62.6232 71.8701 62.8402 71.3761C63.0059 71.0295 63.1301 70.6285 63.451 70.4189C64.0049 70.0593 64.7219 70.4888 65.3819 70.4913C68.1875 70.5043 67.7941 64.8928 65.1075 65.03Z" fill="#E0E0E0"/>
<path d="M35.3381 14.6851L32.4151 16.425C28.6703 14.5815 24.3133 14.1644 20.2496 15.2605C16.1859 16.3565 12.7281 18.8814 10.5948 22.3103C8.46147 25.7393 7.81672 29.8086 8.79453 33.6725C9.77234 37.5365 12.2975 40.8978 15.8453 43.0581C19.393 45.2184 23.6904 46.0114 27.8444 45.2723C31.9985 44.5332 35.6896 42.3189 38.1506 39.0895C40.6117 35.8602 41.6535 31.8642 41.0594 27.9319C40.4654 23.9997 38.2812 20.4337 34.9609 17.9751L35.3381 14.6851Z" fill="#FAFAFA"/>
<path d="M35.3381 14.6849L34.9952 17.9606V17.932C35.8784 18.5824 36.6892 19.3153 37.4151 20.1194C37.8645 20.6178 38.2795 21.1428 38.6575 21.691C38.8671 21.981 39.0386 22.3032 39.2292 22.6182C39.4382 22.9385 39.6229 23.2723 39.7818 23.617L40.2848 24.691C40.4182 25.0741 40.5516 25.4679 40.6926 25.8689L40.7955 26.1732L40.8679 26.4846C40.9136 26.6958 40.9632 26.9106 41.0127 27.1254C41.0623 27.3402 41.1194 27.555 41.1499 27.777C41.1804 27.999 41.2033 28.2245 41.2337 28.45C41.4788 30.514 41.2849 32.6032 40.6634 34.5962C40.0419 36.5893 39.0052 38.4465 37.6133 40.06L37.3313 40.4001L37.0112 40.7152L36.3709 41.3524C36.1503 41.5613 35.9175 41.7585 35.6735 41.9431L34.957 42.5589C34.4311 42.899 33.9205 43.2749 33.3679 43.5827L32.5142 44.0302L32.0836 44.2558C31.9387 44.3238 31.7825 44.3811 31.6339 44.4455L30.7192 44.8035C30.4099 44.9211 30.0945 45.0239 29.7741 45.1114C29.454 45.2009 29.1377 45.3119 28.8061 45.3871L27.8114 45.584C27.6438 45.6162 27.4799 45.652 27.3122 45.6806L26.8015 45.7343L25.7726 45.8417C25.4296 45.8417 25.0828 45.8417 24.7322 45.8596H24.2101C24.0347 45.8596 23.8633 45.8382 23.6879 45.8274L22.6361 45.7451C22.2893 45.7093 21.9425 45.6341 21.5919 45.5804C20.8908 45.4583 20.1985 45.2957 19.5187 45.0935C19.1757 44.9933 18.848 44.8572 18.5088 44.7355C18.1647 44.6278 17.8286 44.4986 17.5027 44.3489L16.5309 43.8906C16.2146 43.7188 15.9097 43.5326 15.601 43.3465L15.1399 43.0565C14.9875 42.9598 14.8464 42.8488 14.7016 42.745L13.8403 42.1149C13.5698 41.8858 13.3106 41.6495 13.0477 41.4168L12.6666 41.0588C12.537 40.9371 12.4265 40.8047 12.3083 40.6794L11.6071 39.9132C11.3823 39.6519 11.1917 39.3655 10.9821 39.097C10.5753 38.5544 10.2086 37.9862 9.88454 37.3965C9.71111 37.1112 9.55709 36.8158 9.42341 36.5122C9.29002 36.2079 9.1452 35.9108 9.01563 35.6101C8.88606 35.3093 8.80603 34.9907 8.70313 34.6828L8.54688 34.221C8.50496 34.0671 8.47447 33.906 8.43636 33.7485C8.36776 33.437 8.29535 33.122 8.22676 32.8105C8.15816 32.499 8.14672 32.1804 8.10099 31.869C8.02447 31.2463 7.99137 30.6197 8.00191 29.993C7.9974 29.6833 8.01395 29.3736 8.05145 29.0658C8.07813 28.7579 8.10861 28.4536 8.13529 28.1493L8.30679 27.2507C8.35466 26.9535 8.42212 26.6594 8.50877 26.3701C8.66071 25.7936 8.85164 25.2268 9.08042 24.6731L9.4196 23.8569C9.55298 23.5956 9.69399 23.3378 9.83118 23.08C10.8898 21.1186 12.3813 19.3917 14.2062 18.0143C15.0433 17.3879 15.9357 16.8298 16.8739 16.346C17.7679 15.9134 18.7 15.5541 19.6597 15.272C21.3762 14.7643 23.1692 14.5225 24.9684 14.556C26.4444 14.5832 27.9096 14.7975 29.3244 15.1933C30.3933 15.4958 31.4295 15.8926 32.4189 16.3783H32.3846C34.2901 15.2864 35.1285 14.7995 35.3229 14.6849L32.4342 16.4248C31.4456 15.9502 30.4122 15.5631 29.3473 15.2685C26.2086 14.4142 22.8711 14.4515 19.755 15.3759C18.8044 15.6595 17.8814 16.0188 16.9958 16.4499C16.0574 16.9305 15.1649 17.4863 14.3282 18.111C12.5265 19.4758 11.0535 21.184 10.0065 23.123C9.8731 23.3808 9.7321 23.6314 9.60252 23.8927L9.27097 24.7018C9.04304 25.2489 8.85461 25.8099 8.70694 26.3808C8.61975 26.6662 8.55353 26.9568 8.50877 27.2507L8.33728 28.1386L8.25724 29.0479C8.22092 29.351 8.20564 29.6559 8.21151 29.9608C8.20088 30.5803 8.23398 31.1998 8.3106 31.8153C8.35252 32.1267 8.37157 32.4418 8.43636 32.7496L8.64596 33.6769C8.68026 33.8308 8.71075 33.9883 8.75267 34.1423L8.90892 34.5969L9.21761 35.5134C9.34338 35.8141 9.48819 36.1077 9.62158 36.4048C9.74926 36.7074 9.89821 37.0016 10.0675 37.2855C10.3878 37.8681 10.7507 38.4291 11.1536 38.9645C11.3594 39.233 11.5347 39.5159 11.7672 39.77L12.4646 40.529C12.5827 40.6543 12.6894 40.7868 12.8152 40.9049L13.1963 41.2629C13.4554 41.4956 13.7108 41.7319 13.9585 41.9574C14.2062 42.183 14.5263 42.3691 14.8121 42.5803C14.957 42.6806 15.0942 42.7916 15.2428 42.8882L15.7039 43.1603C16.0126 43.3357 16.3099 43.5183 16.6224 43.6937L17.5865 44.1484C17.9034 44.3095 18.232 44.4494 18.5698 44.5672C18.9052 44.6818 19.2329 44.8178 19.5683 44.9252C20.2411 45.1209 20.9257 45.2787 21.6186 45.3978C21.9616 45.4515 22.3046 45.5231 22.6514 45.5625L23.6879 45.6448C23.8594 45.6448 24.0309 45.6771 24.2062 45.6771H24.7207C25.0637 45.6771 25.4067 45.6771 25.7497 45.6592L26.7634 45.5553L27.2703 45.5016L27.7657 45.405L28.7489 45.2117C29.0729 45.1401 29.3854 45.0291 29.7055 44.9396C30.022 44.8544 30.3336 44.754 30.6392 44.6389L31.5424 44.2809C31.691 44.22 31.8435 44.1663 31.9883 44.0983L32.4151 43.8763L33.2573 43.4324C33.8061 43.1209 34.313 42.7558 34.8313 42.4228L35.5439 41.8464C35.7853 41.6642 36.0156 41.4694 36.2337 41.2629L36.8664 40.6364L37.1827 40.3249L37.4647 39.9884C38.8461 38.3926 39.8768 36.5552 40.4969 34.5826C41.1171 32.61 41.3144 30.5414 41.0775 28.4966C41.0508 28.2746 41.028 28.0491 41.0013 27.8307C40.9746 27.6123 40.9098 27.3939 40.8641 27.1827C40.8183 26.9715 40.7726 26.7567 40.7231 26.5491L40.6545 26.2376L40.5516 25.9369C40.4182 25.5359 40.2848 25.1457 40.1705 24.7626L39.6789 23.6886C39.5218 23.3455 39.3397 23.013 39.1339 22.6934C38.9395 22.3784 38.7757 22.0562 38.5737 21.7698C37.5926 20.3339 36.3714 19.0561 34.957 17.9857V17.9857C35.1933 15.8448 35.3115 14.9033 35.3381 14.6849Z" fill="#263238"/>
<path d="M34.4235 28.5077L36.5767 32.8037L36.9883 22.7081C36.9817 22.0652 36.788 21.4363 36.4281 20.8894C36.2758 20.645 36.0956 20.417 35.8907 20.2092C35.6285 19.9558 35.3311 19.7366 35.0066 19.5577C34.938 19.5365 34.8782 19.4955 34.8359 19.4405C34.7935 19.3856 34.7707 19.3194 34.7707 19.2516C34.7707 19.1837 34.7935 19.1176 34.8359 19.0627C34.8782 19.0077 34.938 18.9667 35.0066 18.9455C35.3076 18.8882 36.1804 19.2426 36.9121 20.0195C37.6438 20.7964 37.5638 19.1818 37.5485 18.5875C37.5333 17.9932 37.5485 16.1603 37.7581 16.0135C38.0363 15.8023 38.3374 16.0493 38.3412 16.64C38.345 17.2307 38.4822 19.0135 38.8176 18.9992C39.1529 18.9849 39.0119 15.9634 39.0119 15.9634C39.0119 15.9634 38.8709 15.319 39.2558 15.2903C39.9494 15.233 39.8389 18.4479 39.8199 18.7522C39.8199 18.967 40.1705 18.9634 40.1705 18.7343C40.1705 18.5052 39.9647 15.7199 40.6659 15.6591C41.2071 15.6125 40.6011 18.3047 40.986 18.8811C41.3709 19.4574 41.2223 16.7903 41.7482 16.7653C41.9426 16.7653 42.0874 16.7653 41.9388 18.3011C41.8549 19.1245 41.3938 20.3345 41.3633 21.9276V22.3429C41.5119 24.3119 41.9426 31.7548 40.4487 36.4231C40.2382 37.0607 39.8468 37.6324 39.3164 38.0767C38.786 38.521 38.1368 38.8211 37.4385 38.9448C36.7402 39.0684 36.0192 39.011 35.353 38.7787C34.6868 38.5463 34.1007 38.1478 33.6575 37.626C31.954 35.6113 30.4967 33.4234 29.313 31.1032L34.4235 28.5077Z" fill="#B77153"/>
<path d="M40.2619 21.1755C40.2619 21.1755 40.1552 21.197 39.9952 21.265C39.7767 21.3568 39.6008 21.5195 39.4997 21.7232L39.4464 21.8378L39.3968 21.7161C39.3261 21.5478 39.2241 21.3927 39.0958 21.2578C38.8481 20.9941 38.5213 20.8069 38.1583 20.7208C37.8763 20.6528 37.6933 20.6707 37.6895 20.6492C37.8482 20.6103 38.0148 20.6103 38.1735 20.6492C38.5668 20.7187 38.9239 20.9103 39.1872 21.1934C39.3247 21.3394 39.4319 21.5081 39.5035 21.691H39.3968C39.5135 21.4688 39.719 21.2989 39.9685 21.2185C40.1514 21.1504 40.2657 21.1648 40.2619 21.1755Z" fill="#995037"/>
<path d="M18.9287 15.8345L18.6326 15.8584L18.9082 18.8724L19.2044 18.8485L18.9287 15.8345Z" fill="#92E3A9"/>
<path d="M16.1346 43.4395L17.5713 34.5969C17.5713 34.5969 18.9966 37.0564 19.0385 38.2664C19.0805 39.4764 17.7352 44.2414 17.7352 44.2414C22.7123 46.325 28.1582 46.3 32.8915 43.6901L32.1293 36.8881L31.8397 32.1625L32.0759 26.0085C32.1303 25.3338 32.0339 24.6559 31.7927 24.0183C31.5516 23.3808 31.1712 22.7976 30.6759 22.3064C30.1806 21.8152 29.5814 21.4267 28.9168 21.166C28.2522 20.9052 27.5369 20.778 26.8168 20.7924C26.5099 20.7967 26.2049 20.8388 25.9098 20.9177L19.332 21.7447C19.332 21.7447 12.4722 25.1564 10.9859 29.9286C10.4562 31.6541 10.1094 34.3356 9.86548 36.974C11.1879 39.5946 13.2573 41.6996 16.1346 43.4395Z" fill="#92E3A9"/>
<path d="M33.0935 25.8655L36.5805 32.6424L31.9921 36.7416L31.6758 30.0827L32.0683 25.9442L33.0935 25.8655Z" fill="#92E3A9"/>
<path d="M10.7725 31.0315C10.7725 31.0315 16.71 30.4801 18.3106 27.8918C20.0408 25.0958 19.3434 21.7449 19.3434 21.7449C19.3434 21.7449 15.5667 22.912 13.9204 24.6089C12.274 26.3059 10.9287 28.9944 10.7725 31.0529" fill="#B77153"/>
<path d="M26.5004 20.8139C26.348 20.839 27.8762 27.9417 33.566 26.7818C33.566 26.7818 31.1041 20.0048 26.5004 20.8139Z" fill="#B77153"/>
<path d="M34.7093 28.9551L34.454 28.9301C34.2099 28.9031 33.9641 28.8924 33.7184 28.8979C32.818 28.931 31.93 29.1077 31.0927 29.4205C30.0142 29.7785 28.8061 30.4086 27.4303 30.9635C26.6976 31.261 25.9301 31.4761 25.1437 31.6043C24.2981 31.7085 23.4424 31.7193 22.5942 31.6366C20.8602 31.4898 19.2024 31.2105 17.7047 31.4218C16.999 31.5259 16.3076 31.7024 15.6429 31.948C15.0141 32.17 14.4386 32.3991 13.9051 32.5888C13.0801 32.9337 12.2034 33.1571 11.306 33.2512C10.9752 33.2805 10.6417 33.266 10.3152 33.2082L10.5705 33.2297C10.8141 33.2454 11.0586 33.2454 11.3022 33.2297C12.1973 33.1254 13.0707 32.8961 13.8937 32.5495C14.4272 32.3526 15.0027 32.1199 15.6315 31.8979C16.2988 31.646 16.9942 31.4658 17.7047 31.3609C19.2291 31.1425 20.883 31.4218 22.6132 31.5685C23.455 31.6524 24.3043 31.6428 25.1437 31.5399C25.9202 31.4149 26.6777 31.2021 27.3998 30.9062C28.7908 30.3585 29.9875 29.7356 31.0736 29.3776C31.9177 29.0679 32.8126 28.8983 33.7184 28.8764C34.0509 28.8665 34.3834 28.8929 34.7093 28.9551V28.9551Z" fill="#FAFAFA"/>
<path d="M17.0454 37.4681H16.9692L16.7481 37.486C16.5614 37.486 16.2832 37.511 15.944 37.5218C15.0525 37.5664 14.1586 37.5244 13.2763 37.3965C12.7935 37.3219 12.3171 37.2142 11.851 37.0743C11.4678 36.9599 11.1044 36.7934 10.7725 36.5802C10.549 36.4375 10.3455 36.2692 10.1665 36.079C10.0987 36.0118 10.0363 35.9401 9.9798 35.8642C10.229 36.1144 10.5048 36.3399 10.803 36.5373C11.1356 36.7395 11.4958 36.8985 11.8739 37.0098C12.3376 37.1464 12.8114 37.2505 13.2915 37.3213C14.1652 37.4462 15.0492 37.4966 15.9326 37.4716H16.7367H17.0454V37.4681Z" fill="#FAFAFA"/>
<path d="M34.2558 34.447L34.0996 34.4828C33.9503 34.517 33.8038 34.5613 33.6613 34.6152C33.1467 34.8372 32.6522 35.0982 32.1827 35.3957C31.4547 35.8036 30.6521 36.0804 29.816 36.2119C28.7944 36.3652 27.7585 36.4168 26.7253 36.3658C25.6278 36.33 24.5874 36.2656 23.6384 36.2907C22.7983 36.3024 21.9627 36.4094 21.1498 36.6093C20.6041 36.7486 20.08 36.9544 19.5911 37.2215C19.4184 37.3193 19.2913 37.3981 19.21 37.4577L19.0767 37.5401C19.2354 37.4085 19.4049 37.2888 19.5835 37.1821C20.0689 36.9023 20.5935 36.6878 21.1422 36.5448C21.9573 36.3351 22.7972 36.2221 23.6422 36.2083C24.595 36.1797 25.643 36.2405 26.7368 36.2763C27.7633 36.3279 28.7927 36.2787 29.8084 36.1296C30.637 36.0027 31.4339 35.7345 32.1598 35.3384C32.6332 35.0408 33.1346 34.7844 33.6575 34.5723C33.8496 34.504 34.0511 34.4619 34.2558 34.447V34.447Z" fill="#FAFAFA"/>
<path d="M32.438 40.4685H32.2932C32.1553 40.4537 32.0166 40.4465 31.8778 40.447C31.3647 40.4655 30.859 40.5685 30.3839 40.7513C29.7741 40.9661 29.111 41.342 28.3412 41.7108C27.9392 41.9071 27.5181 42.0666 27.0835 42.1869C26.8497 42.2391 26.6131 42.2798 26.3747 42.3086C26.129 42.3308 25.8819 42.3368 25.6354 42.3265C24.7005 42.2608 23.7777 42.0877 22.8876 41.811C22.161 41.5964 21.4217 41.4219 20.6734 41.2883C20.1705 41.2051 19.6585 41.1798 19.1491 41.2132C18.9661 41.2132 18.8289 41.2561 18.7337 41.2633H18.5888C18.5888 41.2633 18.7832 41.2167 19.1452 41.1666C19.6536 41.1238 20.1657 41.1406 20.6696 41.2167C21.4203 41.3461 22.1622 41.5171 22.8914 41.7287C23.7778 41.9984 24.695 42.1691 25.6239 42.237C25.8667 42.2437 26.1097 42.2378 26.3518 42.2191C27.0342 42.1441 27.6944 41.9447 28.2954 41.632C28.9608 41.2811 29.6466 40.9656 30.3496 40.6869C30.8342 40.503 31.3513 40.4058 31.874 40.4005C32.0644 40.3989 32.2542 40.4217 32.438 40.4685V40.4685Z" fill="#FAFAFA"/>
<path d="M27.9829 24.7233C27.8568 24.7028 27.7296 24.6885 27.6018 24.6803C27.2469 24.6758 26.8961 24.7533 26.5805 24.9058C26.1127 25.1338 25.6899 25.4353 25.3305 25.7973C24.8943 26.2535 24.3988 26.6565 23.8556 26.9966C23.2796 27.2981 22.6285 27.4501 21.9692 27.4369C21.435 27.4279 20.9039 27.3582 20.3876 27.2293C19.9494 27.1219 19.6026 27.0145 19.3625 26.9357L19.0881 26.8462C19.0549 26.838 19.0229 26.826 18.9928 26.8104C19.0268 26.8128 19.0602 26.82 19.0919 26.8319L19.3701 26.9106C19.614 26.9787 19.9646 27.0789 20.4029 27.1756C20.9137 27.2975 21.4383 27.3612 21.9654 27.3653C22.6114 27.3769 23.2492 27.2275 23.8137 26.9321C24.3498 26.5944 24.8411 26.1978 25.2771 25.7507C25.6434 25.3837 26.0772 25.0817 26.5576 24.8593C26.8823 24.7071 27.2431 24.6356 27.6056 24.6517C27.7345 24.6575 27.8617 24.6816 27.9829 24.7233V24.7233Z" fill="#FAFAFA"/>
<path d="M30.1781 24.2796C30.2734 24.4303 30.3574 24.587 30.4296 24.7486L30.5592 25.0028C30.5973 25.0994 30.643 25.2032 30.6887 25.3142C30.7802 25.5398 30.8869 25.7939 30.9746 26.0875L31.1194 26.5422C31.1613 26.7033 31.207 26.8715 31.2528 27.0434C31.348 27.4014 31.4128 27.7594 31.4967 28.1568C31.6339 28.9479 31.7406 29.8215 31.813 30.7415C31.9502 32.5852 31.9883 34.2535 32.0721 35.4564C32.1102 36.0578 32.1445 36.5304 32.1788 36.8884C32.2035 37.0616 32.2137 37.2364 32.2093 37.4111C32.1652 37.2416 32.1346 37.0693 32.1179 36.8955C32.0645 36.559 32.0112 36.0721 31.9578 35.4635C31.8473 34.2571 31.7901 32.5995 31.6529 30.7558C31.5767 29.8358 31.4738 28.9658 31.348 28.1818C31.268 27.788 31.2108 27.4157 31.1194 27.072C31.0775 26.9002 31.0394 26.714 31.0012 26.5708C30.9631 26.4276 30.906 26.2629 30.864 26.1197C30.784 25.8262 30.6849 25.572 30.6011 25.3464C30.563 25.2319 30.5211 25.1281 30.4868 25.0278L30.3724 24.7701C30.2925 24.6122 30.2275 24.4481 30.1781 24.2796V24.2796Z" fill="#263238"/>
<g opacity="0.3">
<path opacity="0.3" d="M31.63 29.0337L33.6422 35.2701L32.1521 36.5983L31.63 29.0337Z" fill="black"/>
</g>
<g opacity="0.3">
<path opacity="0.3" d="M24.6941 33.9063C24.2381 34.2205 23.7169 34.4413 23.1643 34.5541C22.6116 34.667 22.0399 34.6695 21.4862 34.5615C20.9325 34.4535 20.4091 34.2374 19.9501 33.9271C19.491 33.6169 19.1064 33.2195 18.8213 32.7607C18.9366 33.3412 19.2249 33.8791 19.6525 34.3119C20.0802 34.7447 20.6298 35.0547 21.2375 35.2058C23.0858 35.6534 24.6941 33.9063 24.6941 33.9063Z" fill="black"/>
</g>
<path d="M18.0477 30.9384C18.0303 31.7783 17.9475 32.6159 17.8 33.4444C17.717 34.2768 17.5692 35.1024 17.3579 35.9146C17.375 35.0747 17.4578 34.2371 17.6056 33.4086C17.6894 32.5763 17.8372 31.7507 18.0477 30.9384V30.9384Z" fill="#263238"/>
<path d="M18.7908 9.62301C17.8038 10.1242 12.457 10.5323 11.8396 9.65523C11.5463 9.20505 11.4347 8.67102 11.5249 8.1501C11.6151 7.62919 11.9012 7.15593 12.3312 6.81628C11.802 6.29116 11.4956 5.60223 11.4699 4.87949C11.4614 4.52054 11.5461 4.16504 11.7168 3.84378C11.8874 3.52252 12.1389 3.24519 12.4493 3.03579C12.7664 2.83533 13.141 2.73065 13.5231 2.73577C13.9052 2.74089 14.2765 2.85556 14.5873 3.06443C14.1529 2.77086 14.3053 2.11931 14.6216 1.71477C14.8849 1.37983 15.2274 1.10684 15.622 0.917255C16.0166 0.727665 16.4527 0.626645 16.8959 0.622134C17.3391 0.617624 17.7774 0.709744 18.1763 0.891258C18.5752 1.07277 18.9238 1.33873 19.1948 1.66822C19.3896 1.12955 19.7772 0.670984 20.2916 0.370644C20.806 0.070305 21.4153 -0.0532337 22.0157 0.0210722C22.6161 0.095378 23.1706 0.362931 23.5846 0.778159C23.9986 1.19339 24.2466 1.7306 24.2863 2.2983C25.1704 1.96178 26.2184 2.57397 26.5729 3.40453C26.9273 4.23509 26.7634 5.19454 26.4662 6.03942" fill="#263238"/>
<path d="M16.0393 12.8198C15.5988 12.3117 15.3796 11.6657 15.4257 11.0119C15.4757 10.3625 15.6718 9.73037 16.0012 9.15744C16.7066 7.87994 17.7688 6.80686 19.0739 6.05321C20.379 5.29957 21.8778 4.89377 23.4097 4.87933C24.6425 4.84415 25.8516 5.20256 26.8396 5.89605C27.3255 6.25056 27.6956 6.7261 27.9078 7.26852C28.12 7.81093 28.1659 8.39844 28.0401 8.96413" fill="#92E3A9"/>
<path d="M26.1194 21.5119C26.066 20.4093 26.0393 19.4105 26.0393 19.4105C26.0393 19.4105 28.6232 18.8878 28.5088 16.3746C28.3945 13.8615 27.598 8.11196 27.598 8.11196L22.5904 6.32196L18.6841 10.2349L20.1856 21.9129C20.4524 23.5633 21.5271 24.8986 23.2878 24.6767C24.0947 24.5756 24.8324 24.195 25.3562 23.6096C25.88 23.0242 26.1521 22.2761 26.1194 21.5119V21.5119Z" fill="#B77153"/>
<path d="M20.7725 7.50683C20.0104 8.68465 20.5477 9.39708 21.5347 10.4138C21.737 10.6497 21.9956 10.8375 22.2896 10.9619C22.5836 11.0863 22.9047 11.1439 23.2268 11.1298C23.8671 11.0582 24.4349 10.4389 24.2444 9.8589C24.1982 10.0488 24.2 10.2462 24.2496 10.4354C24.2991 10.6246 24.3951 10.8002 24.5298 10.9483C24.6644 11.0964 24.8341 11.2129 25.0253 11.2885C25.2164 11.364 25.4237 11.3965 25.6306 11.3834C25.8375 11.3703 26.0383 11.3119 26.2169 11.213C26.3955 11.114 26.547 10.9771 26.6593 10.8134C26.7715 10.6496 26.8415 10.4634 26.8636 10.2697C26.8856 10.076 26.8592 9.88018 26.7863 9.6978C26.865 9.96538 26.9941 10.2176 27.1674 10.4424C27.2537 10.5528 27.37 10.6392 27.5041 10.6928C27.6382 10.7463 27.7852 10.765 27.9296 10.7467C28.3107 10.6644 28.8366 10.6393 28.8823 10.0307C28.989 8.67391 28.5279 7.58917 27.5904 6.86242C26.5049 6.12949 25.1604 5.8179 23.8366 5.99248C22.6286 6.19115 21.5231 6.75569 20.6887 7.59991" fill="#263238"/>
<path d="M21.55 7.44643C21.9509 8.1277 22.2023 8.87758 22.2893 9.65172C22.3764 10.4317 22.1357 11.2127 21.6186 11.8284C21.3564 12.13 21.0083 12.3554 20.6149 12.4784C20.2216 12.6014 19.7991 12.6168 19.3968 12.5229C19.5321 12.8507 19.589 13.2026 19.5633 13.5534C19.5376 13.9042 19.43 14.2454 19.2481 14.5528C19.0541 14.8526 18.756 15.0804 18.404 15.1977C18.0521 15.3151 17.6678 15.3149 17.316 15.1972C16.6986 14.943 16.3823 14.2914 16.2451 13.6721C16.0775 12.9191 16.0918 12.1404 16.287 11.3933C16.4821 10.6462 16.8532 9.9497 17.3727 9.35511C17.8923 8.76053 18.5473 8.28298 19.2893 7.95762C20.0314 7.63226 20.8416 7.46736 21.6605 7.47507" fill="#263238"/>
<path d="M19.2024 13.8154C19.0056 13.7469 18.7902 13.7413 18.5897 13.7995C18.3891 13.8578 18.2147 13.9767 18.0934 14.1376C17.8641 14.3779 17.7278 14.6838 17.7067 15.0059C17.6856 15.328 17.781 15.6473 17.9773 15.9121C18.1736 16.177 18.4594 16.3717 18.7883 16.4649C19.1172 16.558 19.4699 16.544 19.7893 16.4253" fill="#B77153"/>
<path d="M19.2519 15.7091C19.2519 15.7091 19.1376 15.7449 18.9471 15.7091C18.821 15.6862 18.7026 15.6352 18.6019 15.5604C18.5011 15.4857 18.4208 15.3894 18.3678 15.2795C18.3146 15.1505 18.3146 15.0075 18.3678 14.8786C18.4095 14.7754 18.4807 14.6849 18.5736 14.6172C18.7298 14.5062 18.8556 14.5027 18.8594 14.5134C18.8632 14.5241 18.7565 14.5671 18.6307 14.6817C18.5515 14.7507 18.4965 14.8408 18.4734 14.94C18.4502 15.0392 18.4599 15.1427 18.5012 15.2366C18.5487 15.3302 18.6167 15.4133 18.7008 15.4806C18.7848 15.5478 18.883 15.5976 18.989 15.6268C19.1376 15.6626 19.2519 15.6697 19.2519 15.7091Z" fill="#995037"/>
<path d="M24.4425 15.2434C24.4425 15.2434 24.4768 15.2935 24.4425 15.3687C24.4195 15.4706 24.3651 15.5639 24.2863 15.6372C24.2082 15.7105 24.1087 15.7603 24.0004 15.7804C23.9166 15.7804 23.8671 15.7804 23.8632 15.7804C23.8594 15.7804 24.0462 15.7124 24.1948 15.5692C24.3434 15.426 24.4082 15.2398 24.4425 15.2434Z" fill="#263238"/>
<path d="M27.7886 12.5837C27.7944 12.631 27.7901 12.679 27.7759 12.7247C27.7617 12.7705 27.7379 12.8131 27.706 12.8501C27.6741 12.8871 27.6346 12.9178 27.5899 12.9403C27.5451 12.9628 27.4961 12.9766 27.4456 12.9811C27.3467 12.9945 27.2461 12.9709 27.1656 12.9153C27.085 12.8597 27.0309 12.7766 27.015 12.6839C27.0092 12.6366 27.0135 12.5887 27.0276 12.5429C27.0418 12.4972 27.0656 12.4545 27.0975 12.4175C27.1295 12.3805 27.169 12.3499 27.2137 12.3274C27.2584 12.3049 27.3074 12.291 27.3579 12.2866C27.4569 12.2732 27.5574 12.2968 27.638 12.3524C27.7185 12.4079 27.7726 12.491 27.7886 12.5837Z" fill="#263238"/>
<path d="M28.0439 12.0543C28.002 12.1044 27.6895 11.9218 27.2817 11.9576C26.8739 11.9934 26.5767 12.2154 26.5195 12.1688C26.4623 12.1223 26.5195 12.0614 26.6605 11.9576C26.8306 11.826 27.0393 11.7461 27.2588 11.7285C27.4772 11.7113 27.6958 11.7589 27.8838 11.8645C28.0172 11.9469 28.0668 12.0292 28.0439 12.0543Z" fill="#263238"/>
<path d="M23.8823 12.9346C23.8881 12.9819 23.8838 13.0299 23.8696 13.0756C23.8554 13.1214 23.8317 13.164 23.7997 13.201C23.7678 13.238 23.7283 13.2687 23.6836 13.2912C23.6389 13.3137 23.5898 13.3275 23.5393 13.332C23.4404 13.3454 23.3398 13.3218 23.2593 13.2662C23.1787 13.2106 23.1246 13.1275 23.1087 13.0349C23.1029 12.9875 23.1072 12.9396 23.1214 12.8938C23.1355 12.8481 23.1593 12.8054 23.1912 12.7684C23.2232 12.7314 23.2627 12.7008 23.3074 12.6783C23.3521 12.6558 23.4012 12.6419 23.4517 12.6375C23.5506 12.6241 23.6511 12.6477 23.7317 12.7033C23.8123 12.7588 23.8663 12.8419 23.8823 12.9346Z" fill="#263238"/>
<path d="M23.9356 12.3833C23.8899 12.4334 23.5774 12.2544 23.1734 12.2902C22.7695 12.326 22.4684 12.5444 22.4113 12.5014C22.3541 12.4584 22.4112 12.3904 22.5523 12.2902C22.7221 12.1558 22.9329 12.0756 23.1544 12.0611C23.3717 12.0422 23.5896 12.0899 23.7756 12.1971C23.9052 12.2794 23.9547 12.3618 23.9356 12.3833Z" fill="#263238"/>
<path d="M25.6354 15.2219C25.8493 15.1392 26.0733 15.0815 26.3023 15.0501C26.409 15.0501 26.5081 15.0036 26.5195 14.9355C26.5201 14.8303 26.4854 14.7276 26.4204 14.642L26.0393 13.9045C25.6871 13.2813 25.3888 12.6324 25.1476 11.9641C25.549 12.5594 25.8983 13.1844 26.1918 13.8329L26.5729 14.5775C26.651 14.6922 26.6834 14.8292 26.6643 14.9642C26.6524 15.0012 26.6313 15.0351 26.6028 15.0631C26.5744 15.0911 26.5393 15.1124 26.5005 15.1253C26.4428 15.1457 26.3826 15.1589 26.3213 15.1647C26.0963 15.2115 25.8657 15.2308 25.6354 15.2219V15.2219Z" fill="#263238"/>
<path d="M25.5782 16.5862C25.6069 16.524 25.6162 16.4555 25.6051 16.3886C25.594 16.3216 25.5629 16.259 25.5154 16.208C25.4679 16.157 25.406 16.1197 25.3368 16.1005C25.2677 16.0813 25.1941 16.0808 25.1247 16.0993C25.124 16.031 25.0988 15.9648 25.0531 15.9116C25.0075 15.8583 24.9441 15.821 24.8732 15.8058C24.8016 15.7908 24.7273 15.7921 24.6564 15.8095C24.5855 15.827 24.52 15.86 24.4654 15.906C24.3617 15.9943 24.2915 16.112 24.2653 16.2412C24.2392 16.3704 24.2586 16.5041 24.3206 16.622C24.3884 16.7382 24.492 16.8325 24.6178 16.8925C24.7436 16.9526 24.8857 16.9756 25.0256 16.9585C25.1656 16.9394 25.297 16.884 25.4054 16.7987C25.5138 16.7133 25.5947 16.6013 25.6392 16.4752" fill="#995037"/>
<path d="M24.4273 15.5911C24.4959 15.5911 24.5378 16.01 24.9532 16.2821C25.3686 16.5542 25.8488 16.4647 25.8564 16.5255C25.864 16.5864 25.7573 16.6186 25.5515 16.6401C25.2825 16.6658 25.0124 16.6011 24.7893 16.4575C24.5759 16.3229 24.4279 16.1144 24.3777 15.8776C24.3549 15.7093 24.3968 15.5911 24.4273 15.5911Z" fill="#263238"/>
<path d="M24.2367 11.6673C24.2062 11.7783 23.7832 11.7604 23.2992 11.8535C22.8152 11.9466 22.4265 12.1077 22.3541 12.0182C22.2817 11.9287 22.3808 11.8678 22.5294 11.7497C22.7324 11.607 22.9669 11.5092 23.2156 11.4633C23.4643 11.4174 23.7209 11.4248 23.9661 11.4848C24.1529 11.5385 24.2482 11.6136 24.2367 11.6673Z" fill="#263238"/>
<path d="M27.9181 11.2985C27.8534 11.3952 27.537 11.3236 27.2093 11.3487C26.8816 11.3737 26.5767 11.4596 26.5005 11.3701C26.4242 11.2806 26.5005 11.2341 26.6224 11.141C26.7852 11.0244 26.9819 10.9569 27.1864 10.9477C27.3899 10.9353 27.5924 10.9829 27.7657 11.0837C27.8991 11.1625 27.9448 11.252 27.9181 11.2985Z" fill="#263238"/>
<path d="M26.0393 19.4109C24.7978 19.479 23.5621 19.2053 22.4837 18.6233C22.4837 18.6233 23.4631 20.3847 26.0508 20.0267L26.0393 19.4109Z" fill="#995037"/>
<path d="M17.0987 9.69465C17.0987 9.69465 17.0187 9.64811 16.9158 9.54071C16.7793 9.39946 16.6721 9.23556 16.5995 9.05741C16.5295 8.87775 16.5009 8.68617 16.5157 8.49535C16.5134 8.41643 16.5304 8.33807 16.5652 8.26623C16.5601 8.52541 16.5973 8.7838 16.6757 9.03235C16.7919 9.26629 16.9337 9.48824 17.0987 9.69465V9.69465Z" fill="#FAFAFA"/>
<path d="M18.0363 8.72084C17.97 8.67933 17.9119 8.62723 17.8648 8.56691C17.7398 8.43076 17.6336 8.28042 17.5485 8.1194C17.4664 7.95745 17.4013 7.78839 17.3541 7.61462C17.3273 7.54463 17.3144 7.47061 17.316 7.39624C17.3427 7.39624 17.4341 7.71486 17.6209 8.08719C17.8076 8.45951 18.0591 8.70294 18.0363 8.72084Z" fill="#FAFAFA"/>
<path d="M19.473 7.88665C19.473 7.88665 19.393 7.82221 19.2824 7.70049C19.1408 7.54115 19.0133 7.37113 18.9013 7.19213C18.7931 7.01207 18.6976 6.8255 18.6155 6.63364C18.5767 6.55618 18.5485 6.47437 18.5317 6.39021C18.5584 6.39021 18.7222 6.74821 18.9699 7.15633C19.2177 7.56445 19.4959 7.87233 19.473 7.88665Z" fill="#FAFAFA"/>
<path d="M21.2718 7.07766C21.2413 7.07766 21.1041 6.68744 20.8221 6.25426C20.5401 5.82108 20.1971 5.53826 20.2199 5.53826C20.3021 5.58799 20.3765 5.64824 20.441 5.71726C20.6078 5.87321 20.7572 6.04474 20.8869 6.2292C21.0123 6.41699 21.1145 6.61757 21.1917 6.82706C21.2294 6.90714 21.2563 6.99133 21.2718 7.07766V7.07766Z" fill="#FAFAFA"/>
<path d="M22.7924 6.25421C22.738 6.01179 22.668 5.77268 22.5828 5.53821C22.4422 5.33749 22.2855 5.1472 22.114 4.96899C22.114 4.96899 22.194 5.00837 22.3008 5.09787C22.4451 5.21321 22.5653 5.35283 22.6552 5.50957C22.7331 5.67115 22.7795 5.84454 22.7924 6.02151C22.8087 6.09832 22.8087 6.1774 22.7924 6.25421V6.25421Z" fill="#FAFAFA"/>
<path d="M24.5759 5.92853C24.553 5.92853 24.473 5.67793 24.2939 5.39511C24.1148 5.11229 23.9128 4.92613 23.9356 4.90823C24.1183 5.02005 24.2657 5.17581 24.3625 5.35931C24.4852 5.52834 24.5588 5.72456 24.5759 5.92853V5.92853Z" fill="#FAFAFA"/>
<path d="M26.1155 6.16812C26.0927 6.16812 26.0546 5.93542 25.9364 5.67408C25.8553 5.51942 25.7499 5.37703 25.6239 5.25164C25.7131 5.28781 25.7932 5.34126 25.8589 5.40851C25.9245 5.47576 25.9743 5.55528 26.005 5.64186C26.0926 5.80442 26.1309 5.9865 26.1155 6.16812V6.16812Z" fill="#FAFAFA"/>
<path d="M27.0797 6.11459C27.0797 6.11459 27.1788 6.19335 27.1902 6.33655C27.2017 6.47975 27.1369 6.57998 27.1178 6.57282C27.0988 6.56566 27.1178 6.46543 27.1178 6.34371C27.1178 6.22199 27.0607 6.12533 27.0797 6.11459Z" fill="#FAFAFA"/>
<path d="M16.5118 10.8724C16.2721 10.7979 16.0639 10.6537 15.9172 10.4606C15.7706 10.2675 15.6932 10.0356 15.6963 9.7984C15.7555 10.0168 15.8521 10.2248 15.9821 10.4142C16.1337 10.5906 16.3122 10.745 16.5118 10.8724V10.8724Z" fill="#FAFAFA"/>
<path d="M16.0964 11.957C16.0225 11.9656 15.9476 11.9599 15.8761 11.9402C15.8047 11.9205 15.7383 11.8872 15.681 11.8425C15.6158 11.8088 15.5583 11.7633 15.5118 11.7086C15.4654 11.6539 15.4309 11.5911 15.4105 11.5238C15.4295 11.5238 15.5324 11.6635 15.723 11.7816C15.9135 11.8998 16.1003 11.9356 16.0964 11.957Z" fill="#FAFAFA"/>
<path d="M25.8107 9.45836C25.9157 9.43853 26.0189 9.411 26.1194 9.37602C26.3842 9.25814 26.5951 9.05488 26.7139 8.80322C26.8017 8.61874 26.8399 8.41685 26.8253 8.21524C26.8107 8.01363 26.7437 7.81847 26.63 7.64688C26.3552 7.21647 25.9097 6.90615 25.3915 6.7841C24.8735 6.66126 24.335 6.63451 23.8061 6.70534C23.3727 6.75287 22.9505 6.86653 22.5561 7.04185C22.1955 7.20792 21.8761 7.44333 21.6186 7.7328C21.6764 7.64505 21.7441 7.56343 21.8206 7.48936C22.0275 7.28635 22.2698 7.11805 22.537 6.99173C22.9343 6.80629 23.3621 6.68525 23.8023 6.63373C24.3409 6.55832 24.8901 6.58387 25.4182 6.70892C25.9546 6.83781 26.4149 7.16085 26.6986 7.6075C26.8154 7.78881 26.8831 7.99426 26.8957 8.20584C26.9083 8.41742 26.8655 8.62869 26.7711 8.82112C26.6407 9.07966 26.4144 9.28461 26.1346 9.3975C26.0329 9.4406 25.9222 9.46141 25.8107 9.45836V9.45836Z" fill="#455A64"/>
<path d="M22.9486 9.76584C23.0756 9.65048 23.1732 9.50977 23.2344 9.35414C23.2887 9.18364 23.2887 9.00196 23.2344 8.83146C23.1678 8.62124 23.0177 8.4431 22.8152 8.33384C22.4355 8.14353 22.0374 7.98769 21.6262 7.86844C21.3099 7.77178 21.1079 7.72166 21.1117 7.71092C21.1155 7.70018 21.1651 7.71092 21.2565 7.72882C21.348 7.74672 21.4814 7.77536 21.6376 7.81832C22.0619 7.92234 22.4713 8.07378 22.8572 8.2694C23.0743 8.38977 23.2329 8.58501 23.2992 8.81356C23.3481 8.99846 23.3375 9.19281 23.2687 9.37204C23.2211 9.49125 23.1455 9.5989 23.0477 9.68708C23.0193 9.71809 22.9859 9.74467 22.9486 9.76584V9.76584Z" fill="#455A64"/>
<path d="M15.2885 2.98223C15.285 2.86705 15.3071 2.75244 15.3533 2.64571C15.4728 2.3428 15.7022 2.08923 16.0012 1.9297C16.2268 1.81915 16.4764 1.75876 16.7308 1.75317C16.9852 1.74759 17.2376 1.79696 17.4684 1.89749C17.7505 2.02636 17.999 2.21175 18.1965 2.44061C18.3941 2.66946 18.5358 2.93622 18.6117 3.22209H18.5431C18.6374 3.11899 18.7464 3.02864 18.8671 2.95359C19.1504 2.77521 19.4854 2.68327 19.8264 2.69032C20.1674 2.69737 20.4978 2.80305 20.7726 2.99297C20.9867 3.16058 21.1463 3.38139 21.2333 3.63017C21.3202 3.87895 21.3309 4.14569 21.2642 4.39991C21.1697 4.74176 20.9392 5.0365 20.6201 5.22332C20.5044 5.29503 20.375 5.34488 20.239 5.37009C20.3635 5.32509 20.4823 5.26747 20.5934 5.19825C20.8965 5.00893 21.1138 4.72057 21.2032 4.38917C21.2625 4.14524 21.2487 3.89063 21.1633 3.65363C21.0778 3.41664 20.9241 3.20653 20.7192 3.04667C20.4553 2.86701 20.139 2.7679 19.8132 2.76278C19.4873 2.75765 19.1677 2.84676 18.8975 3.01803C18.7822 3.08698 18.6782 3.17141 18.5889 3.26863L18.5393 3.31875V3.25431C18.4645 2.97841 18.3269 2.721 18.1362 2.49977C17.9454 2.27853 17.7059 2.09872 17.4341 1.97267C17.2149 1.87101 16.9736 1.81812 16.7291 1.81812C16.4846 1.81812 16.2433 1.87101 16.0241 1.97267C15.7328 2.11838 15.5049 2.35521 15.38 2.64213C15.3362 2.75196 15.3055 2.86603 15.2885 2.98223V2.98223Z" fill="#455A64"/>
<path d="M23.162 2.07988C23.2039 2.09488 23.2426 2.1167 23.2763 2.14432C23.3727 2.21539 23.4609 2.29578 23.5393 2.38418C23.8004 2.67882 23.9469 3.04826 23.9545 3.43158C23.9621 3.8149 23.8305 4.18922 23.5812 4.49281C23.507 4.58333 23.4227 4.66615 23.3297 4.73983C23.2967 4.76927 23.2578 4.79237 23.2154 4.80786C23.3302 4.69513 23.4371 4.57555 23.5355 4.44985C23.7594 4.14876 23.8779 3.78965 23.8747 3.42239C23.8619 3.05474 23.7288 2.69974 23.4936 2.40566C23.39 2.29103 23.2793 2.18225 23.162 2.07988Z" fill="#455A64"/>
<path d="M13.4211 4.01666C13.293 4.31946 13.2677 4.65211 13.3487 4.96895C13.4336 5.31093 13.658 5.60792 13.9737 5.79593C14.1652 5.90951 14.3811 5.98162 14.6059 6.00701C14.8307 6.0324 15.0587 6.01044 15.2733 5.94271L15.4372 5.88901L15.3152 6.00715L15.2619 6.05727C15.1197 6.22507 15.0495 6.43675 15.065 6.65072C15.0805 6.86469 15.1806 7.06547 15.3457 7.21361C15.4825 7.33768 15.6453 7.43359 15.8238 7.49523C16.0023 7.55688 16.1925 7.58289 16.3823 7.57161C16.6394 7.55437 16.8912 7.49374 17.1254 7.39261C17.2931 7.32459 17.3808 7.27447 17.3846 7.28163C17.3081 7.33524 17.2264 7.38199 17.1407 7.42125C16.9025 7.53303 16.6438 7.60107 16.3785 7.62173C16.1801 7.63862 15.9802 7.6154 15.7922 7.55365C15.6042 7.4919 15.4325 7.39305 15.2885 7.26373C15.1071 7.10405 14.9965 6.88593 14.9788 6.65297C14.9612 6.42002 15.0378 6.18937 15.1933 6.00715L15.2542 5.94987L15.2923 6.01431C15.0666 6.08514 14.8268 6.10744 14.5907 6.07955C14.3545 6.05167 14.1281 5.97432 13.928 5.85321C13.7645 5.75354 13.6242 5.62382 13.5154 5.47185C13.4067 5.31988 13.3319 5.14881 13.2954 4.96895C13.2321 4.73398 13.2321 4.48792 13.2954 4.25294C13.3246 4.16877 13.367 4.08915 13.4211 4.01666V4.01666Z" fill="#455A64"/>
<path d="M25.1971 33.627C25.1971 33.627 25.1361 33.7165 24.9989 33.8382C24.7979 34.0109 24.5752 34.16 24.3358 34.2821C23.5402 34.7021 22.616 34.8551 21.7155 34.7158C20.815 34.5766 19.9918 34.1534 19.3815 33.516C19.1947 33.3269 19.0323 33.1178 18.8975 32.8931C18.8061 32.7356 18.7718 32.6425 18.7832 32.6353C18.7946 32.6282 19.0042 32.9933 19.4768 33.4229C20.0886 34.0134 20.8859 34.4041 21.7516 34.5375C22.6173 34.6709 23.5057 34.54 24.2863 34.164C24.8693 33.8847 25.1704 33.6091 25.1971 33.627Z" fill="#263238"/>
<path d="M91.071 57.933L87.8907 58.4626C85.3284 55.5448 81.6921 53.6864 77.7378 53.2735C73.7835 52.8607 69.8154 53.9253 66.6585 56.2459C63.5015 58.5665 61.3985 61.9647 60.7867 65.734C60.1749 69.5032 61.1013 73.3537 63.3733 76.4848C65.6454 79.6159 69.0883 81.7868 72.9863 82.5463C76.8843 83.3057 80.9376 82.5952 84.3035 80.5625C87.6694 78.5298 90.089 75.3313 91.0592 71.6318C92.0295 67.9324 91.4758 64.0166 89.5132 60.6986L91.071 57.933Z" fill="#FAFAFA"/>
<path d="M91.0711 57.9331C90.9722 58.1096 90.5291 58.9138 89.5406 60.7151V60.6856C90.063 61.5598 90.4903 62.4833 90.8154 63.4414C91.0185 64.0344 91.1813 64.6393 91.3029 65.2525C91.3745 65.5794 91.3983 65.9063 91.4494 66.2659C91.5094 66.6207 91.5447 66.9789 91.5551 67.3381C91.5551 67.7043 91.5551 68.0835 91.5824 68.4692C91.6097 68.8549 91.521 69.2472 91.4903 69.6493L91.4631 69.9533L91.4085 70.2541L91.2961 70.8687C91.2551 71.0746 91.2279 71.2871 91.1699 71.4931C91.112 71.699 91.0506 71.9082 90.9893 72.1174C90.425 74.0262 89.4717 75.8087 88.1845 77.3619C86.8973 78.9151 85.3017 80.2081 83.4901 81.1661L83.1186 81.3688L82.7266 81.5421L81.9324 81.8853L81.7313 81.9736L81.5233 82.039L81.1041 82.1762L80.2621 82.4476C79.6826 82.5685 79.0998 82.7189 78.4998 82.8137L77.5931 82.9216L77.1364 82.9772C76.983 82.9772 76.8296 82.9772 76.6762 82.9772L75.7456 82.9968C75.5897 83.0045 75.4335 82.999 75.2786 82.9804L74.8082 82.9477C74.498 82.9183 74.181 82.9118 73.8674 82.8627L72.93 82.7026C72.7732 82.6731 72.6164 82.6503 72.4596 82.6176L71.9961 82.4933L71.0655 82.2416C70.7621 82.1338 70.4621 82.0161 70.1588 81.9147L69.702 81.7415C69.552 81.6859 69.4089 81.6042 69.2623 81.5388L68.3829 81.1105C68.0931 80.9569 67.8238 80.7836 67.5409 80.6104C66.9789 80.2651 66.4393 79.8874 65.9252 79.4793C65.6661 79.2733 65.4309 79.0412 65.1821 78.8255C64.9305 78.6093 64.6937 78.3778 64.4731 78.1325L63.7913 77.3937C63.58 77.1387 63.3925 76.8641 63.188 76.5993L62.888 76.2005C62.796 76.0632 62.7142 75.9161 62.629 75.7755L62.1177 74.9255C61.9677 74.6313 61.8347 74.3338 61.695 74.0396L61.4836 73.595C61.4189 73.4479 61.3746 73.291 61.3166 73.1374C61.211 72.8334 61.1053 72.5261 60.9962 72.2221C60.8871 71.918 60.8428 71.6009 60.7644 71.2904C60.6146 70.6726 60.5098 70.0456 60.4508 69.4139C60.4106 69.1017 60.3923 68.7871 60.3963 68.4725C60.3963 68.1619 60.3963 67.8481 60.3963 67.5375C60.3963 67.227 60.4474 66.9197 60.4713 66.6124L60.5122 66.1515C60.5326 65.9978 60.5667 65.8474 60.5906 65.6971C60.6485 65.393 60.7065 65.0956 60.761 64.7948C60.8155 64.4941 60.928 64.2096 61.0064 63.9187L61.136 63.4839L61.2007 63.2649L61.286 63.0557C61.4019 62.7778 61.5143 62.4999 61.6268 62.2253C61.738 61.949 61.869 61.6803 62.0188 61.4212C62.1552 61.1596 62.2949 60.8981 62.4347 60.6366L62.9187 59.9011C63.0718 59.6543 63.2415 59.4174 63.4266 59.1917C63.7742 58.733 64.1522 58.2962 64.5583 57.8841L65.1582 57.276C65.373 57.0864 65.5911 56.9099 65.8059 56.7268C67.4623 55.3496 69.405 54.3255 71.5052 53.7226C72.4705 53.4536 73.4581 53.2644 74.4571 53.1571C75.3967 53.0723 76.3422 53.0657 77.2829 53.1374C80.3511 53.3913 83.2728 54.508 85.6819 56.3476C86.495 56.9788 87.2447 57.6814 87.9214 58.4463H87.8908L91.0779 57.9429L87.901 58.5019H87.8669C87.1858 57.7488 86.4351 57.0562 85.624 56.4326C83.221 54.6179 80.3141 53.5219 77.2659 53.2813C76.3329 53.2118 75.3954 53.2206 74.4639 53.3074C73.4738 53.4157 72.4952 53.606 71.5393 53.8762C69.4616 54.4765 67.5409 55.4939 65.9047 56.8609C65.6934 57.0407 65.4752 57.2172 65.2639 57.4035L64.6878 57.9887C64.2867 58.4014 63.9132 58.8382 63.5698 59.2963C63.3861 59.5204 63.2187 59.7563 63.0687 60.0024L62.5881 60.7281L62.179 61.5062C62.0315 61.762 61.9028 62.0275 61.7938 62.3005L61.453 63.1243L61.3712 63.3303L61.3064 63.546L61.1803 63.9743C61.0985 64.2652 60.9962 64.5496 60.9349 64.8438C60.8735 65.1381 60.8258 65.4355 60.7678 65.7363C60.744 65.8834 60.7099 66.0338 60.6894 66.1842L60.6519 66.6385C60.6281 66.9426 60.6008 67.2499 60.5769 67.5571C60.5531 67.8644 60.5769 68.1717 60.5769 68.4823C60.573 68.7926 60.5912 69.1028 60.6315 69.4107C60.6899 70.0356 60.7924 70.6559 60.9383 71.2675C61.0167 71.5715 61.0746 71.8853 61.1701 72.1894L61.4871 73.0949C61.545 73.2453 61.5893 73.3989 61.6541 73.546L61.8586 73.9841C61.9984 74.275 62.1313 74.5725 62.2779 74.8602L62.7824 75.7003C62.871 75.8409 62.9494 75.9847 63.0414 76.1187L63.338 76.5176C63.5391 76.7791 63.7266 77.0471 63.9345 77.3021C64.1424 77.5571 64.3776 77.7859 64.5958 78.0311C64.8133 78.274 65.0479 78.5023 65.298 78.7143C65.5434 78.9301 65.7752 79.1622 66.0308 79.3682C66.5391 79.7722 67.073 80.1456 67.6295 80.4862C67.909 80.6529 68.1749 80.8327 68.4612 80.9831L69.3305 81.4048C69.477 81.4734 69.6168 81.5519 69.7668 81.6074L70.2167 81.7774C70.5167 81.8886 70.8166 82.0063 71.1166 82.1043L72.0335 82.3561L72.4937 82.4803C72.6471 82.513 72.8039 82.5358 72.9573 82.562L73.8913 82.7091C74.2015 82.7581 74.5151 82.7647 74.8218 82.7941L75.2854 82.8301C75.4397 82.8415 75.5947 82.8415 75.749 82.8301L76.666 82.8104C76.8194 82.8104 76.9727 82.8104 77.1261 82.8104L77.5761 82.7549L78.476 82.6503C79.0657 82.5587 79.6417 82.4083 80.2178 82.2874L81.0529 82.0193L81.4654 81.8886L81.6733 81.8199L81.871 81.7349L82.655 81.408L83.047 81.2413L83.4152 81.0386C85.2113 80.0925 86.7944 78.8148 88.0733 77.2792C89.3522 75.7436 90.3015 73.9804 90.8666 72.0913C90.9313 71.8821 90.9927 71.6761 91.0506 71.4702C91.1086 71.2642 91.1359 71.0583 91.1768 70.8523C91.2177 70.6464 91.2551 70.4437 91.2926 70.2443L91.3506 69.9435L91.3744 69.6428C91.4085 69.244 91.4392 68.855 91.4699 68.4725C91.5006 68.09 91.4699 67.7141 91.4494 67.3479C91.4411 66.991 91.4081 66.635 91.3506 66.2822C91.3029 65.939 91.279 65.599 91.2108 65.2754C90.9061 63.6783 90.3303 62.14 89.5065 60.7216V60.7053C90.5121 58.904 90.9688 58.1064 91.0711 57.9331Z" fill="#263238"/>
<path d="M65.4411 69.8842L63.7163 74.3399L62.4108 64.2745C62.3591 63.6317 62.4911 62.9875 62.7926 62.4112C62.9201 62.1539 63.0779 61.9115 63.263 61.6887C63.4949 61.4124 63.7656 61.1681 64.0674 60.963C64.364 60.7996 64.3095 60.3844 64.0095 60.3517C63.7095 60.319 62.8812 60.744 62.2336 61.5939C61.5859 62.4439 61.5177 60.8061 61.4836 60.2111C61.4496 59.6162 61.245 57.7855 61.0473 57.6548C60.7542 57.4651 60.4815 57.7365 60.5326 58.3282C60.5838 58.9199 60.6042 60.7146 60.277 60.7244C59.9497 60.7342 59.8134 57.7038 59.8134 57.7038C59.8134 57.7038 59.8918 57.05 59.5134 57.05C58.8317 57.05 59.2271 60.2569 59.2714 60.5609C59.3021 60.7734 58.9305 60.7963 58.9305 60.5609C58.9305 60.3256 58.8624 57.5338 58.167 57.5273C57.6352 57.5273 58.467 60.1686 58.1431 60.7603C57.8193 61.352 57.7239 58.6878 57.2126 58.7041C57.0217 58.7041 56.8717 58.7401 57.1648 60.2602C57.3182 61.0742 57.8773 62.251 58.0511 63.8561L58.0954 64.268C58.1295 66.2523 58.3715 73.7286 60.2531 78.2791C60.5164 78.9001 60.9513 79.4405 61.5109 79.8422C62.0705 80.2439 62.7338 80.4917 63.4293 80.5589C64.1248 80.6262 64.8262 80.5103 65.4582 80.2238C66.0901 79.9373 66.6287 79.491 67.016 78.9329C68.5025 76.7829 69.7339 74.4803 70.6871 72.0679L65.4411 69.8842Z" fill="#FFBE9D"/>
<path d="M59.0635 63.0194C59.0635 63.0357 59.1691 63.0194 59.3362 63.088C59.5572 63.162 59.7433 63.3092 59.8611 63.5032L59.9259 63.6144L59.9634 63.4934C60.0168 63.319 60.1022 63.1552 60.2156 63.0096C60.4343 62.7234 60.7386 62.5079 61.0882 62.3917C61.3541 62.3002 61.5382 62.3067 61.5382 62.2839C61.3793 62.2512 61.2141 62.2614 61.061 62.3133C60.6818 62.4152 60.3494 62.6363 60.1168 62.9409C59.9968 63.0985 59.9078 63.2758 59.8543 63.464H59.9565C59.8904 63.3583 59.803 63.2663 59.6994 63.1933C59.5959 63.1203 59.4782 63.0679 59.3532 63.039C59.2611 63.0038 59.1598 62.9969 59.0635 63.0194V63.0194Z" fill="#EB996E"/>
<path d="M71.6722 56.2298C71.2823 56.1288 70.8748 56.1058 70.4752 56.1622C70.0756 56.2186 69.6924 56.3533 69.3494 56.5578C69.0063 56.7623 68.7108 57.0323 68.4812 57.351C68.2516 57.6697 68.0928 58.0302 68.0147 58.4103C67.9295 58.966 68.0147 59.5937 67.6431 60.0448C67.2716 60.4959 66.5353 60.5613 65.9388 60.7705C65.2956 61.029 64.776 61.5083 64.4816 62.1147C64.1872 62.721 64.1392 63.4109 64.347 64.0494C64.4697 64.3763 64.6674 64.7489 64.5208 65.0758C64.4015 65.3439 64.0947 65.4747 63.8629 65.661C63.6081 65.8925 63.4283 66.1895 63.3449 66.5165C63.2614 66.8434 63.278 67.1865 63.3925 67.5047C63.6369 68.1396 64.0967 68.6773 64.6981 69.0314C65.5659 69.5639 66.5812 69.8326 67.6109 69.8023C68.6407 69.772 69.6369 69.444 70.469 68.8614C71.2666 68.2828 71.9279 67.4492 72.9027 67.2269C74.0651 66.9784 75.1798 67.7009 76.3285 67.9918C77.0506 68.159 77.8025 68.1697 78.5295 68.0232C79.2565 67.8768 79.9404 67.5768 80.5314 67.1451C81.71 66.258 82.4885 64.9708 82.7061 63.5492C82.9822 61.8362 82.4846 60.0873 82.6107 58.358C82.6925 57.2988 83.0061 56.2429 82.8595 55.1903C82.7129 54.1377 81.8914 53.0458 80.7836 53.0687" fill="#263238"/>
<path d="M62.9051 64.7292L63.7129 73.6536L68.1817 64.35L70.8234 72.4899C69.8713 74.9033 68.6387 77.2061 67.1489 79.3548C65.4445 81.8164 61.2655 81.9537 60.127 79.2077C58.2488 74.6572 57.7205 66.8083 57.6864 64.824L62.9051 64.7292Z" fill="#92E3A9"/>
<path d="M68.0044 80.669C66.9818 80.0414 66.7501 72.8005 67.4182 68.8711L67.6704 67.3804C67.2136 64.5527 69.3748 61.8786 72.3437 61.7381C72.6458 61.7176 72.9493 61.7341 73.247 61.7871L79.7542 62.0879C79.7542 62.0879 87.0147 63.7485 88.252 68.1584C88.5247 69.1391 89.8268 74.7913 89.8268 74.7913C87.4714 78.7828 84.7138 80.3487 84.7138 80.3487L82.6345 74.8142C82.6345 74.8142 83.2685 78.0015 83.3333 79.2176C83.3709 79.9763 83.1943 80.7308 82.822 81.4013C82.822 81.4013 75.3502 85.2326 68.0044 80.669Z" fill="#92E3A9"/>
<path d="M83.1901 76.2232C83.0552 76.0109 82.9476 75.7837 82.8697 75.5465C82.6993 75.1215 82.4811 74.5233 82.2596 73.8597C82.038 73.1961 81.8506 72.588 81.7278 72.1467C81.6422 71.9121 81.5861 71.6684 81.5608 71.421C81.6756 71.6431 81.7681 71.8751 81.8369 72.114C82.0039 72.6044 82.1982 73.1765 82.4164 73.8107C82.6345 74.4449 82.8186 75.0202 82.9788 75.5106C83.0725 75.7412 83.1433 75.9798 83.1901 76.2232V76.2232Z" fill="#263238"/>
<path d="M63.1607 76.6381C63.0628 76.4985 63.002 76.338 62.9835 76.1706C62.9025 75.7833 62.9025 75.3844 62.9835 74.9971C63.0634 74.6084 63.2221 74.2386 63.4504 73.9085C63.5354 73.7662 63.6517 73.6435 63.7913 73.5489C63.4715 73.9933 63.25 74.4957 63.1404 75.0253C63.0308 75.555 63.0354 76.1005 63.1539 76.6283L63.1607 76.6381Z" fill="#263238"/>
<path d="M81.9324 74.1603C81.9324 74.2028 78.6191 74.2126 74.5355 74.1832C70.4519 74.1538 67.1353 74.0917 67.1353 74.0459C67.1353 74.0001 70.4485 73.9936 74.5355 74.023C78.6225 74.0524 81.9324 74.1178 81.9324 74.1603Z" fill="#FAFAFA"/>
<path d="M82.4709 74.6637C82.4709 74.7062 79.0622 74.801 74.8491 74.8697C70.636 74.9383 67.2273 74.9645 67.2273 74.9187C67.2273 74.8729 70.636 74.7847 74.8457 74.7128C79.0554 74.6408 82.4675 74.6212 82.4709 74.6637Z" fill="#FAFAFA"/>
<path d="M67.5341 79.7666C67.4751 79.6213 67.4339 79.4699 67.4113 79.3155C67.3466 79.0213 67.2614 78.5898 67.1966 78.0569C67.0153 76.6618 67.0004 75.2514 67.1523 73.853C67.2366 73.0804 67.3836 72.3153 67.592 71.5646C67.6943 71.2214 67.7897 70.8945 67.9124 70.5839C68.0091 70.3053 68.123 70.0324 68.2533 69.7667C68.359 69.5182 68.4919 69.309 68.5942 69.1129C68.6817 68.949 68.782 68.7916 68.8942 68.6421C68.9759 68.5067 69.0719 68.3797 69.1805 68.2629C69.2146 68.2858 68.8055 68.8285 68.3658 69.8092C67.813 71.1105 67.4638 72.4831 67.3295 73.8824C67.1856 75.2694 67.1856 76.6667 67.3295 78.0537C67.3807 78.5865 67.4454 79.0148 67.4864 79.3122C67.5152 79.4622 67.5311 79.6142 67.5341 79.7666V79.7666Z" fill="#263238"/>
<path d="M74.4435 65.0561C74.4639 65.1018 74.3549 65.1868 74.239 65.3045C74.1231 65.4222 74.0413 65.5301 73.9936 65.5137C73.9458 65.4974 73.9697 65.3307 74.1129 65.1868C74.256 65.043 74.4264 65.0234 74.4435 65.0561Z" fill="#263238"/>
<path d="M73.7413 63.964C73.7413 64.0131 73.6015 64.0523 73.4618 64.1406C73.322 64.2288 73.2164 64.3236 73.172 64.3007C73.1277 64.2779 73.172 64.1046 73.3663 63.9934C73.5606 63.8823 73.7447 63.9183 73.7413 63.964Z" fill="#263238"/>
<path d="M73.5504 62.9444C73.5095 62.9739 73.4038 62.9052 73.2607 62.8758C73.1175 62.8464 72.9914 62.8594 72.9709 62.8169C72.9505 62.7744 73.0936 62.6633 73.3118 62.7091C73.5299 62.7548 73.6083 62.9216 73.5504 62.9444Z" fill="#263238"/>
<path d="M75.3672 66.318C75.3195 66.318 75.2854 66.1676 75.3434 65.9911C75.4013 65.8145 75.5206 65.7132 75.5581 65.7394C75.5956 65.7655 75.5581 65.893 75.5138 66.0434C75.4695 66.1937 75.4184 66.3212 75.3672 66.318Z" fill="#263238"/>
<path d="M76.9864 66.5044C76.9387 66.5044 76.8637 66.39 76.816 66.2233C76.7682 66.0565 76.7716 65.8964 76.816 65.8964C76.8603 65.8964 76.9387 66.0108 76.983 66.1775C77.0273 66.3442 77.0341 66.4913 76.9864 66.5044Z" fill="#263238"/>
<path d="M78.4282 66.0367C78.3805 66.053 78.2953 65.9223 78.1726 65.7882C78.0499 65.6542 77.9306 65.5561 77.9544 65.5104C77.9783 65.4646 78.1589 65.5104 78.2953 65.6771C78.4316 65.8438 78.4725 66.0367 78.4282 66.0367Z" fill="#263238"/>
<path d="M79.6315 65.0561C79.5804 65.0561 79.5156 64.8927 79.3383 64.7685C79.1611 64.6442 78.977 64.6246 78.9702 64.5756C78.9634 64.5265 79.2088 64.4612 79.444 64.6344C79.6792 64.8077 79.686 65.0725 79.6315 65.0561Z" fill="#263238"/>
<path d="M80.1803 63.8431C80.1326 63.8431 80.0372 63.7058 79.8395 63.6012C79.6418 63.4966 79.4747 63.4769 79.4645 63.4312C79.4543 63.3854 79.6895 63.3102 79.9315 63.4573C80.1735 63.6044 80.228 63.8365 80.1803 63.8431Z" fill="#263238"/>
<g opacity="0.3">
<path opacity="0.3" d="M67.4147 79.0767C66.9213 76.1955 67.1171 73.2444 67.9874 70.4465C66.7253 71.6463 65.8902 73.1976 65.6013 74.8793C65.3218 76.5498 65.8877 78.4066 66.6887 79.9136L67.4147 79.0767Z" fill="black"/>
</g>
<path d="M70.953 52.7942C69.3543 49.0054 71.6824 46.7236 73.1857 45.9129C74.0787 45.4291 75.1354 45.3343 76.1546 45.3179C77.1619 45.2807 78.1696 45.3809 79.1475 45.6154C80.1381 45.8524 81.0356 46.36 81.7312 47.0767C82.9277 48.3647 83.1731 50.2607 83.0299 52.0064C82.8538 54.0692 82.2056 56.0694 81.1313 57.8645C81.0125 58.103 80.8288 58.3063 80.5996 58.4529C80.4842 58.5217 80.3459 58.5461 80.2125 58.5213C80.0791 58.4964 79.9605 58.4241 79.8803 58.3189" fill="#263238"/>
<path d="M76.3625 65.8865C78.0907 66.0205 79.6315 64.5788 79.8667 61.9636L81.0495 48.711L80.9677 49.6263C80.9802 49.363 80.8889 49.105 80.7121 48.9033C80.5353 48.7016 80.2858 48.5711 80.0132 48.5377L74.6548 47.9329C74.2118 47.8884 73.764 47.9299 73.3381 48.0548C72.9121 48.1798 72.5167 48.3856 72.1755 48.6601C71.8342 48.9347 71.554 49.2722 71.3516 49.6527C71.1492 50.0333 71.0287 50.4489 70.9973 50.8751C70.8303 52.8953 70.711 55.3634 70.9257 56.8737C71.3654 59.9107 73.7311 60.316 73.7311 60.316L73.4992 62.5128C73.4516 62.9135 73.488 63.3193 73.6062 63.7063C73.7244 64.0933 73.922 64.4537 74.1875 64.7665C74.4529 65.0793 74.7809 65.338 75.1521 65.5275C75.5232 65.717 75.9302 65.8335 76.3489 65.8701L76.3625 65.8865Z" fill="#FFBE9D"/>
<path d="M74.1265 55.3078C73.9063 55.2354 73.677 55.1915 73.4447 55.1771C73.3357 55.1771 73.2334 55.1444 73.2164 55.0692C73.2072 54.9551 73.2345 54.8411 73.2947 54.7423C73.4004 54.4841 73.5129 54.2127 73.6356 53.9316C73.9469 53.2447 74.2011 52.5353 74.3957 51.81C74.0297 52.4713 73.7175 53.1588 73.4618 53.8662C73.3493 54.1539 73.2436 54.4219 73.1209 54.6835C73.0527 54.8126 73.0311 54.9597 73.0595 55.1019C73.0744 55.1389 73.0978 55.1721 73.1279 55.1993C73.158 55.2265 73.194 55.2468 73.2334 55.2588C73.2943 55.2759 73.3574 55.2847 73.4209 55.285C73.654 55.3222 73.8912 55.3299 74.1265 55.3078Z" fill="#263238"/>
<path d="M73.7447 60.2539C75.2071 60.2882 76.6498 59.9255 77.9067 59.2078C77.9067 59.2078 76.758 61.2935 73.6663 60.9829L73.7447 60.2539Z" fill="#EB996E"/>
<path d="M74.2901 56.3148C74.3703 56.2177 74.475 56.1419 74.5943 56.0944C74.7136 56.047 74.8435 56.0294 74.9718 56.0435C75.0669 56.0516 75.1591 56.0788 75.2425 56.1233C75.3258 56.1678 75.3985 56.2286 75.4559 56.3017C75.5118 56.3731 75.544 56.4591 75.5482 56.5483C75.5525 56.6375 75.5286 56.7258 75.4797 56.8019C75.4105 56.8752 75.3198 56.9269 75.2195 56.9502C75.1192 56.9736 75.0139 56.9674 74.9173 56.9326C74.7147 56.8613 74.53 56.75 74.3753 56.6057C74.3278 56.5718 74.2874 56.5296 74.256 56.4815C74.2409 56.4585 74.2328 56.4319 74.2328 56.4047C74.2328 56.3775 74.2409 56.3508 74.256 56.3279" fill="#EB996E"/>
<path d="M75.3774 55.6087C75.3093 55.6087 75.299 56.0566 74.8968 56.3737C74.4946 56.6908 74.0003 56.6385 73.9969 56.7006C73.9935 56.7627 74.106 56.7888 74.3139 56.7954C74.587 56.8021 74.8533 56.7138 75.0638 56.5469C75.2718 56.3833 75.4061 56.1492 75.4388 55.8931C75.4592 55.7166 75.4081 55.6054 75.3774 55.6087Z" fill="#263238"/>
<path d="M75.5513 51.4829C75.5922 51.5974 76.0183 51.5483 76.5194 51.6104C77.0205 51.6725 77.4227 51.8131 77.4909 51.7118C77.5215 51.6627 77.4533 51.5549 77.2897 51.4437C77.0764 51.3039 76.8307 51.2164 76.5739 51.1887C76.3174 51.1572 76.0567 51.1853 75.8138 51.2704C75.6297 51.3424 75.5343 51.4306 75.5513 51.4829Z" fill="#263238"/>
<path d="M71.7131 50.8945C71.7881 50.9893 72.0812 50.8945 72.4357 50.8945C72.7903 50.8945 73.0902 50.9664 73.1584 50.8651C73.1891 50.8193 73.1584 50.7212 73.0152 50.633C72.8429 50.5201 72.6375 50.4628 72.4289 50.4695C72.2205 50.4735 72.0183 50.5385 71.8495 50.6558C71.7233 50.7506 71.6824 50.8487 71.7131 50.8945Z" fill="#263238"/>
<path d="M81.4756 58.116C81.8746 58.0662 82.2559 57.9277 82.5891 57.7114C82.9223 57.4952 83.1982 57.2072 83.3947 56.8705C84.5298 54.8731 84.8059 51.7087 84.7581 50.4664C84.7554 50.0447 84.6251 49.6327 84.3831 49.2805C84.141 48.9283 83.7977 48.651 83.3947 48.4821C82.7129 48.1814 82.6448 48.2599 82.1198 47.727C79.7338 45.3112 76.55 44.1311 73.5197 45.7362C73.1612 45.9365 72.8895 46.2535 72.7538 46.6295C72.6181 47.0056 72.6274 47.4158 72.78 47.7859C73.4038 49.3125 74.7434 50.2507 76.1683 50.9012C76.6148 51.1072 77.5317 51.2281 78.176 51.5125C78.5075 51.69 78.7912 51.9394 79.0043 52.2409C79.2173 52.5423 79.3539 52.8873 79.4031 53.2484C79.519 54.3206 78.343 55.3471 78.7214 56.354C78.9429 56.9228 79.6042 57.2268 79.8531 57.7858C80.0644 58.2565 79.6451 59.502 79.9962 60.1101C79.9962 60.1101 81.1483 58.3121 81.4449 58.116H81.4756Z" fill="#263238"/>
<path d="M71.7097 52.7644C71.7011 52.8603 71.7319 52.9558 71.7955 53.0303C71.8592 53.1048 71.9507 53.1525 72.0506 53.1632C72.1008 53.17 72.152 53.1669 72.2009 53.1539C72.2498 53.1409 72.2953 53.1183 72.3347 53.0876C72.3741 53.0569 72.4064 53.0187 72.4297 52.9755C72.4529 52.9322 72.4666 52.8848 72.4699 52.8363C72.4794 52.7398 72.449 52.6435 72.3853 52.5683C72.3215 52.4931 72.2294 52.4449 72.129 52.4342C72.0786 52.4283 72.0276 52.4323 71.9789 52.4459C71.9302 52.4595 71.8849 52.4824 71.8457 52.5132C71.8065 52.5441 71.7742 52.5823 71.7508 52.6254C71.7275 52.6686 71.7135 52.7159 71.7097 52.7644V52.7644Z" fill="#263238"/>
<path d="M71.6552 52.3953C71.6961 52.4476 71.996 52.2548 72.4153 52.2809C72.8346 52.3071 73.1141 52.5294 73.1618 52.4803C73.2095 52.4313 73.1448 52.3692 73.0186 52.2678C72.8498 52.1364 72.6425 52.0588 72.4255 52.0455C72.2102 52.0324 71.9962 52.0863 71.8154 52.1992C71.6824 52.2875 71.6313 52.3724 71.6552 52.3953Z" fill="#263238"/>
<path d="M75.6945 53.0098C75.6859 53.1058 75.7167 53.2012 75.7803 53.2757C75.844 53.3502 75.9355 53.3979 76.0353 53.4086C76.0856 53.4155 76.1368 53.4123 76.1856 53.3993C76.2345 53.3863 76.2801 53.3637 76.3195 53.333C76.3589 53.3023 76.3912 53.2642 76.4144 53.2209C76.4377 53.1777 76.4514 53.1303 76.4546 53.0817C76.4642 52.9852 76.4338 52.889 76.37 52.8137C76.3063 52.7385 76.2142 52.6904 76.1138 52.6796C76.0634 52.6738 76.0123 52.6777 75.9637 52.6913C75.915 52.7049 75.8697 52.7278 75.8305 52.7587C75.7913 52.7895 75.759 52.8277 75.7356 52.8709C75.7123 52.914 75.6983 52.9613 75.6945 53.0098V53.0098Z" fill="#263238"/>
<path d="M75.7047 52.6339C75.749 52.6862 76.0455 52.4933 76.4648 52.5195C76.8841 52.5457 77.167 52.7679 77.2147 52.7222C77.2625 52.6764 77.1943 52.6078 77.0716 52.5064C76.9022 52.3742 76.6932 52.2975 76.475 52.2874C76.26 52.2721 76.0456 52.325 75.8649 52.4378C75.7319 52.5358 75.6842 52.6339 75.7047 52.6339Z" fill="#263238"/>
<path d="M79.5804 55.7001C79.5804 55.6837 79.8122 55.6641 80.2144 55.5529C80.7808 55.3955 81.3005 55.1121 81.7313 54.7259C82.0218 54.4598 82.2426 54.1316 82.3755 53.7681C82.5238 53.3459 82.5404 52.8915 82.4232 52.4605C82.3673 52.226 82.263 52.0046 82.1167 51.8093C81.9704 51.6139 81.7849 51.4485 81.5711 51.3228C81.0755 51.0975 80.5344 50.9793 79.986 50.9763C78.8966 50.888 77.845 50.5518 76.9182 49.9956C76.1608 49.5391 75.4985 48.9516 74.965 48.263C74.6041 47.8021 74.3126 47.2948 74.0992 46.756C74.0404 46.6107 73.9903 46.4622 73.9492 46.3114C73.93 46.2598 73.9186 46.2059 73.9151 46.1512C73.9151 46.1512 74.0003 46.3604 74.164 46.7298C74.3976 47.2518 74.7 47.7429 75.0639 48.1911C75.6017 48.854 76.2585 49.4197 77.0034 49.8616C77.9166 50.4031 78.9502 50.7302 80.0201 50.8161C80.5943 50.8212 81.1601 50.9485 81.6767 51.1888C81.9088 51.3265 82.1098 51.5073 82.2678 51.7207C82.4259 51.934 82.5378 52.1756 82.5971 52.431C82.7171 52.887 82.6946 53.3668 82.5323 53.8106C82.3906 54.19 82.157 54.5318 81.8506 54.8076C81.402 55.2004 80.8565 55.4772 80.2655 55.6118C80.1077 55.6507 79.947 55.678 79.7849 55.6935C79.7175 55.7061 79.6485 55.7083 79.5804 55.7001V55.7001Z" fill="#455A64"/>
<path d="M83.6844 50.9732C83.7211 50.8263 83.7428 50.6762 83.7492 50.5253C83.7291 50.1188 83.5517 49.7342 83.2515 49.4465C82.7793 49.0462 82.177 48.8152 81.5472 48.7927C80.8382 48.7208 80.0405 48.8254 79.1918 48.7633C78.3927 48.6914 77.6206 48.449 76.9318 48.0539C76.3718 47.734 75.8755 47.3211 75.4661 46.8346C75.1904 46.5088 74.9611 46.1494 74.7843 45.7656C74.7196 45.6348 74.6889 45.5204 74.6582 45.4387C74.6435 45.4018 74.6332 45.3634 74.6275 45.3243C74.8808 45.8322 75.1942 46.3104 75.5615 46.7496C75.9727 47.2146 76.4652 47.6073 77.017 47.9101C77.6863 48.2861 78.4332 48.5171 79.2054 48.5868C80.0269 48.6489 80.828 48.5475 81.5642 48.6293C82.2299 48.6629 82.861 48.9238 83.3436 49.3648C83.656 49.6772 83.8264 50.0958 83.8174 50.5286C83.8093 50.6402 83.7852 50.7502 83.7458 50.8555C83.7117 50.9339 83.6912 50.9732 83.6844 50.9732Z" fill="#455A64"/>
<path d="M82.5016 48.0995C82.5016 48.0995 82.5391 48.0995 82.6073 48.1289C82.7095 48.166 82.8059 48.2167 82.8936 48.2793C83.2182 48.5065 83.4726 48.8137 83.6299 49.1684C83.8636 49.6874 84.0075 50.2395 84.056 50.803C84.1277 51.4882 84.1197 52.1789 84.0321 52.8624C83.8446 54.0938 83.5365 55.3054 83.1117 56.4813L82.7538 57.5535C82.7159 57.6865 82.6645 57.8157 82.6004 57.9392C82.6158 57.8016 82.6455 57.6658 82.6891 57.5339C82.7572 57.2756 82.8663 56.903 83.0027 56.4453C83.3867 55.2698 83.675 54.0676 83.8651 52.8494C83.9534 52.1781 83.966 51.4997 83.9026 50.8258C83.8642 50.2763 83.7365 49.7358 83.5242 49.224C83.3836 48.8808 83.1563 48.5764 82.8629 48.3381C82.6379 48.1681 82.4914 48.1158 82.5016 48.0995Z" fill="#455A64"/>
<path d="M84.7275 51.7542C84.6797 51.7738 84.5638 51.5646 84.3866 51.3586C84.2093 51.1527 84.0116 51.0317 84.0457 50.986C84.0798 50.9402 84.3286 51.0023 84.5366 51.2508C84.7445 51.4992 84.7684 51.7378 84.7275 51.7542Z" fill="#455A64"/>
<path d="M84.7752 50.6428C84.7207 50.6428 84.6627 50.4107 84.4718 50.2047C84.2809 49.9988 84.0287 49.9171 84.0457 49.8778C84.0628 49.8386 84.3525 49.8451 84.6014 50.1001C84.8502 50.3551 84.8161 50.6461 84.7752 50.6428Z" fill="#455A64"/>
<path d="M58 47C58 47.1978 58.0586 47.3911 58.1685 47.5556C58.2784 47.72 58.4346 47.8482 58.6173 47.9239C58.8 47.9996 59.0011 48.0194 59.1951 47.9808C59.3891 47.9422 59.5672 47.847 59.7071 47.7071C59.8469 47.5673 59.9422 47.3891 59.9808 47.1951C60.0194 47.0011 59.9996 46.8 59.9239 46.6173C59.8482 46.4346 59.72 46.2784 59.5556 46.1685C59.3911 46.0586 59.1978 46 59 46C58.7348 46 58.4804 46.1054 58.2929 46.2929C58.1053 46.4804 58 46.7348 58 47Z" fill="#263238"/>
<path d="M54 47C54 47.1978 54.0586 47.3911 54.1685 47.5556C54.2784 47.72 54.4346 47.8482 54.6173 47.9239C54.8 47.9996 55.0011 48.0194 55.1951 47.9808C55.3891 47.9422 55.5672 47.847 55.7071 47.7071C55.8469 47.5673 55.9422 47.3891 55.9808 47.1951C56.0194 47.0011 55.9996 46.8 55.9239 46.6173C55.8482 46.4346 55.72 46.2784 55.5556 46.1685C55.3911 46.0586 55.1978 46 55 46C54.7348 46 54.4804 46.1054 54.2929 46.2929C54.1054 46.4804 54 46.7348 54 47Z" fill="#263238"/>
<path d="M51.1431 46.4845C51.0404 46.6553 50.991 46.8529 51.0014 47.0521C51.0117 47.2512 51.0814 47.4426 51.2014 47.6018C51.3214 47.7611 51.4862 47.8808 51.6748 47.9456C51.8633 48.0105 52.0669 48.0175 52.2595 47.9657C52.452 47.914 52.6247 47.8059 52.7554 47.6553C52.886 47.5047 52.9687 47.3185 52.9927 47.1206C53.0167 46.9227 52.9811 46.7221 52.8903 46.5446C52.7995 46.3671 52.6577 46.2208 52.4831 46.1245C52.2566 45.9994 51.9904 45.9671 51.7405 46.0342C51.4906 46.1014 51.2765 46.2628 51.1431 46.4845V46.4845Z" fill="#263238"/>
<path d="M55.4401 38.0041C55.3862 38.0169 55.3311 38.0239 55.2758 38.0248L54.7993 38.0578C54.6967 38.0578 54.5775 38.0578 54.4502 38.0867L54.0395 38.1569L53.5548 38.2354L53.0086 38.3799C52.0774 38.6328 51.1927 39.0344 50.3881 39.5693C49.2023 40.3418 48.2068 41.3753 47.4767 42.5916C46.7466 43.8078 46.3012 45.1751 46.174 46.59C46.1452 47.0135 46.1452 47.4385 46.174 47.862C46.174 48.0767 46.174 48.2956 46.2151 48.5103C46.2561 48.7251 46.2849 48.9481 46.3177 49.167C46.4863 50.0663 46.7852 50.936 47.2049 51.7481C48.1048 53.5098 49.545 54.9333 51.3122 55.8077C52.2334 56.2807 53.2303 56.5869 54.2572 56.7121C54.517 56.7507 54.779 56.7728 55.0417 56.7782C55.3057 56.7926 55.5704 56.7926 55.8344 56.7782C56.3692 56.7582 56.9011 56.6905 57.4239 56.5758C58.5522 56.3312 59.6258 55.879 60.5906 55.2419L60.6358 55.2089L60.6851 55.2295L63.971 56.5634L63.8313 56.6873C63.4986 55.4732 63.1782 54.2879 62.8702 53.144V53.0944L62.9031 53.0572C63.7813 51.8917 64.375 50.5352 64.6363 49.0968C64.7625 48.426 64.808 47.7425 64.7719 47.0608C64.7647 46.7328 64.7346 46.4057 64.6815 46.082C64.6569 45.9251 64.6363 45.764 64.6117 45.6071C64.5871 45.4501 64.5378 45.2973 64.5008 45.1445C64.0583 43.3748 63.1146 41.7721 61.784 40.5311C60.4535 39.29 58.7933 38.4638 57.005 38.1528C56.7585 38.1198 56.5408 38.0702 56.3519 38.0537L55.8713 38.0206L55.5756 38H55.477H55.8878H56.3725C56.5655 38 56.7832 38.0537 57.0337 38.0867C57.1569 38.0867 57.2884 38.1198 57.4445 38.1445L57.8552 38.2519L58.3234 38.3717L58.8163 38.5493C59.5953 38.8337 60.3319 39.2242 61.0055 39.7097C62.8355 41.0074 64.146 42.9181 64.7021 45.0991C64.739 45.2561 64.7883 45.4089 64.8171 45.5699L64.891 46.0531C64.9495 46.3831 64.9811 46.7173 64.9855 47.0525C65.0255 47.7435 64.9828 48.4367 64.8581 49.1174C64.5965 50.5866 63.9943 51.9732 63.1002 53.1646V53.0779L64.0695 56.6213L64.1229 56.8236L63.9299 56.7451L60.644 55.4154H60.7426C59.2948 56.3763 57.613 56.9204 55.8796 56.9888C55.6059 57.0037 55.3317 57.0037 55.0581 56.9888C54.783 56.9848 54.5085 56.9614 54.2366 56.9186C53.1865 56.7895 52.1673 56.4749 51.226 55.9894C50.3183 55.5254 49.4871 54.9237 48.7616 54.2053C48.08 53.5023 47.5032 52.7039 47.0489 51.8348C46.6225 51.0044 46.3207 50.1151 46.1535 49.1959L46.0508 48.5269C46.022 48.308 46.0261 48.085 46.0097 47.8661C45.9911 47.4337 45.9993 47.0006 46.0343 46.5693C46.1927 44.9933 46.7297 43.4796 47.5992 42.1587C48.3274 41.0793 49.2665 40.1604 50.3593 39.4578C51.1779 38.9234 52.0785 38.5285 53.025 38.2891L53.5754 38.1487L54.0682 38.0785L54.479 38.0206C54.6063 38.0206 54.7254 38.0206 54.8322 38.0206H55.3086L55.4401 38.0041Z" fill="#263238"/>
<path d="M8.11541 46.6882C8.16722 46.7866 8.24261 46.8676 8.33343 46.9225C8.42425 46.9773 8.52705 47.004 8.6307 46.9995C8.73435 46.9951 8.83492 46.9596 8.92152 46.8971C9.00813 46.8346 9.07747 46.7474 9.12206 46.6448L10.5143 43.4796C11.0187 42.2336 10.9999 41.5375 10.9999 41.5375C11.0103 39.6206 9.18668 38.3905 7.30675 39.3125C6.93541 39.4877 6.61784 39.7761 6.39179 40.1432C5.76654 41.1998 5.97496 42.4526 6.42306 43.4841L8.11541 46.6882ZM9.27213 43.192C7.90491 44.0501 6.53143 42.4389 7.28591 40.862C7.3856 40.6535 7.53646 40.4797 7.7215 40.36C9.08872 39.5019 10.4622 41.1131 9.70772 42.6922C9.60854 42.9005 9.45751 43.0738 9.27213 43.192Z" fill="#92E3A9"/>
<path d="M71.5415 42.6882C71.6036 42.7866 71.694 42.8676 71.8029 42.9225C71.9118 42.9773 72.035 43.004 72.1593 42.9995C72.2836 42.9951 72.4042 42.9596 72.508 42.8971C72.6118 42.8346 72.695 42.7473 72.7484 42.6448L74.4152 39.4796C75.0224 38.2335 74.9999 37.5375 74.9999 37.5375C74.9999 35.6206 72.8259 34.3905 70.5719 35.3125C70.1268 35.4878 69.7461 35.7761 69.4749 36.1432C68.7253 37.1998 68.9602 38.4526 69.5099 39.4841L71.5415 42.6882ZM72.9283 39.192C71.2891 40.0524 69.6424 38.4389 70.547 36.862C70.6651 36.6532 70.8463 36.4797 71.0692 36.3622C72.7084 35.5019 74.3552 37.113 73.4481 38.6922C73.3302 38.9004 73.15 39.0738 72.9283 39.192Z" fill="#92E3A9"/>
<path d="M3.85464 14.4891C3.89795 15.3115 3.37002 15.7277 3.00088 15.6844C2.63357 15.5863 2.28828 15.3362 1.99864 14.9586C1.3016 14.1928 0.579825 13.3804 0.18594 12.1785C0.0589325 11.825 -0.00528434 11.4218 0.000340181 11.0132C0.00268062 10.8072 0.0390965 10.6059 0.105814 10.4303C0.172532 10.2547 0.267125 10.1111 0.37979 10.0143C0.649941 9.81123 0.967524 9.97771 1.23974 10.1775C2.03611 10.7693 2.74064 11.6406 3.30196 12.7278C3.59322 13.2101 3.78608 13.8247 3.85464 14.4891" fill="#92E3A9"/>
<path d="M4.96337 18.3146C4.36873 18.5168 3.83965 18.9573 3.45287 19.5722C3.2168 19.8744 3.06577 20.2692 3.02364 20.6941C3.00903 20.9061 3.0591 21.1171 3.16326 21.2826C3.26743 21.448 3.41753 21.5549 3.58187 21.5807C3.77882 21.5541 3.96266 21.4412 4.10257 21.261C4.46612 20.8629 4.81795 20.3563 5.29174 20.3201C5.56382 20.302 5.84763 20.4528 6.09625 20.3201C6.21552 20.2436 6.31213 20.1192 6.3714 19.9657C6.43066 19.8122 6.44935 19.6381 6.42462 19.4697C6.36654 19.1335 6.21148 18.8382 5.9907 18.6434C5.8515 18.4888 5.68599 18.3786 5.50753 18.3215C5.32907 18.2644 5.14266 18.262 4.96337 18.3146V18.3146Z" fill="#92E3A9"/>
<path d="M5.52634 14.8164C5.25092 14.7352 4.99505 14.5689 4.78089 14.3319C4.56673 14.0949 4.40074 13.7944 4.2973 13.4563C4.09606 12.7757 4.04492 12.0368 4.14953 11.3212C4.24908 10.4789 4.47533 9.66967 4.81565 8.93871C4.94365 8.64788 5.11884 8.39588 5.32932 8.19985C5.43464 8.10068 5.55716 8.03595 5.68629 8.01126C5.81542 7.98656 5.94728 8.00264 6.0705 8.05811C6.42467 8.2481 6.55602 8.79697 6.62873 9.2825C6.75957 10.1368 6.838 11.003 6.86328 11.873C6.87969 12.5727 6.86328 13.3085 6.5912 13.9177C6.31912 14.5269 5.90162 14.94 5.47005 14.8224" fill="#92E3A9"/>
<path d="M9.00001 22.0001C8.94122 21.9439 8.88699 21.8803 8.83817 21.8101L8.41598 21.2733C8.20735 21.0085 7.98814 20.7578 7.75924 20.5224C7.47599 20.2405 7.17558 19.9884 6.86091 19.7684C6.54942 19.5449 6.21447 19.3803 5.86641 19.2799C5.58314 19.1966 5.28889 19.1966 5.00561 19.2799C4.81513 19.3366 4.63298 19.4323 4.46615 19.5634C4.40809 19.6199 4.34605 19.6694 4.28085 19.7111C4.3301 19.641 4.38606 19.5792 4.44738 19.5272C4.61225 19.3771 4.79648 19.2658 4.99154 19.1985C5.2833 19.103 5.5882 19.0947 5.88283 19.1743C6.23986 19.2699 6.58376 19.4335 6.90313 19.6599C7.22234 19.8833 7.52602 20.1416 7.81084 20.4319C8.0392 20.6734 8.25615 20.9322 8.46054 21.2069C8.63645 21.4422 8.77015 21.6382 8.86397 21.7739C8.91581 21.8425 8.96145 21.9183 9.00001 22.0001Z" fill="#263238"/>
<path d="M8.67869 21.5837C8.6524 21.5552 8.62878 21.5228 8.60832 21.4872L8.42537 21.2037C8.26588 20.9534 8.03602 20.6006 7.74048 20.1663C7.15411 19.3008 6.30738 18.1458 5.32696 16.9274C4.34654 15.7091 3.41538 14.6656 2.71876 13.9479C2.5452 13.7669 2.3857 13.6071 2.24966 13.4683C2.11362 13.3296 1.98931 13.209 1.88611 13.1155L1.65156 12.8954C1.6232 12.8713 1.59721 12.843 1.57416 12.8109C1.60523 12.8268 1.63443 12.8481 1.66094 12.8742L1.89549 13.0793C2.00104 13.1668 2.13004 13.2844 2.26843 13.4171C2.40681 13.5498 2.57334 13.7187 2.74925 13.8845C3.66753 14.8098 4.54677 15.7973 5.38325 16.843C6.36367 18.0644 7.20571 19.2314 7.78036 20.112C8.0712 20.5523 8.29402 20.9172 8.44648 21.1736L8.61536 21.4752C8.6407 21.5069 8.66207 21.5436 8.67869 21.5837Z" fill="#263238"/>
<path d="M7.1494 19.2284C7.08071 19.1337 7.01723 19.0329 6.95941 18.9268C6.7954 18.6445 6.64275 18.3516 6.50204 18.0493C6.30003 17.594 6.11759 17.1249 5.95554 16.6439C5.75067 16.0574 5.579 15.4527 5.44187 14.8345C5.171 13.7226 5.05973 12.5566 5.1135 11.3935C5.12291 11.1909 5.14329 10.9893 5.17449 10.7903C5.17449 10.7029 5.19325 10.6215 5.20732 10.5461L5.25189 10.347C5.27421 10.2216 5.30401 10.0986 5.34102 9.97911C5.26384 10.4458 5.20901 10.9182 5.17683 11.3935C5.13885 12.5578 5.25707 13.7218 5.52631 14.8345C5.66436 15.4413 5.83361 16.0357 6.03294 16.6138C6.19173 17.0896 6.36944 17.5546 6.56537 18.007C6.73425 18.393 6.88201 18.6976 6.98756 18.9118C7.04888 19.0108 7.10305 19.1168 7.1494 19.2284V19.2284Z" fill="#263238"/>
</svg>
