<svg width="24" height="24" viewBox="0 0 24 24" fill="none" xmlns="http://www.w3.org/2000/svg">
<path d="M10.7003 10.7384C9.99366 11.4459 9.96851 12.1787 10.347 12.8104C10.2965 12.861 10.2713 12.8862 10.2208 12.9367C10.0188 13.1137 9.81694 13.2147 9.48899 13.4168C9.33759 13.5178 9.16085 13.6442 9.00944 13.7958C8.85803 13.9473 8.73182 14.1747 8.6813 14.3516C8.42886 15.0339 8.42886 15.6655 8.12609 15.8929C7.9747 16.0444 7.67192 16.1456 7.36894 16.3476C7.09132 16.5245 6.83887 16.7771 6.61179 17.0044C6.51092 17.1054 6.51092 17.2572 6.61179 17.3582C6.71266 17.4845 6.8894 17.4845 6.99027 17.3834C7.21736 17.1812 7.44444 17.0297 7.6969 16.9033C7.92399 16.7769 8.22697 16.7263 8.58028 16.499C8.73168 16.398 8.90842 16.221 9.00929 16.0443C9.11016 15.8673 9.18603 15.7157 9.23638 15.539C9.3626 15.2358 9.4383 14.9325 9.53917 14.7304C9.58969 14.6294 9.64004 14.5788 9.71591 14.503C9.79161 14.4524 9.86731 14.3766 9.99353 14.3261C10.2206 14.2251 10.5739 14.0733 10.8769 13.8714C10.9778 13.7956 11.0537 13.7198 11.1545 13.644C11.7855 14.0229 12.5426 14.0229 13.2492 13.2903C14.1326 12.4059 14.511 10.6373 13.9306 10.031C13.3754 9.47517 11.6088 9.82887 10.7003 10.7385L10.7003 10.7384Z" fill="#FA2F66" />
<path d="M6.73819 13.4677C7.62157 12.5833 8.00004 10.8147 7.41963 10.2084C6.83923 9.62736 5.07269 9.98108 4.16416 10.8907C3.45753 11.5981 3.43238 12.3309 3.81085 12.9626C3.76033 13.0132 3.73516 13.0384 3.68463 13.089C3.48271 13.2659 3.2808 13.3669 2.95285 13.5691C2.80146 13.6701 2.62472 13.7964 2.47331 13.948C2.32189 14.0996 2.19569 14.3269 2.14517 14.5038C1.89273 15.1861 1.89273 15.8177 1.58996 16.0451C1.43856 16.1967 1.13578 16.2978 0.832806 16.4998C0.555191 16.6767 0.302741 16.9293 0.0756533 17.1567C-0.0252178 17.2577 -0.0252178 17.4094 0.0756533 17.5104C0.176524 17.6368 0.353269 17.6368 0.454135 17.5356C0.681227 17.3334 0.90831 17.1819 1.16077 17.0555C1.38786 16.9291 1.69083 16.8785 2.04415 16.6512C2.19555 16.5502 2.37229 16.3732 2.47316 16.1965C2.57403 16.0195 2.6499 15.868 2.70025 15.6912C2.82647 15.3881 2.90217 15.0848 3.00304 14.8826C3.05356 14.7816 3.10391 14.731 3.17978 14.6552C3.25548 14.6047 3.33118 14.5289 3.4574 14.4783C3.68449 14.3773 4.0378 14.2256 4.34078 14.0236C4.44165 13.9478 4.51752 13.872 4.61839 13.7962C5.27451 14.2004 6.03162 14.1752 6.73825 13.4677L6.73819 13.4677Z" fill="#FA2F66" />
<path d="M10.5489 17.2824C9.84229 17.9898 9.81715 18.7227 10.1956 19.3543C10.1451 19.4049 10.1199 19.4301 10.0694 19.4807C9.86748 19.6576 9.66557 19.7586 9.33762 19.9608C9.18622 20.0618 9.00948 20.1881 8.85807 20.3397C8.70666 20.4913 8.58046 20.7186 8.52994 20.8956C8.2775 21.5778 8.2775 22.2095 7.97472 22.4368C7.82333 22.5884 7.52055 22.6895 7.21757 22.8915C6.93996 23.0685 6.68751 23.321 6.46042 23.5484C6.35955 23.6494 6.35955 23.8011 6.46042 23.9021C6.56129 24.0285 6.73803 24.0285 6.8389 23.9273C7.06599 23.7252 7.29308 23.5736 7.54553 23.4472C7.77263 23.3208 8.0756 23.2703 8.42892 23.0429C8.58031 22.9419 8.75705 22.765 8.85792 22.5882C8.95879 22.4113 9.03467 22.2597 9.08501 22.0829C9.21123 21.7798 9.28693 21.4765 9.3878 21.2743C9.43833 21.1733 9.48867 21.1227 9.56455 21.047C9.64024 20.9964 9.71594 20.9206 9.84216 20.87C10.0693 20.769 10.4226 20.6173 10.7255 20.4153C10.8264 20.3395 10.9023 20.2637 11.0032 20.188C11.6341 20.5669 12.3912 20.5669 13.0978 19.8342C13.9812 18.9498 14.3597 17.1812 13.7793 16.575C13.1989 16.0191 11.4323 16.3728 10.5489 17.2824L10.5489 17.2824Z" fill="#FA2F66" />
<path d="M18.145 0C14.9147 0 12.29 2.62769 12.29 5.86186C12.29 6.79667 12.5171 7.70625 12.8958 8.48946H13.0472C13.8043 8.48946 14.4099 8.71682 14.8642 9.14634C15.3438 9.62644 15.5457 10.3087 15.5203 11.1171C16.3026 11.5214 17.186 11.7235 18.1449 11.7235C21.3752 11.7235 23.9999 9.09594 23.9999 5.86177C24 2.62769 21.3755 0 18.1449 0H18.145ZM20.164 6.97358C20.4164 7.22631 20.4164 7.63045 20.164 7.88316C20.0378 8.00953 19.8612 8.06011 19.7098 8.06011C19.5331 8.06011 19.3817 8.00953 19.2557 7.88316L18.1452 6.7714L17.0347 7.88316C16.9085 8.00953 16.7319 8.06011 16.5805 8.06011C16.4292 8.06011 16.2524 8.00953 16.1264 7.88316C15.8739 7.63043 15.8739 7.22628 16.1264 6.97358L17.2368 5.86182L16.1264 4.75006C15.8739 4.49732 15.8739 4.09318 16.1264 3.84047C16.3788 3.58774 16.7825 3.58774 17.0349 3.84047L18.1454 4.95223L19.2558 3.84047C19.5083 3.58774 19.912 3.58774 20.1644 3.84047C20.4168 4.09321 20.4168 4.49735 20.1644 4.75006L19.0539 5.86182L20.164 6.97358Z" fill="#FA2F66" />
</svg>
