<svg width="24" height="15" viewBox="0 0 24 15" fill="none" xmlns="http://www.w3.org/2000/svg">
<path d="M23.6 9.64243C23.5705 9.64931 23.5409 9.65257 23.5115 9.65257C22.9607 9.65257 22.9543 9.02906 22.4918 8.12707L22.1345 7.37431L22.1129 8.07809C21.709 12.7447 21.8265 13.5312 21.8809 13.6619C22.1027 13.857 22.5936 14.3937 22.4429 14.7564C22.3956 14.87 22.2759 14.9993 21.9753 14.9993C21.9489 14.9993 21.9214 14.9983 21.8919 14.9962C21.568 14.9733 21.2199 14.8602 20.8576 14.6606C20.4896 14.458 20.2627 14.0688 20.2655 13.645L20.2949 9.07827C20.2953 9.03048 20.2563 8.99146 20.2081 8.99146H19.7925C19.7444 8.99146 19.7053 9.03048 19.7056 9.07827L19.7352 13.6455C19.7381 14.0692 19.5111 14.4584 19.1429 14.6611C18.7803 14.8608 18.4325 14.9738 18.1088 14.9966C18.0795 14.9989 18.0518 14.9997 18.0254 14.9997C17.7248 14.9997 17.6049 14.8705 17.5578 14.7568C17.4071 14.3945 17.8976 13.8577 18.1197 13.6623C18.1728 13.5339 18.2873 12.7665 17.9053 8.28361C17.3916 9.07505 16.7654 9.37607 16.2981 9.37607C16.287 9.37607 16.2761 9.3759 16.2654 9.37555C16.1311 9.37143 16.0122 9.34048 15.9131 9.29012C15.7928 9.33636 15.6496 9.36386 15.4878 9.36386C15.0281 9.36386 14.4185 9.14382 13.7598 8.51222C13.7593 8.51239 13.7594 8.51239 13.7589 8.51256L13.7188 9.53439C13.4051 13.162 13.4985 13.7852 13.5321 13.8888C13.6404 13.988 14.1146 14.4482 13.9749 14.7848C13.933 14.8853 13.8288 15 13.5715 15C13.5497 15 13.5267 14.999 13.5027 14.9974C13.2428 14.9788 12.9642 14.8886 12.6749 14.7292C12.3732 14.563 12.1873 14.2443 12.1898 13.8976L12.2098 10.7568C12.2102 10.709 12.1712 10.67 12.123 10.67H11.8771C11.829 10.67 11.7899 10.709 11.7902 10.7568L11.8105 13.8976C11.8127 14.2446 11.6267 14.5632 11.325 14.7292C11.0359 14.8886 10.7575 14.9788 10.4974 14.9974C10.4733 14.9991 10.4503 15 10.4287 15C10.1712 15 10.0671 14.8855 10.0252 14.7848C9.88522 14.4478 10.3598 13.9876 10.468 13.8888C10.5014 13.7848 10.595 13.1615 10.2813 9.53439L10.229 8.52339C10.2287 8.52321 10.2289 8.52339 10.2285 8.52321C9.57446 9.14602 8.96922 9.36351 8.5121 9.36369C8.35015 9.36369 8.20706 9.33635 8.08664 9.29011C7.98767 9.34048 7.8688 9.37142 7.73471 9.37555C7.7238 9.37572 7.7129 9.37606 7.70183 9.37606C7.23448 9.37606 6.6083 9.07505 6.09462 8.28342C5.71241 12.7666 5.82695 13.5336 5.88024 13.6626C6.10206 13.858 6.59258 14.3947 6.44207 14.7571C6.39483 14.8707 6.2751 15 5.97454 15C5.94807 15 5.92039 14.999 5.89115 14.9969C5.56725 14.974 5.21929 14.8609 4.85697 14.6613C4.48894 14.459 4.26192 14.0698 4.26471 13.6457L4.2943 9.07853C4.29464 9.03074 4.25571 8.99171 4.20744 8.99171H3.79166C3.74356 8.99171 3.70446 9.03074 3.70481 9.07853L3.73439 13.6457C3.73716 14.0698 3.51015 14.459 3.14196 14.6613C2.77965 14.8609 2.4317 14.974 2.10778 14.9969C2.07854 14.9991 2.05085 15 2.02455 15C1.72401 15 1.60428 14.8707 1.55703 14.7571C1.4065 14.3947 1.89702 13.858 2.11886 13.6626C2.17301 13.5319 2.29067 12.7458 1.887 8.07878L1.86503 7.37535L1.50791 8.12781C1.04543 9.0298 1.03901 9.65331 0.488255 9.65331C0.458841 9.65331 0.429255 9.65005 0.399666 9.64317C0.0889161 9.57097 -0.0595315 9.12348 0.0221293 8.50291C0.110718 7.82972 1.266 5.31178 1.74145 4.29615L1.95618 3.881C2.17471 3.45879 2.61226 3.19337 3.0902 3.19337H3.22464C2.70073 2.90095 2.34531 2.34414 2.34531 1.70584C2.34531 0.652896 3.31044 -0.180138 4.40774 0.0336982C5.09828 0.168302 5.64523 0.735235 5.75663 1.42564C5.87809 2.1784 5.49951 2.85899 4.90016 3.19354H4.90933C4.95916 3.19354 5.00864 3.19629 5.05778 3.20162C5.49536 3.24941 5.86961 3.54217 6.07154 3.93084C6.22052 4.21741 6.34111 4.51721 6.42936 4.82751C6.74512 5.93872 7.40471 7.89573 8.01929 8.31416C8.05944 8.3415 8.09214 8.36883 8.12398 8.39616C8.13713 8.39393 8.14803 8.39049 8.16204 8.38877C8.68542 8.32242 9.5632 7.48281 10.1172 6.88267C10.2368 6.75323 10.348 6.61776 10.4538 6.47697C10.6678 6.25074 10.9713 6.12095 11.2864 6.12095H11.3841C10.9074 5.89231 10.5769 5.40854 10.5769 4.84849C10.5769 3.96762 11.392 3.27229 12.3124 3.46826C12.8386 3.58017 13.2656 3.99807 13.385 4.51931C13.544 5.21398 13.1836 5.84867 12.6155 6.12113H12.7135C13.0308 6.12113 13.3355 6.25246 13.5499 6.48127C13.6539 6.62035 13.7634 6.75375 13.8812 6.88148C14.4353 7.48179 15.3141 8.32257 15.8378 8.38911C15.8518 8.39083 15.8625 8.39427 15.8757 8.39651C15.9075 8.36917 15.9402 8.34167 15.9802 8.31451C16.5953 7.89591 17.2547 5.93893 17.5703 4.82785C17.6594 4.51378 17.782 4.21073 17.9333 3.92119C18.1359 3.53337 18.5113 3.24663 18.9487 3.20126C18.9956 3.19645 19.0429 3.19387 19.0903 3.19387H19.0995C18.5755 2.90146 18.2203 2.34464 18.2203 1.70634C18.2203 0.653398 19.1854 -0.179812 20.2829 0.0342007C20.9735 0.168805 21.5204 0.735914 21.6316 1.42649C21.7529 2.17926 21.3743 2.85949 20.775 3.19405H20.921C21.393 3.19594 21.8245 3.45878 22.0404 3.87565L22.2581 4.29613C22.7334 5.31123 23.8892 7.83005 23.9778 8.50342C24.0596 9.1235 23.9112 9.57098 23.5999 9.64302L23.6 9.64243Z" fill="#FA2F66"/>
</svg>
