<svg width="16" height="29" viewBox="0 0 16 29" fill="none" xmlns="http://www.w3.org/2000/svg">
<path d="M4.09334 4.49354C5.12618 4.21702 4.8803 2.41964 4.8803 2.41964C4.8803 1.07156 6.45423 0 8.37254 0C10.2909 0 11.8648 1.07156 11.8648 2.41964C11.8648 3.76772 10.2909 4.87378 8.37254 4.87378C6.89682 4.87378 3.99476 4.49352 4.09327 4.49352L4.09334 4.49354Z" fill="#FA2F66"/>
<path d="M14.029 16.384C13.9305 18.1814 14.6193 19.4605 14.6193 19.4605L12.5042 19.4259L11.1761 28.24C11.1761 28.5511 10.7826 28.7931 10.2906 28.7931C9.848 28.7586 9.50364 28.482 9.55274 28.1708L9.60185 19.3217L9.25748 19.2872L7.83116 28.4474C7.83116 28.7584 7.43767 29.0004 6.94569 29.0004C6.5031 28.9659 6.15873 28.6894 6.15873 28.3782L6.20784 19.1835L3.65018 19.1142L5.2241 8.95178L2.17445 16.107C1.78097 17.0748 -0.383212 16.66 0.0593707 15.6577C0.6496 13.7566 2.46966 7.18918 4.87972 5.94436C5.76519 5.46035 6.99481 5.21854 8.91311 5.2876C11.274 5.39135 12.1595 6.80847 12.848 8.81335C13.9302 10.0232 18.6029 13.8599 14.0284 16.3832L14.029 16.384ZM12.0616 11.0952C13.9308 11.4063 15.1113 12.7198 14.7178 14.0334C14.2752 15.347 12.406 16.1765 10.5368 15.8655C8.6676 15.5545 7.48716 14.2409 7.92974 12.9273C8.32323 11.6138 10.1924 10.7842 12.0616 11.0952Z" fill="#FA2F66"/>
<path d="M9.84822 11.9601C9.35621 11.8563 8.86447 12.0983 8.76597 12.4441C8.66745 12.7899 9.01183 13.1009 9.45472 13.1699C9.94672 13.2044 10.3402 13.0317 10.4876 12.7206C10.5861 12.3749 10.3399 12.0293 9.84822 11.9601Z" fill="#FA2F66"/>
<path d="M11.4222 14.7939C12.2583 14.9321 12.0124 13.9988 12.9961 14.7594C13.4387 15.1051 14.0784 14.6556 13.6849 14.2753C13.2914 13.9988 12.5535 13.584 11.9142 13.7913C11.1763 13.4456 11.8157 13.0308 11.7665 12.4778C11.7174 12.0975 10.8811 12.132 10.9305 12.5123C10.9305 12.6505 10.8814 12.7888 10.7828 12.9271C10.5861 13.0998 9.89736 13.0653 9.74998 13.5493C9.65147 13.8603 11.0781 14.7592 11.4224 14.7937L11.4222 14.7939Z" fill="#FA2F66"/>
</svg>
