<svg width="24" height="24" viewBox="0 0 24 24" fill="none" xmlns="http://www.w3.org/2000/svg">
<path d="M8.3288 3.64733C8.3288 5.53603 6.92356 7.06706 5.18986 7.06706C3.45616 7.06706 2.05078 5.53598 2.05078 3.64733C2.05078 1.75863 3.4562 0.2276 5.18986 0.2276C6.92356 0.2276 8.3288 1.75868 8.3288 3.64733Z" fill="#3C3C43" fill-opacity="0.6"/>
<path d="M10.3792 13.3551V11.7555C10.3792 9.76993 9.03741 8.14288 7.26542 7.867C6.63255 8.22558 5.92374 8.44624 5.1643 8.44624C4.40481 8.44624 3.69604 8.22559 3.06317 7.867C1.34168 8.14286 0 9.76993 0 11.7555V13.3551C0 13.5482 0.151861 13.7136 0.329146 13.7136H10.05C10.2271 13.7134 10.3792 13.548 10.3792 13.3551Z" fill="#3C3C43" fill-opacity="0.6"/>
<path d="M21.9987 13.7135C21.9987 15.6022 20.5933 17.1333 18.8596 17.1333C17.1259 17.1333 15.7207 15.6022 15.7207 13.7135C15.7207 11.825 17.1259 10.2939 18.8596 10.2939C20.5933 10.2939 21.9987 11.825 21.9987 13.7135Z" fill="#3C3C43" fill-opacity="0.6"/>
<path d="M20.9351 17.9326C20.3022 18.2912 19.5934 18.5119 18.8339 18.5119C18.0745 18.5119 17.3657 18.2912 16.7328 17.9326C14.986 18.2085 13.6191 19.8356 13.6191 21.8212V23.4207C13.6191 23.6139 13.771 23.7793 13.9483 23.7793H23.6692C23.8464 23.7793 23.9983 23.6139 23.9983 23.4207V21.8212C24.0488 19.8356 22.7072 18.2085 20.9351 17.9326H20.9351Z" fill="#3C3C43" fill-opacity="0.6"/>
<path d="M13.8722 5.16419L12.809 4.00591H18.1757V7.81174C18.1757 8.22533 18.4794 8.58392 18.8845 8.58392C19.2896 8.58392 19.5933 8.25305 19.5933 7.81174L19.5935 3.23373C19.5935 2.82013 19.2898 2.46154 18.8847 2.46154L12.8091 2.46135L13.8724 1.30307C14.1508 0.999699 14.1508 0.530882 13.8724 0.227523C13.5939 -0.075836 13.1635 -0.0758459 12.8851 0.227523L10.6068 2.70945C10.4802 2.84738 10.4043 3.04033 10.4043 3.26096C10.4043 3.4541 10.4802 3.64705 10.6068 3.81248L12.8851 6.29441C13.0117 6.43234 13.2142 6.51506 13.3913 6.51506C13.5686 6.51506 13.7457 6.43234 13.8976 6.29441C14.1508 5.96372 14.1508 5.46741 13.8723 5.16405L13.8722 5.16419Z" fill="#3C3C43" fill-opacity="0.6"/>
<path d="M9.16447 17.7394C8.886 17.436 8.45565 17.436 8.17719 17.7394C7.89872 18.0427 7.89872 18.5116 8.17719 18.8149L9.24041 20.0007H3.87368V16.195C3.87368 15.7814 3.56996 15.4229 3.16487 15.4229C2.75978 15.4229 2.45605 15.7537 2.45605 16.195V20.7731C2.45605 21.1866 2.75978 21.5452 3.16487 21.5452H9.24041L8.17719 22.7035C7.89872 23.0069 7.89872 23.4757 8.17719 23.7791C8.3038 23.917 8.50634 23.9997 8.68344 23.9997C8.86073 23.9997 9.03784 23.917 9.18969 23.7791L11.4679 21.2971C11.5945 21.1592 11.6705 20.9663 11.6705 20.7456C11.6705 20.5525 11.5945 20.3595 11.4679 20.1941L9.16447 17.7394Z" fill="#3C3C43" fill-opacity="0.6"/>
</svg>
